<svg version="1" xmlns="http://www.w3.org/2000/svg" width="642.4" height="537.6" viewBox="0 0 642.4 537.6"><path fill="#EAC0A5" d="M371.146 256.343l-59.262 74.765-92.242-73.116 59.263-74.765zM434.9 301.4l.3-.2c7.1-4.6 17.3-1.6 22.8 6.8l65.4 100.3c5.5 8.4 4.1 19-3 23.6l-.3.2c-7.1 4.6-17.3 1.6-22.8-6.8L431.9 325c-5.4-8.4-4.1-18.9 3-23.6zM408.3 320.4l.3-.2c7.1-4.6 16.5-2.8 21 4.1l53.8 82.5c4.5 6.9 2.4 16.3-4.7 20.9l-.3.2c-7.1 4.6-16.5 2.8-21-4.1l-53.8-82.5c-4.6-6.9-2.4-16.2 4.7-20.9z"/><path fill="#E1AF93" d="M408.1 380.4l.2-.2c6.6-5.4 16.2-4.5 21.5 2l14.4 18c5.3 6.5 4.1 16.1-2.5 21.5l-.2.2c-6.6 5.4-16.2 4.5-21.5-2l-14.4-18c-5.3-6.5-4.2-16.1 2.5-21.5z"/><path fill="#E1AF93" d="M376.2 375.4l.3-.2c7.1-4.7 16.6-3 21.2 4l12.7 19.3c4.6 6.9 2.7 16.4-4.4 21.1l-.3.2c-7.1 4.7-16.6 3-21.2-4l-12.7-19.3c-4.7-6.9-2.7-16.3 4.4-21.1z"/><path fill="#E1AF93" d="M351 373.4l.3-.1c7.5-2.7 15.6 1.1 18.2 8.4l7 20.3c2.6 7.3-1.3 15.4-8.8 18l-.3.1c-7.5 2.7-15.6-1.1-18.2-8.4l-7-20.3c-2.6-7.3 1.3-15.3 8.8-18z"/><path fill="#EAC0A5" d="M319.9 277.8l.8-1.1c10.4-13.1 19.9-22 26.9-29.9 10.7-12.1 29-15.2 56.7-2l55.5 63.2c21.4 29.8 10.5 36.5-17.1 61.4l-5.5 5.5c-25.3 26.5-52.9 25.4-62.8 26-6.7.5-15.3-.1-15.3-.1-4.9-.5-17.8-2.4-23.7-11.6-15.3-24-41.4-41.2-43.5-60.8-1.4-14.4 11.7-30.1 28-50.6z"/><path fill="#EAC0A5" d="M421 374.2l.3-.1c8.1-2.4 16.5 2 18.9 9.9l6.4 21.8c2.4 7.9-2.2 16.3-10.3 18.7l-.3.1c-8.1 2.4-16.5-2-18.9-9.9l-6.4-21.8c-2.4-7.9 2.2-16.3 10.3-18.7z"/><path fill="#E9DDCC" d="M428 397.9l.2-.1c5.5-1.6 9.5-4.7 7.6-11.3l-1.7-5.7c-1.9-6.6-7.2-8-12.7-6.4l-.2.1c-5.5 1.6-9.3 5.5-7.3 12.2l1.7 5.7c1.9 6.6 6.9 7.1 12.4 5.5z"/><path fill="#EAC0A5" d="M386.5 371.1l.3-.1c8.1-2.4 16.5 2 18.9 9.9l6.4 21.8c2.4 7.9-2.2 16.3-10.3 18.7l-.3.1c-8.1 2.4-16.5-2-18.9-9.9l-6.4-21.8c-2.3-7.9 2.3-16.3 10.3-18.7z"/><path fill="#E9DDCC" d="M393.5 394.1l.2-.1c5.4-1.5 9.2-4.6 7.3-11l-1.6-5.5c-1.9-6.4-7-7.7-12.4-6.2l-.2.1c-5.4 1.5-9 5.4-7.1 11.8l1.6 5.5c2 6.4 6.9 6.9 12.2 5.4z"/><path fill="#EAC0A5" d="M352.7 369.4l.3-.1c7.5-2.3 15.5 2.4 17.9 10.3l6.5 22.1c2.4 8-1.7 16.3-9.2 18.5l-.3.1c-7.5 2.3-15.5-2.4-17.9-10.3l-6.5-22.1c-2.4-7.9 1.7-16.2 9.2-18.5z"/><path fill="#E9DDCC" d="M358.9 390.6l.2-.1c4.9-1.4 8.4-4.2 6.7-10l-1.5-5c-1.7-5.8-6.3-7-11.2-5.6l-.2.1c-4.9 1.4-8.2 4.9-6.5 10.7l1.5 5c1.7 5.8 6.1 6.3 11 4.9z"/><path fill="#13517A" d="M.5 89.5L71.9.8c.8-.9 2.2-1.1 3.1-.3l263.5 214.7c1 .8 1.1 2.2.3 3.1L267.5 307c-.8.9-2.2 1.1-3.1.3L.8 92.6c-.9-.7-1.1-2.1-.3-3.1z"/><path fill="#9CAC3A" d="M338.9 218.3c.8-.9.6-2.3-.3-3.1L75 .5c-1-.8-2.4-.6-3.1.3L36.4 44.9l267.9 216.3 34.6-42.9z"/><path fill="#757D33" d="M267.5 307l36.9-45.8-268-216.3L.5 89.5c-.8.9-.6 2.3.3 3.1l263.5 214.7c1 .8 2.4.7 3.2-.3z"/><g><circle fill="#EAE7E8" cx="482" cy="379.9" r="153.5"/><circle fill="#FFF" cx="488.9" cy="384.1" r="153.5"/><circle fill="#F9F6EA" cx="489.1" cy="385.1" r="126.9"/><path opacity=".4" fill="#CC826A" d="M457.1 392.8c-3.7 12.9 23 25.7 32.8 30.1 22.8 10.4 24.3 23.5 22.8 43.4 10 1.7 21.9.9 19.7 12.9-1.4 7.6-18.7 17-27 17.6-7 .5-7.8-3.9-12.9-5.4-7.5-2.2-5.5-.3-13.6.7-9.5 1.1-20.1-3.7-28.5-6.8-9-3.3-15.4-8-24.7-10.1-13-2.9-15.4-6.2-21.9-17.8-5-9.1-5.9-14.5-14.2-20.9-9.8-7.7-9.8-10.8-8.3-24.1 1.7-14.9 1.6-21-7.6-32.4-7.7-9.5-4.8-14.1 1.4-25.4 5.6-10.3 6-24.2 13.1-33.6 4.4-5.8 4.8-3.7 10.3-5.8.2-.1 4.3 2 5.8 1.4 2.6-1 4.5-6.2 6.3-8.2 22.7-24.5 43 3.8 35.2 25.9-3.8 10.8-6 21.5.6 32.3 4 6.4 10.3 9.6 11.5 16.8.4 2.5-.1 6.3-.8 8.8"/><path fill="#EF4241" d="M382.9 392.1c-.7-4.1.1-2.3 5.5-2.8 4.3-.4 9.2.6 13.6 1.1 5.5.6 15.2-2 16.5 3.2 1.1 4.6 0 6-8.1 5.1-6.4-.7-5.2-.1-12.4-.1-3 0-7.1.9-10.3.7-6.1-.4-5.8-3.5-5.2-6.2"/><path fill="#8F5D4B" d="M415.8 412.5c.8-6.5-.2-7.2-8.7-9.6-5.5-1.5-11.9 0-17 2.2-4.2 1.8-16.2-1.9-12.2 10.7 2.1 6.6 12.4 5.7 19.4 7.1 10.5 2 17.1 3.5 18.3-4.8l.2-5.6z"/><path fill="#50803B" d="M396.5 361.9c3.8 0 4-1.8 4.6-4.5.8-3.7 2.4-7.3 6.4-8.5 7.7-2.2 5.9 4.7 7.6 11.1.2.8 3.8 1.4 4 2.1 3.1-2 10.3-5.4 8.1-8.8-2-3-1.6-4.6-3.8-7-3.5-3.8-12-10.1-17.1-9.1-5.6 1.1-8.2 7.8-11.4 12.7-1.6 2.5-7.6 6.1-7.3 9 .2 1.5 1.8 3 5.5 2.7l3.4.3z"/><path fill="#EAAD21" d="M422.2 328.4c.7-5.7-1-8-7.2-10-4-1.3-8.8.2-12.5 2.1-3.1 1.6-11.9-1.4-9.1 9.4 1.4 5.6 9 4.8 14.2 5.8 7.7 1.5 13.6 6 14.7-1.3l-.1-6z"/><path fill="#EF4241" d="M378.3 429.8c-.7-4.1.1-2.3 5.5-2.8 4.3-.4 9.2.6 13.6 1.1 5.5.6 15.2-2 16.5 3.2 1.1 4.6 0 6-8.1 5.1-6.4-.7-5.2-.1-12.4-.1-3 0-7.1.9-10.3.7-6.1-.4-5.8-3.5-5.2-6.2"/><path fill="#944E42" d="M421.3 374.8c.9-7.1 0-7.8-7.5-10.2-4.8-1.5-10.5.3-15.1 2.8-3.8 2.1-14.2-1.7-11 11.9 1.7 7 10.8 5.9 17 7.2 9.3 1.9 15 3.4 16.3-5.7l.3-6z"/><path fill="#734030" d="M410 309.3c.8.1 1.4.9 1.3 1.7l-19.9 163.7c-.1.8-.9 1.4-1.7 1.3-.8-.1-1.4-.9-1.3-1.7l19.9-163.7c.1-.8.8-1.4 1.7-1.3z"/><path fill="#EAAD21" d="M422 325.3c.7-5.7-1-8-7.2-10-4-1.3-8.8.2-12.6 2.1-3.1 1.6-9.2 5.8-9.1 9.4.1 5.8 9 4.8 14.2 5.8 7.7 1.5 13.6 6 14.7-1.3v-6z"/><path fill="#FCCB3E" d="M419.6 323c.7-5.7-.5-6.9-6.7-8.8-4-1.3-9.3-1-13 1-3.1 1.6-7 7.2-6.9 10.8.1 5.8 6.9 3.3 12 4.4 7.7 1.5 13.6 6 14.7-1.3l-.1-6.1z"/><path fill="#944E42" d="M421.7 369.5c-.2-2.4-.6-5.5-1.9-7.2-1.5-1.9-4.6-2.4-6.6-3-4.8-1.5-9.2 3.9-14.7 4.2-4.1.3-11.1 7.4-11 11.9.1 7.3 10.8 5.9 17 7.2 3.6.7 10.6 5.2 14.2 2.7 3.3-2.2 3.3-11.7 3-15.4.1 0 0-.2 0-.4z"/><path fill="#50803B" d="M395.7 360.9c3.8 0 2-3.4 2.6-6.1.8-3.7 2.4-7.3 6.4-8.5 7.7-2.2 8.7 7.2 10.3 13.6.2.8 3.1.7 3.2 1.4 3.1-2 10.3-5.4 8.1-8.8-2-3-3.1-7.1-5.8-8.9-3.9-2.6-10.2-5.9-14.4-6.5-5.6-.9-10.9 5.3-14.1 10.2-1.6 2.5-5.5 8.3-5.1 11.2.2 1.5.9 2.6 4.5 2.2l4.3.2z"/><path fill="#B36C5C" d="M419.4 370.6c.1-6.8-1.6-9.6-7.1-10.9-5.2-1.3-8.2 4.7-14.9.3-3.8-2.4-10.2 8.8-10.1 14.6.1 7.4 8.2 4.2 14.3 5.5 9.3 1.9 16.3 7.5 17.6-1.7.1-.1.2-7.8.2-7.8z"/><path fill="#8F5D4B" d="M416.1 407.6c-.2-2.2-.8-5.1-2.3-6.7-1.8-1.8-5.2-2.3-7.6-3-5.5-1.6-10.3 3.3-16.5 3.5-4.6.1-12.4 6.5-12.2 10.7.3 6.7 12.4 5.7 19.4 7.1 4.1.8 12.1 5.1 16.1 2.9 3.7-2 3.4-10.7 3-14.1.2-.1.1-.2.1-.4z"/><path fill="#AD7868" d="M413.5 408.4c-.1-6.2-2.1-8.8-8.3-10.2-5.9-1.3-9.1 4.1-16.9-.1-4.3-2.3-11.3 7.7-11 13.1.3 6.7 9.4 4.1 16.4 5.4 10.5 2 18.7 7.3 19.9-1.1l-.1-7.1z"/><path fill="#6A9D41" d="M392.5 359.6c3.8 0 2-3.4 2.6-6.1.8-3.7 2.4-7.3 6.4-8.5 8.6-2.5 12.2 8.6 13.6 15 3.1-2 10.3-5.4 8.1-8.8-2-3-3.1-6.3-5.8-8.1-3.9-2.6-9.3-6.1-13.9-6.1-5.7 0-11.4 4-14.6 9-1.6 2.5-2.5 5.9-2.1 8.9.2 1.5-.8 5.1 1.5 4.6l4.2.1z"/><path fill="#EF4241" d="M382.9 394c-2.5-3.8.4-6.6 5.8-7.1 4.3-.4 9.2.6 13.6 1.1 5.5.6 14.8-.1 16.1 5 1.1 4.6-1.3 4.3-8 4.6-6.8.3-7.6-3.5-13.4-1.5-2.6.9-5.8 1.7-8.8 1.6-7.8-.2-3.4-3-5.3-5.6"/><path fill="#F26B6C" d="M383.1 392.6c-2.5-3.8.4-6.6 5.8-7.1 4.3-.4 9.2.8 13.6 1.1 17.3 1.2 14.8-.1 16.1 5 1.1 4.6-1.2 4.6-8 4.6-8.7-.1-7.6-3.5-13.4-1.5-2.6.9-5.8 1.7-8.8 1.6-5.7-.1-4-2.4-6.1-5.2"/><path fill="#EF4241" d="M378.3 431.7c-2.5-3.8.4-6.6 5.8-7.1 4.3-.4 9.2.6 13.6 1.1 5.5.6 14.8-.1 16.1 5 1.1 4.6-1.3 4.3-8 4.6-6.8.3-7.6-3.5-13.4-1.5-2.6.9-5.8 1.7-8.8 1.6-7.8-.2-3.4-3-5.3-5.6"/><path fill="#F26B6C" d="M378.5 430.3c-2.5-3.8.4-6.6 5.8-7.1 4.3-.4 9.2.8 13.6 1.1 17.3 1.2 14.8-.1 16.1 5 1.1 4.6-1.2 4.6-8 4.6-8.7-.1-7.6-3.5-13.4-1.5-2.6.9-5.8 1.7-8.8 1.6-5.7-.1-4-2.4-6.1-5.2"/><path fill="#944E42" d="M443.8 342.9c.8-6.5-.2-7.2-8.7-9.6-5.5-1.5-11.9 0-17 2.2-4.2 1.8-16.2-1.9-12.2 10.7 2.1 6.6 12.4 5.7 19.4 7.1 10.5 2 17.1 3.5 18.3-4.8l.2-5.6z"/><path fill="#50803B" d="M413.5 388.7c3.8 0 4-1.8 4.6-4.5.8-3.7 2.4-7.3 6.4-8.5 7.7-2.2 5.9 4.7 7.6 11.1.2.8 3.8 1.4 4 2.1 3.1-2 10.3-5.4 8.1-8.8-2-3-1.6-4.6-3.8-7-3.5-3.8-12-10.1-17.1-9.1-5.6 1.1-8.2 7.8-11.4 12.7-1.6 2.5-7.6 6.1-7.3 9 .2 1.5 1.8 3 5.5 2.7l3.4.3z"/><path fill="#EF4241" d="M406.3 360.1c-.7-4.1.1-2.3 5.5-2.8 4.3-.4 9.2.6 13.6 1.1 5.5.6 15.2-2 16.5 3.2 1.1 4.6 0 6-8.1 5.1-6.4-.7-5.2-.1-12.4-.1-3 0-7.1.9-10.3.7-6.1-.4-5.8-3.5-5.2-6.2"/><path fill="#944E42" d="M439 420.9c.9-7.2-.2-7.9-9.6-10.6-6-1.7-13.1 0-18.7 2.4-4.6 2-17.8-2.1-13.4 11.8 2.3 7.2 13.7 6.3 21.3 7.8 11.6 2.2 18.8 3.9 20.2-5.3l.2-6.1z"/><path fill="#EAAD21" d="M430 442.9c.7-5.7-1-8-7.2-10-4-1.3-8.8.2-12.6 2.1-3.1 1.6-11.9-1.4-9.1 9.4 1.4 5.6 9 4.8 14.2 5.8 7.7 1.5 13.6 6 14.7-1.3v-6zM435.4 398.5c.7-5.7-1-8-7.2-10-4-1.3-8.8.2-12.6 2.1-3.1 1.6-11.9-1.4-9.1 9.4 1.4 5.6 9 4.8 14.2 5.8 7.7 1.5 13.6 6 14.7-1.3v-6z"/><path fill="#734030" d="M428.2 326.2c.8.1 1.4.9 1.3 1.7l-19.9 163.7c-.1.8-.9 1.4-1.7 1.3-.8-.1-1.4-.9-1.3-1.7l19.9-163.7c.1-.8.9-1.4 1.7-1.3z"/><path fill="#EAAD21" d="M429.9 439.9c.7-5.7-1-8-7.2-10-4-1.3-8.8.2-12.6 2.1-3.1 1.6-9.2 5.8-9.1 9.4.1 5.8 9 4.8 14.2 5.8 7.7 1.5 13.6 6 14.7-1.3v-6z"/><path fill="#FCCB3E" d="M427.5 437.6c.7-5.7-.5-6.9-6.7-8.8-4-1.2-9.3-1-13 1-3.1 1.6-7 7.2-6.9 10.8.1 5.8 6.9 3.3 12 4.4 7.7 1.5 13.6 6 14.7-1.3l-.1-6.1z"/><path fill="#EAAD21" d="M435.3 395.5c.7-5.7-1-8-7.2-10-4-1.3-8.8.2-12.6 2.1-3.1 1.6-9.2 5.8-9.1 9.4.1 5.8 9 4.8 14.2 5.8 7.7 1.5 13.6 6 14.7-1.3v-6z"/><path fill="#944E42" d="M439.3 415.5c-.3-2.4-.9-5.6-2.5-7.3-1.9-2-5.8-2.5-8.3-3.2-6-1.7-11.3 3.7-18.1 3.9-5.1.2-13.6 7.2-13.4 11.8.3 7.4 13.7 6.3 21.3 7.8 4.5.8 13.3 5.6 17.8 3.2 4-2.2 3.7-11.8 3.3-15.6 0-.3 0-.4-.1-.6z"/><path fill="#50803B" d="M412.7 387.7c3.8 0 2-3.4 2.6-6.1.8-3.7 2.4-7.3 6.4-8.5 7.7-2.2 8.7 7.2 10.3 13.6.2.8 3.1.7 3.2 1.4 3.1-2 10.3-5.4 8.1-8.8-2-3-3.1-7.1-5.8-8.9-3.9-2.6-10.2-5.9-14.4-6.5-5.6-.9-10.9 5.3-14.1 10.2-1.6 2.5-5.5 8.3-5.1 11.2.2 1.5.9 2.6 4.6 2.2l4.2.2z"/><path fill="#B36C5C" d="M436.5 416.4c-.1-6.8-2.3-9.7-9.2-11.2-6.5-1.4-10 4.5-18.6-.1-4.8-2.6-12.4 8.5-12.1 14.4.3 7.4 10.4 4.5 18 5.9 11.6 2.2 20.6 8 21.9-1.2v-7.8z"/><path fill="#944E42" d="M444.1 338c-.2-2.2-.8-5.1-2.3-6.7-1.8-1.8-5.2-2.3-7.6-3-5.5-1.6-10.3 3.3-16.5 3.5-4.6.1-12.4 6.5-12.2 10.7.3 6.7 12.4 5.7 19.4 7.1 4.1.8 12.1 5.1 16.1 2.9 3.6-2 3.4-10.7 3-14.1.2-.1.1-.3.1-.4z"/><path fill="#B36C5C" d="M441.5 338.8c-.1-6.2-2.1-8.8-8.3-10.2-5.9-1.3-9.1 4.1-16.9-.1-4.3-2.3-11.3 7.7-11 13.1.3 6.7 9.4 4.1 16.4 5.4 10.5 2 18.7 7.3 19.9-1.1 0-.1-.1-7.1-.1-7.1z"/><path fill="#6A9D41" d="M409.5 386.4c3.8 0 2-3.4 2.6-6.1.8-3.7 2.4-7.3 6.4-8.5 8.7-2.5 12.2 8.6 13.6 15 3.1-2 10.3-5.4 8.1-8.8-2-3-3.1-6.3-5.8-8.1-3.9-2.6-9.3-6.1-13.9-6.1-5.7 0-11.4 4-14.6 9-1.6 2.5-2.5 5.9-2.1 8.9.2 1.5-.8 5.1 1.5 4.6l4.2.1z"/><path fill="#FCCB3E" d="M432.9 393.1c.7-5.7-.5-6.9-6.7-8.8-4-1.3-9.3-1-13 1-3.1 1.6-7 7.2-6.9 10.8.1 5.8 6.9 3.3 12 4.4 7.7 1.5 13.6 6 14.7-1.3l-.1-6.1z"/><path fill="#EF4241" d="M406.3 362.1c-2.5-3.8.4-6.6 5.8-7.1 4.3-.4 9.2.6 13.6 1.1 5.5.6 14.8-.1 16.1 5 1.1 4.6-1.3 4.3-8 4.6-6.8.3-7.6-3.5-13.4-1.5-2.6.9-5.8 1.7-8.8 1.6-7.8-.2-3.4-3-5.3-5.6"/><path fill="#F26B6C" d="M406.5 360.7c-2.5-3.8.4-6.6 5.8-7.1 4.3-.4 9.2.8 13.6 1.1 17.3 1.2 14.8-.1 16.1 5 1.1 4.6-1.2 4.6-8 4.6-8.7-.1-7.6-3.5-13.4-1.5-2.6.9-5.8 1.7-8.8 1.6-5.7-.1-4-2.4-6.1-5.2"/><g><path fill="#EF4241" d="M427.8 402.8c-.7-4.1.1-2.3 5.5-2.8 4.3-.4 9.2.6 13.6 1.1 5.5.6 15.2-2 16.5 3.2 1.1 4.6 0 6-8.1 5.1-6.4-.7-5.2-.1-12.4-.1-3 0-7.1.9-10.3.7-6.1-.4-5.8-3.5-5.2-6.2"/><path fill="#8F5D4B" d="M472.1 323.3c.8-6.5-.2-7.2-8.7-9.6-5.5-1.5-11.9 0-17 2.2-4.2 1.8-16.2-1.9-12.2 10.7 2.1 6.6 12.4 5.7 19.4 7.1 10.5 2 17.1 3.5 18.3-4.8l.2-5.6z"/><path fill="#50803B" d="M441.3 372.5c3.8 0 4-1.8 4.6-4.5.8-3.7 2.4-7.3 6.4-8.5 7.7-2.2 5.9 4.7 7.6 11.1.2.8 3.8 1.4 4 2.1 3.1-2 10.3-5.4 8.1-8.8-2-3-1.6-4.6-3.8-7-3.5-3.8-12-10.1-17.1-9.1-5.6 1.1-8.2 7.8-11.4 12.7-1.6 2.5-7.6 6.1-7.3 9 .2 1.5 1.8 3 5.5 2.7l3.4.3z"/><path fill="#EF4241" d="M434.6 340.5c-.7-4.1.1-2.3 5.5-2.8 4.3-.4 9.2.6 13.6 1.1 5.5.6 15.2-2 16.5 3.2 1.1 4.6 0 6-8.1 5.1-6.4-.7-5.2-.1-12.4-.1-3 0-7.1.9-10.3.7-6.1-.4-5.8-3.5-5.2-6.2"/><path fill="#8F5D4B" d="M469 386.8c.9-7.2-.2-7.9-9.6-10.6-6-1.7-13.1 0-18.7 2.4-4.6 2-17.8-2.1-13.4 11.8 2.3 7.2 13.7 6.3 21.3 7.8 11.6 2.2 18.8 3.9 20.2-5.3l.2-6.1z"/><path fill="#EAAD21" d="M458.3 423.3c.7-5.7-1-8-7.2-10-4-1.3-8.8.2-12.6 2.1-3.1 1.6-11.9-1.4-9.1 9.4 1.4 5.6 9 4.8 14.2 5.8 7.7 1.5 13.6 6 14.7-1.3v-6z"/><path fill="#734030" d="M456.5 306.6c.8.1 1.4.9 1.3 1.7L437.9 472c-.1.8-.9 1.4-1.7 1.3-.8-.1-1.4-.9-1.3-1.7l19.9-163.7c.1-.8.8-1.4 1.7-1.3z"/><path fill="#EAAD21" d="M458.2 420.3c.7-5.7-1-8-7.2-10-4-1.2-8.8.2-12.6 2.1-3.1 1.6-9.2 5.8-9.1 9.4.1 5.8 9 4.8 14.2 5.8 7.7 1.5 13.6 6 14.7-1.3v-6z"/><path fill="#FCCB3E" d="M455.7 417.9c.7-5.7-.5-6.9-6.7-8.8-4-1.3-9.3-1-13 1-3.1 1.6-7 7.2-6.9 10.8.1 5.8 6.9 3.3 12 4.4 7.7 1.5 13.6 6 14.7-1.3l-.1-6.1z"/><path fill="#8F5D4B" d="M469.4 381.4c-.3-2.4-.9-5.6-2.5-7.3-1.9-2-5.8-2.5-8.3-3.2-6-1.7-11.3 3.7-18.1 3.9-5.1.2-13.6 7.2-13.4 11.8.3 7.4 13.7 6.3 21.3 7.8 4.5.8 13.3 5.6 17.8 3.2 4-2.2 3.7-11.8 3.3-15.6-.1-.3-.1-.4-.1-.6z"/><path fill="#50803B" d="M440.6 371.6c3.8 0 2-3.4 2.6-6.1.8-3.7 2.4-7.3 6.4-8.5 7.7-2.2 8.7 7.2 10.3 13.6.2.8 3.1.7 3.2 1.4 3.1-2 10.3-5.4 8.1-8.8-2-3-3.1-7.1-5.8-8.9-3.9-2.6-10.2-5.9-14.4-6.5-5.6-.9-10.9 5.3-14.1 10.2-1.6 2.5-5.5 8.3-5.1 11.2.2 1.5.9 2.6 4.6 2.2l4.2.2z"/><path fill="#AD7868" d="M466.5 382.3c-.1-6.8-2.3-9.7-9.2-11.2-6.5-1.4-10 4.5-18.6-.1-4.8-2.6-12.4 8.5-12.1 14.4.3 7.4 10.4 4.5 18 5.9 11.6 2.2 20.6 8 21.9-1.2.1-.1 0-7.8 0-7.8z"/><path fill="#8F5D4B" d="M472.4 318.4c-.2-2.2-.8-5.1-2.3-6.7-1.8-1.8-5.2-2.3-7.6-3-5.5-1.6-10.3 3.3-16.5 3.5-4.6.1-12.3 6.5-12.2 10.7.3 6.7 12.4 5.7 19.4 7.1 4.1.8 12.1 5.1 16.1 2.9 3.6-2 3.4-10.7 3-14.1.1-.1.1-.3.1-.4z"/><path fill="#AD7868" d="M469.8 319.2c-.1-6.2-2.1-8.8-8.3-10.2-5.9-1.3-9.1 4.1-16.9-.1-4.3-2.3-11.3 7.7-11 13.1.3 6.7 9.4 4.1 16.4 5.4 10.5 2 18.7 7.3 19.9-1.1 0-.1-.1-7.1-.1-7.1z"/><path fill="#6A9D41" d="M437.3 370.2c3.8 0 2-3.4 2.6-6.1.8-3.7 2.4-7.3 6.4-8.5 8.7-2.5 12.2 8.6 13.6 15 3.1-2 10.3-5.4 8.1-8.8-2-3-3.1-6.3-5.8-8.1-3.9-2.6-9.3-6.1-13.9-6.1-5.7 0-11.4 4-14.6 9-1.6 2.5-2.5 5.9-2.1 8.9.2 1.5-.8 5.1 1.5 4.6l4.2.1z"/><path fill="#EF4241" d="M427.8 404.7c-2.5-3.8.4-6.6 5.8-7.1 4.3-.4 9.2.6 13.6 1.1 5.5.6 14.8-.1 16.1 5 1.1 4.6-1.3 4.3-8 4.6-6.8.3-7.6-3.5-13.4-1.5-2.6.9-5.8 1.7-8.8 1.6-7.8-.2-3.4-3-5.3-5.6"/><path fill="#F26B6C" d="M427.9 403.3c-2.5-3.8.4-6.6 5.8-7.1 4.3-.4 9.2.8 13.6 1.1 17.3 1.2 14.8-.1 16.1 5 1.1 4.6-1.2 4.6-8 4.6-8.7-.1-7.6-3.5-13.4-1.5-2.6.9-5.8 1.7-8.8 1.6-5.7-.1-4-2.4-6.1-5.2"/><path fill="#EF4241" d="M434.6 342.4c-2.5-3.8.4-6.6 5.8-7.1 4.3-.4 9.2.6 13.6 1.1 5.5.6 14.8-.1 16.1 5 1.1 4.6-1.3 4.3-8 4.6-6.8.3-7.6-3.5-13.4-1.5-2.6.9-5.8 1.7-8.8 1.6-7.8-.2-3.4-3-5.3-5.6"/><path fill="#F26B6C" d="M434.8 341.1c-2.5-3.8.4-6.6 5.8-7.1 4.3-.4 9.2.8 13.6 1.1 17.3 1.2 14.8-.1 16.1 5 1.1 4.6-1.2 4.6-8 4.6-8.7-.1-7.6-3.5-13.4-1.5-2.6.9-5.8 1.7-8.8 1.6-5.7-.1-4-2.4-6.1-5.2"/></g><g><path fill="#EF4241" d="M449.3 415.7c-.7-4.1.1-2.3 5.5-2.8 4.3-.4 9.2.6 13.6 1.1 5.5.6 15.2-2 16.5 3.2 1.1 4.6 0 6-8.1 5.1-6.4-.7-5.2-.1-12.4-.1-3 0-7.1.9-10.3.7-6.1-.4-5.8-3.5-5.2-6.2M444.6 449.8c-.7-4.1.1-2.3 5.5-2.8 4.3-.4 9.2.6 13.6 1.1 5.5.6 15.2-2 16.5 3.2 1.1 4.6 0 6-8.1 5.1-6.4-.7-5.2-.1-12.4-.1-3 0-7.1.9-10.3.7-6.1-.4-5.8-3.5-5.2-6.2"/><path fill="#8F5D4B" d="M488.9 370.3c.8-6.5-.2-7.2-8.7-9.6-5.5-1.5-11.9 0-17 2.2-4.2 1.8-16.2-1.9-12.2 10.7 2.1 6.6 12.4 5.7 19.4 7.1 10.5 2 17.1 3.5 18.3-4.8l.2-5.6z"/><path fill="#50803B" d="M454.9 446.8c3.8 0 4-1.8 4.6-4.5.8-3.7 2.4-7.3 6.4-8.5 7.7-2.2 5.9 4.7 7.6 11.1.2.8 3.8 1.4 4 2.1 3.1-2 10.3-5.4 8.1-8.8-2-3-1.6-4.6-3.8-7-3.5-3.8-12-10.1-17.1-9.1-5.6 1.1-8.2 7.8-11.4 12.7-1.6 2.5-7.6 6.1-7.3 9 .2 1.5 1.8 3 5.5 2.7l3.4.3z"/><path fill="#EAAD21" d="M475.2 470.4c.7-5.7-1-8-7.2-10-4-1.3-8.8.2-12.6 2.1-3.1 1.6-11.9-1.4-9.1 9.4 1.4 5.6 9 4.8 14.2 5.8 7.7 1.5 13.6 6 14.7-1.3v-6zM483.3 406.1c.5-4-1.2-5.7-7.5-7.3-4-1-8.7-.2-12.4 1.1-3.1 1-11.9-1.4-8.7 6.3 1.6 4 9.2 3.7 14.3 4.6 7.7 1.4 13.8 4.7 14.6-.4l-.3-4.3z"/><path fill="#50803B" d="M462.1 397.8c3.7.2 3.8-1.2 4.2-3.3.6-2.9 1.9-5.8 5.7-6.5 7.4-1.3 6.1 4.2 8.2 9.5.3.7 3.8 1.3 4 1.9 2.9-1.4 9.7-3.7 7.3-6.6-2.1-2.6-1.9-3.8-4.2-5.9-3.6-3.3-12.3-9-17.3-8.5-5.4.5-7.5 5.8-10.3 9.6-1.4 1.9-7.1 4.4-6.5 6.8.3 1.2 1.9 2.5 5.5 2.5l3.4.5z"/><path fill="#734030" d="M473.4 353.7c.8.1 1.4.9 1.3 1.7l-19.9 163.7c-.1.8-.9 1.4-1.7 1.3-.8-.1-1.4-.9-1.3-1.7L471.7 355c.1-.9.8-1.4 1.7-1.3z"/><path fill="#EAAD21" d="M475 467.3c.7-5.7-1-8-7.2-10-4-1.3-8.8.2-12.6 2.1-3.1 1.6-9.2 5.8-9.1 9.4.1 5.8 9 4.8 14.2 5.8 7.7 1.5 13.6 6 14.7-1.3v-6z"/><path fill="#FCCB3E" d="M472.6 465c.7-5.7-.5-6.9-6.7-8.8-4-1.3-9.3-1-13 1-3.1 1.6-7 7.2-6.9 10.8.1 5.8 6.9 3.3 12 4.4 7.7 1.5 13.6 6 14.7-1.3l-.1-6.1z"/><path fill="#50803B" d="M461.3 397c3.7.2 1.7-2.6 2.1-4.8.6-2.9 1.9-5.8 5.7-6.5 7.4-1.3 8.9 6.4 11 11.7.3.7 3.1.7 3.3 1.3 2.9-1.4 9.7-3.7 7.3-6.6-2.1-2.6-3.4-5.9-6.3-7.6-4-2.3-10.4-5.4-14.5-6.2-5.5-1.1-10.3 3.6-13.1 7.4-1.4 1.9-4.8 6.3-4.3 8.8.3 1.2 1 2.1 4.6 2.1l4.2.4z"/><path fill="#6A9D41" d="M458 395.7c3.7.2 1.7-2.6 2.1-4.8.6-2.9 1.9-5.8 5.7-6.5 8.3-1.5 12.5 7.8 14.2 13 2.9-1.4 9.7-3.7 7.3-6.6-2.1-2.6-3.4-5.3-6.2-6.9-4-2.3-9.5-5.6-13.9-5.8-5.5-.4-10.9 2.5-13.7 6.3-1.4 1.9-2 4.6-1.5 7 .3 1.2-.4 4.1 1.8 3.8l4.2.5z"/><path fill="#EAAD21" d="M483 403.9c.5-4-1.2-5.7-7.5-7.3-4-1-8.7-.2-12.4 1.1-3.1 1-8.9 3.8-8.7 6.3.3 4.1 9.2 3.7 14.3 4.6 7.7 1.4 13.8 4.7 14.6-.4l-.3-4.3z"/><path fill="#FCCB3E" d="M480.5 402.2c.5-4-.7-4.9-7-6.5-4-1-9.2-1-12.9.2-3.1 1-6.7 4.9-6.5 7.4.3 4.1 6.9 2.6 12.1 3.5 7.7 1.4 13.8 4.7 14.6-.4l-.3-4.2z"/><path fill="#50803B" d="M454.2 445.8c3.8 0 2-3.4 2.6-6.1.8-3.7 2.4-7.3 6.4-8.5 7.7-2.2 8.7 7.2 10.3 13.6.2.8 3.1.7 3.2 1.4 3.1-2 10.3-5.4 8.1-8.8-2-3-3.1-7.1-5.8-8.9-3.9-2.6-10.2-5.9-14.4-6.5-5.6-.9-10.9 5.3-14.1 10.2-1.6 2.5-5.5 8.3-5.1 11.2.2 1.5.9 2.6 4.6 2.2l4.2.2z"/><path fill="#8F5D4B" d="M489.3 365.4c-.2-2.2-.8-5.1-2.3-6.7-1.8-1.8-5.2-2.3-7.6-3-5.5-1.6-10.3 3.3-16.5 3.5-4.6.1-12.4 6.5-12.2 10.7.3 6.7 12.4 5.7 19.4 7.1 4.1.8 12.1 5.1 16.1 2.9 3.6-2 3.4-10.7 3-14.1.1-.1.1-.2.1-.4z"/><path fill="#AD7868" d="M486.7 366.2c-.1-6.2-2.1-8.8-8.3-10.2-5.9-1.3-9.1 4.1-16.9-.1-4.3-2.3-11.3 7.7-11 13.1.3 6.7 9.4 4.1 16.4 5.4 10.5 2 18.7 7.3 19.9-1.1-.1-.1-.1-7.1-.1-7.1z"/><path fill="#6A9D41" d="M450.9 444.5c3.8 0 2-3.4 2.6-6.1.8-3.7 2.4-7.3 6.4-8.5 8.7-2.5 12.2 8.6 13.6 15 3.1-2 10.3-5.4 8.1-8.8-2-3-3.1-6.3-5.8-8.1-3.9-2.6-9.3-6.1-13.9-6.1-5.7 0-11.4 4-14.6 9-1.6 2.5-2.5 5.9-2.1 8.9.2 1.5-.8 5.1 1.5 4.6l4.2.1z"/><path fill="#EF4241" d="M444.7 451.7c-2.5-3.8.4-6.6 5.8-7.1 4.3-.4 9.2.6 13.6 1.1 5.5.6 14.8-.1 16.1 5 1.1 4.6-1.3 4.3-8 4.6-6.8.3-7.6-3.5-13.4-1.5-2.6.9-5.8 1.7-8.8 1.6-7.8-.2-3.4-3-5.3-5.6"/><path fill="#F26B6C" d="M444.8 450.3c-2.5-3.8.4-6.6 5.8-7.1 4.3-.4 9.2.8 13.6 1.1 17.3 1.2 14.8-.1 16.1 5 1.1 4.6-1.2 4.6-8 4.6-8.7-.1-7.6-3.5-13.4-1.5-2.6.9-5.8 1.7-8.8 1.6-5.7-.1-4-2.4-6.1-5.2"/><path fill="#EF4241" d="M449.3 417.6c-2.5-3.8.4-6.6 5.8-7.1 4.3-.4 9.2.6 13.6 1.1 5.5.6 14.8-.1 16.1 5 1.1 4.6-1.3 4.3-8 4.6-6.8.3-7.6-3.5-13.4-1.5-2.6.9-5.8 1.7-8.8 1.6-7.8-.2-3.4-3-5.3-5.6"/><path fill="#F26B6C" d="M449.5 416.2c-2.5-3.8.4-6.6 5.8-7.1 4.3-.4 9.2.8 13.6 1.1 17.3 1.2 14.8-.1 16.1 5 1.1 4.6-1.2 4.6-8 4.6-8.7-.1-7.6-3.5-13.4-1.5-2.6.9-5.8 1.7-8.8 1.6-5.7-.1-4-2.4-6.1-5.2"/></g><path opacity=".3" fill="#944E42" d="M409.6 366.9c-2.9 3.5-4.2 8.7-8.3 6.7-3-1.4-5.7-4.3-8.8-5.8-.2-2.3-.5-7.2 2-8.4 2-1 4.1 2.6 5.9 3 2.4.6 4.2-2.6 6.3-1.9 2.2.7 3 4.6 2.4 7.4"/><g opacity=".5"><g fill="#613531"><path d="M434.2 368.1c0-2 1.6-2 2.5-.7-.2.3-.4.6-.5.9-.3 0-.7-.1-.9-.1 0-.4.1-.9.1-1.3M454.2 427.2c-.2.6-.2 1.4-.2 2 .3.2.9.7 1.2.9.8-.6.9-.8.9-1.9-.5-.2-1.1-.2-1.6-.2-.1.5-.2 1.1-.3 1.6M441.8 406.8c.6 1.1 1.2 1.6 2.3 1-.5-.4-1.3-.7-2-.9M422.2 354.4c3.4 4.7 2.3-4.3 0 .3M413.7 380.1c1.6-.5 2.1.8 1 2.2-1-.7-1.2-1.7-.6-2.8M418.8 413.6c.7.4 1.6.7 2.4.3-1-.9-2.9-1.5-4.1-.5M461.6 389.7c-.2 2 1.8 2.5 3 1-1-1-2.7-1.4-3.8-.5M444.1 365.1c0 .2-.8 0-.1.6.9.3 1.6.2 2.4 0 .2-.2.2-.5.1-.7-.9-.8-1.5-.6-2.4.1M451.2 405.4c.1 1.2 2.2 1.8 2.1-.7-1-.3-1.8 0-2.5.7M446.2 353.9c.6.6 1.3 1 2.2.9.2-.5.4-.7.5-1.3-1-.5-2.2-.2-3.1.7M447.5 334.3c.7-1.1 2.1-1.6 3.6-1.2.2 1.8-1 2.9-1.9 1.4M472.4 406.6c1.2 1 2.4 2.2 3.7 1.1-.7-1.2-2-1.6-3-1.1M454.6 378c-.4 1.2-.1 2.1 1.1 2.6 1.3-1.1.7-2.6-1.1-2.6M440 379.1c-.6.6-1 1-.9 1.9 1.7.2 2.4-1.3 1.3-2.2M429.3 385.2c-.7.4-1.2.6-1.2 1.5 1.3.4 1.7-.3 2.2-1.4M452.5 403.1c1.3 1.5.1 2.5-1.5 2.2 0-.4-.1-.7-.2-1 .2-.2.6-.3.8-.5.3.3.5.7.8 1.1M401.3 374.8c-.2-.6-.8-1.2-1.2-1.6-.4 0-1.2 0-1.5.1-.2 1-.1 1.2.6 2 .5-.2 1-.5 1.3-.9-.2-.5-.5-1-.9-1.4M421.5 378.7c-1.1-.5-2-.4-2.4.8.6 0 1.4-.3 2.1-.6M470.5 405.7c-5.6-1.4 1.1 4.7-.2-.3M460.2 380.7c-.8 1.4-2.1.8-2.2-1 1.3-.1 2.1.5 2.3 1.7M434.5 358.6c-.8.1-1.7.5-2 1.4 1.4 0 3.2-.8 3.5-2.3M415.1 407.2c-1.2-1.6-3-.7-3 1.2 1.4.1 2.9-.7 3.2-2.1M446.9 411.9c-.1-.2.6-.5-.3-.5-.9.3-1.4.9-1.8 1.5 0 .3.2.5.4.6 1.2 0 1.5-.6 1.7-1.6M415.3 385.9c-.8-.9-2.9.1-1.1 1.9 1-.4 1.3-1.1 1.4-2.1M452.6 421.7c-.9-.1-1.7.1-2.3.8.2.6.2.8.4 1.3 1.1-.3 1.8-1.2 1.9-2.6M419.5 428.5c.3 1.3-.6 2.5-1.9 3.3-1.3-1.2-1.2-2.8.5-2.3M398.4 398.8c-1.5 0-3.3-.1-3.5 1.5 1.3.5 2.5-.1 3-1.2M430.6 408.9c-.5-1.2-1.3-1.6-2.5-1.3-.3 1.7 1.1 2.5 2.5 1.3M440.9 398.6c0-.9.1-1.4-.6-2-1.4.9-1 2.5.5 2.5M445 386.9c.3-.8.6-1.2-.1-1.9-1.2.6-1.1 1.3-.7 2.5M479.5 372.2c.6 1.1 1.2 1.6 2.3 1-.5-.4-1.3-.7-2-.9M455.5 413.5c-.7.4-1.2.6-1.2 1.5 1.3.4 1.7-.3 2.2-1.4M456.8 437.2c-.5-1.2-1.3-1.6-2.5-1.3-.3 1.7 1.1 2.4 2.5 1.3M467.1 426.8c0-.9.1-1.4-.6-2-1.4.9-1 2.5.5 2.5M471.2 415.2c.3-.8.6-1.2-.1-1.9-1.2.6-1.1 1.3-.7 2.5"/></g></g><g><g fill="#613531"><path d="M433.6 411.9c0-2 1.6-2 2.5-.7l-.6.9c-.3 0-.7-.1-.9-.1 0-.4.1-.9.1-1.3M461.2 467.8c-.2.6-.2 1.4-.2 2 .3.2.9.7 1.2.9.8-.6.9-.8.9-1.9-.5-.2-1.1-.2-1.6-.2-.1.5-.2 1.1-.3 1.6M468.4 460.9c.6 1.1 1.2 1.6 2.3 1-.5-.4-1.3-.7-2-.9M421.7 398.2c3.4 4.7 2.3-4.3 0 .3M413.2 423.8c1.6-.5 2.1.8 1 2.2-1-.7-1.2-1.7-.6-2.8M391.6 408c.7.4 1.6.7 2.4.3-1-.9-2.9-1.5-4.1-.5M469.8 427.5c-.2 2 1.8 2.5 3 1-1-1-2.7-1.4-3.8-.5M440.7 414.9c0 .2-.8 0-.1.6.9.3 1.6.2 2.4 0 .2-.2.2-.5.1-.7-1-.8-1.6-.6-2.4.1M450.6 449.1c.1 1.2 2.2 1.8 2.1-.7-1-.3-1.8 0-2.4.7M445.6 397.7c.6.6 1.3 1 2.2.9.2-.5.4-.7.5-1.3-1-.5-2.2-.2-3.1.7M446.9 378c.7-1.1 2.1-1.6 3.6-1.2.2 1.8-1 2.9-1.9 1.4M471.9 450.4c1.2 1 2.4 2.2 3.7 1.1-.7-1.2-2-1.6-3-1.1M476.6 434.3c-.4 1.2-.1 2.1 1.1 2.6 1.2-1 .7-2.5-1.1-2.6M439.5 422.8c-.6.6-1 1-.9 1.9 1.7.2 2.4-1.3 1.3-2.2M428.8 429c-.7.4-1.2.6-1.2 1.5 1.3.4 1.7-.3 2.2-1.4M451.9 446.8c1.3 1.5.1 2.5-1.5 2.2 0-.4-.1-.7-.2-1 .2-.2.6-.3.8-.5.3.3.5.7.8 1.1M400.8 418.6c-.2-.6-.8-1.2-1.2-1.6-.4 0-1.2 0-1.5.1-.2 1-.1 1.2.6 2 .5-.2 1-.5 1.3-.9-.2-.5-.5-1-.9-1.4M420.9 422.5c-1.1-.5-2-.4-2.4.8.6 0 1.4-.3 2.1-.6M466.2 446.4c-5.6-1.4 1.1 4.7-.2-.3M397.9 378.4c.6 1.1 1.2 1.6 2.3 1-.5-.4-1.3-.7-2-.9M399.3 345c-.2 2 1.8 2.5 3 1-1-1-2.7-1.4-3.8-.5M401.4 367.8c1.2 1 2.4 2.2 3.7 1.1-.7-1.2-2-1.6-3-1.1M419.4 357.1c-.4 1.2-.1 2.1 1.1 2.6 1.2-1.1.7-2.6-1.1-2.6M395.7 363.9c-5.6-1.4 1.1 4.7-.2-.3M459.6 424.4c-.8 1.4-2.1.8-2.2-1 1.3-.1 2.1.5 2.3 1.7M433.9 402.3c-.8.1-1.7.5-2 1.4 1.4 0 3.2-.8 3.5-2.3M407 442c-1.2-1.6-3-.7-3 1.2 1.4.1 2.9-.7 3.2-2.1M457 457.9c-.1-.2.6-.5-.3-.5-.9.3-1.4.9-1.8 1.5 0 .3.2.5.4.6 1.1.1 1.5-.5 1.7-1.6M414.7 429.7c-.8-.9-2.9.1-1.1 1.9 1-.4 1.3-1.1 1.4-2.1M452.1 465.4c-.9-.1-1.7.1-2.3.8.2.6.2.8.4 1.3 1.1-.3 1.8-1.2 1.9-2.6M383.9 425.4c.3 1.3-.6 2.5-1.9 3.3-1.3-1.2-1.2-2.8.5-2.3M394.2 428.5c-1.5 0-3.3-.1-3.5 1.5 1.3.5 2.5-.1 3-1.2M427.5 450.6c-.5-1.2-1.3-1.6-2.5-1.3-.3 1.7 1.1 2.5 2.5 1.3M450.8 437.8c0-.9.1-1.4-.6-2-1.4.9-1 2.5.5 2.5M448.2 425.8c.3-.8.6-1.2-.1-1.9-1.2.6-1.1 1.3-.7 2.5M439.9 325.5c0-2 1.6-2 2.5-.7-.2.3-.4.6-.5.9-.3 0-.7-.1-.9-.1 0-.4.1-.9.1-1.3M449.7 316.3c0 .2-.8 0-.1.6.9.3 1.6.2 2.4 0 .2-.2.2-.5.1-.7-1-.8-1.6-.5-2.4.1M443.4 341c-.6.6-1 1-.9 1.9 1.7.2 2.4-1.3 1.3-2.2M432.7 347.1c-.7.4-1.2.6-1.2 1.5 1.3.4 1.7-.3 2.2-1.4M424.8 340.7c-1.1-.5-2-.4-2.4.8.6 0 1.4-.3 2.1-.6M452.1 343.9c.3-.8.6-1.2-.1-1.9-1.2.6-1.1 1.3-.7 2.5"/></g></g><g opacity=".5"><g fill="#613531"><path d="M412.3 320c0-2 1.6-2 2.5-.7-.2.3-.4.6-.5.9-.3 0-.7-.1-.9-.1 0-.4.1-.9.1-1.3M466.5 370.2c-.2.6-.2 1.4-.2 2 .3.2.9.7 1.2.9.8-.6.9-.8.9-1.9-.5-.2-1.1-.2-1.6-.2-.1.5-.2 1.1-.3 1.6M437.6 359.9c.6 1.1 1.2 1.6 2.3 1-.5-.4-1.3-.7-2-.9M388.7 392.1c3.4 4.7 2.3-4.3 0 .3M409.5 333.2c1.6-.5 2.1.8 1 2.2-1-.7-1.2-1.7-.6-2.8M414.6 366.7c.7.4 1.6.7 2.4.3-1-.9-2.9-1.5-4.1-.5M461 342.5c-.2 2 1.8 2.5 3 1-1-1-2.7-1.4-3.8-.5M439.9 318.2c0 .2-.8 0-.1.6.9.3 1.6.2 2.4 0 .2-.2.2-.5.1-.7-.9-.8-1.5-.5-2.4.1M447 358.5c.1 1.2 2.2 1.8 2.1-.7-1-.3-1.8 0-2.4.7M401.9 317.9c.6.6 1.3 1 2.2.9.2-.5.4-.7.5-1.3-1-.5-2.2-.2-3.1.7M457.1 317.7c.6-1.1 2.1-1.6 3.6-1.2.2 1.8-1 2.9-1.9 1.4M468.2 359.7c1.2 1 2.4 2.2 3.7 1.1-.7-1.2-2-1.6-3-1.1M447.9 324.8c-.4 1.2-.1 2.1 1.1 2.6 1.2-1.1.7-2.5-1.1-2.6M435.8 332.2c-.6.6-1 1-.9 1.9 1.7.2 2.4-1.3 1.3-2.2M425.1 338.4c-.7.4-1.2.6-1.2 1.5 1.3.4 1.7-.3 2.2-1.4M448.3 356.2c1.3 1.5.1 2.5-1.5 2.2 0-.4-.1-.7-.2-1 .2-.2.6-.3.8-.5.3.3.5.7.8 1.1M397.1 328c-.2-.6-.8-1.2-1.2-1.6-.4 0-1.2 0-1.5.1-.2 1-.1 1.2.6 2 .5-.2 1-.5 1.3-.9-.2-.5-.5-1-.9-1.4M417.3 331.9c-1.1-.5-2-.4-2.4.8.6 0 1.4-.3 2.1-.6M466.3 358.8c-5.6-1.4 1.1 4.7-.2-.3M454.4 338.7c-.8 1.4-2.1.8-2.2-1 1.3-.1 2.1.5 2.3 1.7M480.4 384.8c-.2 2 1.8 2.5 3 1-1-1-2.7-1.4-3.8-.5M466.4 400.8c.1 1.2 2.2 1.8 2.1-.7-1-.3-1.8 0-2.4.7M478.5 412.9c1.2 1 2.4 2.2 3.7 1.1-.7-1.2-2-1.6-3-1.1M467.6 398.5c1.3 1.5.1 2.5-1.5 2.2 0-.4-.1-.7-.2-1 .2-.2.6-.3.8-.5.3.3.5.7.8 1.1M479.1 369.4c-5.6-1.4 1.1 4.7-.2-.3M473.7 381c-.8 1.4-2.1.8-2.2-1 1.3-.1 2.1.5 2.3 1.7M424.7 346.6c-.8.1-1.7.5-2 1.4 1.4 0 3.2-.8 3.5-2.3M410.9 360.4c-1.2-1.6-3-.7-3 1.2 1.4.1 2.9-.7 3.2-2.1M442.7 365c-.1-.2.6-.5-.3-.5-.9.3-1.4.9-1.8 1.5 0 .3.2.5.4.6 1.2 0 1.5-.6 1.7-1.6M411.1 339.1c-.8-.9-2.9.1-1.1 1.9 1-.4 1.3-1.1 1.4-2.1M458.6 367.9c-.9-.1-1.7.1-2.3.8.2.6.2.8.4 1.3 1.1-.3 1.8-1.2 1.9-2.6M415.3 381.7c.3 1.3-.6 2.5-1.9 3.3-1.3-1.2-1.2-2.8.5-2.3M394.2 352c-1.5 0-3.3-.1-3.5 1.5 1.3.5 2.5-.1 3-1.2M426.4 362.1c-.5-1.2-1.3-1.6-2.5-1.3-.3 1.7 1.1 2.4 2.5 1.3M436.7 351.7c0-.9.1-1.4-.6-2-1.4.9-1 2.5.5 2.5M440.8 340.1c.3-.8.6-1.2-.1-1.9-1.2.6-1.1 1.3-.7 2.5"/></g></g><g opacity=".3"><g fill="#613531"><path d="M382.9 359c0-2 1.6-2 2.5-.7-.2.3-.4.6-.5.9-.3 0-.7-.1-.9-.1 0-.4.1-.9.1-1.3M503.4 489.5c-.2.6-.2 1.4-.2 2 .3.2.9.7 1.2.9.8-.6.9-.8.9-1.9-.5-.2-1.1-.2-1.6-.2-.1.5-.2 1.1-.3 1.6M474.5 479.3c.6 1.1 1.2 1.6 2.3 1-.5-.4-1.3-.7-2-.9M417.4 460.6c3.4 4.7 2.3-4.3 0 .3M425 302.3c1.6-.5 2.1.8 1 2.2-1-.7-1.2-1.7-.6-2.8M466.7 488c.7.4 1.6.7 2.4.3-1-.9-2.9-1.5-4.1-.5M498 461.9c-.2 2 1.8 2.5 3 1-1-1-2.7-1.4-3.8-.5M410.6 357.2c0 .2-.8 0-.1.6.9.3 1.6.2 2.4 0 .2-.2.2-.5.1-.7-1-.8-1.6-.5-2.4.1M483.9 477.9c.1 1.2 2.3 1.8 2.1-.7-1-.3-1.8 0-2.4.7M384.2 342.1c.6.6 1.3 1 2.2.9.2-.5.4-.7.5-1.3-1-.5-2.2-.2-3.1.7M494 437.1c.7-1.1 2.1-1.6 3.6-1.2.2 1.8-1 2.9-1.9 1.4M505.1 479.1c1.2 1 2.4 2.2 3.7 1.1-.7-1.2-2-1.6-3-1.1M484.8 444.2c-.4 1.2-.1 2.1 1.1 2.6 1.3-1.1.7-2.6-1.1-2.6M406.4 371.2c-.6.6-1 1-.9 1.9 1.7.2 2.4-1.3 1.3-2.2M418 307.6c-.7.4-1.2.6-1.2 1.5 1.3.4 1.7-.3 2.2-1.4M485.2 475.6c1.3 1.5.1 2.5-1.5 2.2 0-.4-.1-.7-.2-1 .2-.2.6-.3.8-.5.3.3.5.7.8 1.1M434 447.4c-.2-.6-.8-1.2-1.2-1.6-.4 0-1.2 0-1.5.1-.2 1-.1 1.2.6 2 .5-.2 1-.5 1.3-.9-.2-.5-.5-1-.9-1.4M433.9 310.1c-1.1-.5-2-.4-2.4.8.6 0 1.4-.3 2.1-.6M503.2 478.2c-5.6-1.4 1.1 4.7-.2-.3M491.3 458.1c-.8 1.4-2.1.8-2.2-1 1.3-.1 2.1.5 2.3 1.7M380.5 369.2c-.8.1-1.7.5-2 1.4 1.4 0 3.2-.8 3.5-2.3M447.8 479.7c-1.2-1.6-3-.7-3 1.2 1.4.1 2.9-.7 3.2-2.1M479.6 484.4c-.1-.2.6-.5-.3-.5-.9.3-1.4.9-1.8 1.5 0 .3.2.5.4.6 1.2 0 1.5-.6 1.7-1.6M427.7 317.3c-.8-.9-2.9.1-1.1 1.9 1-.4 1.3-1.1 1.4-2.1M495.6 487.3c-.9-.1-1.7.1-2.3.8.2.6.2.8.4 1.3 1.1-.3 1.8-1.2 1.9-2.6M394.1 385.5c-.2.6-.2 1.4-.2 2 .3.2.9.7 1.2.9.8-.6.9-.8.9-1.9-.5-.2-1.1-.2-1.6-.2-.1.5-.2 1.1-.3 1.6M388.7 357.8c-.2 2 1.8 2.5 3 1-1-1-2.7-1.4-3.8-.5M384.7 333c.7-1.1 2.1-1.6 3.6-1.2.2 1.8-1 2.9-1.9 1.4M402.6 392.6c1.2 1 2.4 2.2 3.7 1.1-.7-1.2-2-1.6-3-1.1M393.9 374.1c-5.6-1.4 1.1 4.7-.2-.3M382 354c-.8 1.4-2.1.8-2.2-1 1.3-.1 2.1.5 2.3 1.7M386.3 383.3c-.9-.1-1.7.1-2.3.8.2.6.2.8.4 1.3 1.1-.3 1.8-1.2 1.9-2.6M528.3 473c.3 1.3-.6 2.5-1.9 3.3-1.3-1.2-1.2-2.8.5-2.3M431.1 471.3c-1.5 0-3.3-.1-3.5 1.5 1.3.5 2.5-.1 3-1.2M463.3 481.4c-.5-1.2-1.3-1.6-2.5-1.3-.3 1.7 1.1 2.5 2.5 1.3M473.6 471.1c0-.9.1-1.4-.6-2-1.4.9-1 2.5.5 2.5M477.7 459.4c.3-.8.6-1.2-.1-1.9-1.2.6-1.1 1.3-.7 2.5"/></g></g><path opacity=".3" fill="#944E42" d="M403.6 418.9c-2.3-5.9 4.7-7.5 8.7-5.1 4 2.4 2.8 5.1 2 8.7 1.6.1 5.9 1.3 3.7 3.6-1.5 1.6-6.1-.7-7.8-.7-2.4-.1-4.9 1.9-6.8-.5-2.1-2.7 1.2-5.1 1-8"/><path opacity=".1" fill="#944E42" d="M461.2 401.2c5.7-.3 5.3 9.7 2.5 12.8-2.3 2.5-9.3 4.5-12.5 2.3-5.4-3.7.1-8.9 4.5-9.4 1.8-.2 4.5 1.5 5.8.1 1-1.1 0-4 .2-5.4"/><path opacity=".3" fill="#944E42" d="M455.4 383.8c-.9 2.8-3.8 4.7-6.4 2.9-1.7-1.1-1.7-2.7-2.4-4.4-.8-1.9-1.6-2.4-2.6-4.2-3.5-6 7.8-5.6 12-6.4 2.7-.5 5.7-2.8 8.4-2.3 3.8.7 4.2 5.3 3.1 8.4-1.5 4-3.3 6.8-7.6 6.6-3.4-.2-5-.4-8.2 1M431.7 337.9c1.4 1.6 2.1 4.3-.2 4.7-2.3.4-4-2.8-5.2-4.3-1.6-2-4.5-3.9-2.6-6.7 1.5-2.2 4.6-1.6 7-1.9 1.8-.3 3.5-1.3 5.5-1 1.1.2 4.5 1.3 4.6 3.3.1 1.4-2.7 3.6-3.9 4.4-2.6 1.7-2.6 0-3.1 4.1"/><path opacity=".1" fill="#944E42" d="M466.9 457c1.1 1.6 2.7 1 4.2 1.9 1.8 1.1 2 1.7 2.9 4 .9 2.4 2.5 5.9-.2 7.9-6.8 4.9-9.7-10.8-12.9-10.8-.1-2 1.9-2 2.7-3.3M417.4 400.3c-.3.2.3.7-.4.6-3.3-3.1 1.7-4 3.3-5.3 1.9-1.5 2.1-4.6 2.6-7.4 1.5-9 5.1-1.7 8.6 2.1 1.5 1.7 5.3 3.9 5.5 6.4.2 2.1-3.4 5.6-5.1 6.5-4.3 2.1-10.8-1-14.9-2.2M422 448.1c-2.2.5-4.8-1.6-6.4-2.9 1-1.5 2.7-1.9 3.8-3.2 1.1-1.3 1.3-2.9 2.1-4.1 2.1-3.1 4.5-5.6 6.4-1.7 1 2 2.2 7.3 1.1 9.3-.9 1.6-6.3 3.5-7.8 3.1"/><path opacity=".3" fill="#944E42" d="M469.2 329.6c-2.1 1.1-2.9 2.6-5.4 2.7-3.2.1-5-2.7-7.2-5-6.2-6.8 3.5-6.2 6.1-11 1-1.9.4-5.2 3.6-3.7 1.4.7 3 4.6 3.5 6 1 2.7 1.6 12.5-2.8 12.4"/><path opacity=".1" fill="#944E42" d="M452.3 424.5c-1 .7-4.6 3.2-5.7 2.6-1.5-.7-1.7-4.8-3.6-6-2.3-1.5-5.4-.6-5.2-4.4.1-2.1 2.4-3.5 4.3-4.8 5.4-3.6 5.6 2.7 5.9 6.7.3 4.1 1.2 2.1 4 3.5s2.2 4.3-1.5 3.9"/><path opacity=".3" fill="#944E42" d="M394.1 400.5c-.3 3.8-6.1 10.2-8.6 13.2-4 4.8-7.5 3.2-7.5-2.7 0-4.6 3.9-8.8 7.2-11.5 2.4-2 1-1.4 4.3-.5 1.9.5 4.3 0 6 1"/><g><path fill="#EEBD31" d="M583.3 399.5l-5.2 52.7-3 1.9-3.8-1.9 5.2-52.6M567.7 462.9l-4.6 2.9h-3.9l.3-49.3 3.9-6.9h3.4M587 448.2l-.8-8.1 5-45.8 2.7-.5 4.1 1.9-7.3 53.1M593.9 448.4l8.2-49.3 1.7-2.6 5.6-.2-6.9 50.8-4.4 3M557.5 452.3l-4.4 1-3.4-1.6-.7-46.1 2.7-1.7 6.1-1.1"/><path fill="#F4D164" d="M579.4 399.6l-4.3 54.5-4.3-1.9 1.8-52.6M563.7 462.9l-4.5 2.9.2-50.9 4-5.3M584.7 439l6.7-44.9 4.3 3.7-9 51M601.9 398.9l4.3-.5-6.5 47.5-6.3 2.7M554.8 450.5l-5.1.8-1-45.5 6.8-.7"/><path fill="#EEBD31" d="M517.6 473.3l-1.8-52.7-2.8-1.6-3.9 2.3 1.7 52.7M533.7 411.9l-4.3-2.5-3.9.3-3 49.8 3.5 6.6 3.3-.3M543 408.2l-1.3 8.2 2 45.8 2.6.3 4.3-2.4-3.9-52.8M561.7 405.1l-7.6 48.8.9 2.7 5.5 1.1 9.2-50-3.4-3.5"/><path fill="#EEBD31" d="M514.4 405.1l-4-1.6-3.9 1.1-14.6 44.5 2.2 2 5.7 1.9"/><path fill="#F4D164" d="M513.6 473.7L513 419l-4.5 2.3-1.6 53M529.8 412.3l-4.3-2.6-3.1 51.5 3.6 4.9M540.2 417.7l3.7 44.7 4.5-4.1-5.6-50.7M553.9 454l4.1 1.1 8.6-46.6-5.4-3.6M511.2 406.5l-4.8-1.5-14.7 43.9 6.6 1.6"/><g><path fill="#EEBD31" d="M572.6 420.1l3.1 51-2.8 2.4-4.1-.9-3-51M566.8 483.5l-4.2 3.8-4 .8-7.6-46.7 2.9-7.4 3.5-.8M584.1 465.3l-2.1-7.4-2.1-44.5 2.6-1.1 4.5.9 1 51.8M591.2 464l.5-48.5 1.3-2.8 5.7-1.4 1 49.6-4 3.7M547.4 475l-4.3 1.9-3.8-.8-8-43.5 2.5-2.2 6-2.4"/><path fill="#F4D164" d="M568.6 420.9l4.3 52.6-4.7-.8-6.5-50.3M562.7 484.4l-4.1 3.7-7.9-48.3 3.2-5.8M580.3 457.1l-.3-44 5 2.6-1 50.2M591.5 415.3l4.4-1.3.8 46.3-6 4M544.4 473.8l-5.1 1.9-8.2-42.9 6.8-2.1"/></g><path fill="#EEBD31" d="M555.9 481.1l-5.4-50.5-3-1.2-3.8 2.7 5.3 50.5M540.1 442.1l-4.6-2-4 .7-1.4 48.3 3.8 6 3.5-.6M525.9 452.8l-4.5-.1-3.6 2.2-2.2 45.4 2.7 1.2 6.2-.1"/><path fill="#F4D164" d="M551.9 482l-4.4-52.6-4.4 2.8 1.9 51.3M536 442.8l-4.5-2-1.5 50 3.9 4.3M523.1 455.2l-5.3.1-2.5 44.9 7-.7"/></g><g><circle fill="#EAE7E8" cx="543.6" cy="341.8" r="69"/><circle fill="#FFF" cx="537.7" cy="341.1" r="69"/><circle fill="#F9F6EA" cx="537.8" cy="341.5" r="57"/><path fill-rule="evenodd" clip-rule="evenodd" fill="#6A9D41" d="M548.1 352.9c2.4.8 0-3.1 2.3-4.1 2 2.4 5.6-.4 7.6 2-5.2 3-2.9 5.8-7.2 5.9-1.6 1.9 1.8 2.2 2.3 3.3l2.1-1.5c2.4-2 3.8-.7 5.4.3-.3 2.9.4 5.9 3 10.1-.2.2-.5.3-.7.5-1.8 1.9-2.7.5-4.5 2.4 1.5.6 4.5 1.2 3.8 3.9-.2.2-.5.3-.7.5-1.7.7-2.9 0-4.9 1.8-.4-1.1-1.3-.6-2.2-.1-2.6 1.6 1.4-3.2-1.2-1.6.4 1-1.2 1.4-2.1 1.5 1.1 1.1 1.4 2.2 1.2 3.2-.2.2-.5.3-.7.5-.2.2-.5.3-.7.5-1.3 4.4 6.3 1.2 5.5 3.4-1.7 1.9-.2 1.4.8 2.7l-2.1 1.5c-1.2 2.2-.8 3.9-3.8 3.5-.1-.2-.3-.4-.4-.5-2.1-1.2-.3-4.8-3.1-4.4.9 2.5-1.3 4.8 1.1 7.4.1.5-.1 1-1 1.5-.8-3.3-3.6-7.3-4.4-9.2-1.3-1.4-4.6 5.5-1.8 7.8.7 2.6 2.8.3 3.7 2.3-.9.7-.5 1.4-1.7 2-.4-.5-1.1.2-1.8.4.5-1.4-.9-3.2-2.3-3.3-.7 1.2.2 2.5.5 3.7.3.7-.2 1.4-.6 2.1.9 1.9 2.9.1 4 1.3-1.2.9-2.2 1.4-3.2 1.4-3.3-1.4-5.7-6.8-7.7-3.6-.2-1.1.1-2.1-.2-3.2 0-4.3-.9-9.3-3.5-12.3-2.2-.9-2.7 2.6-4.8 3.4-.2.2-.5.3-.7.5-.6-.3-1.3-.5-2.2-.1-1-2.8 1.3-6.6-2.5-8 3.9-.2-.2-3.4 3.8-1.9 1.8-2.7-2.2-1-2.9-1.2-.9-1.4-.1-2.8.1-4.2 2.7.2.7-2.2 3.8-3.5 1.7-1.5 2.8-.8 3.6.7 3-2.1.4-7.1-2.5-6.4-.2 1.2-1.1 2.4-1.6 3.6-1 3.5-4.6.5-4.5 4-1.2.5-.3-.5-.8-1.1 1-1.6 3.4-4.5.8-4.7.1 2.6-.2 3.7-3.7 5.1-.9.5-1.3-.6-1.8-1.1-.8 1-4 1.9-3.1 3-.7.5-.1 1 .1 1.6-2 .5-4.4 2.6-6.3 2.8-.1-.2-.3-.4-.4-.5-.7-1.8 2.5-3.4 1.5-5.2l-2.1 1.5c-.2-.5.3-1-.1-1.6 2-1.2 3.2.3 5-.3 2-1.1-3.3-.8.2-2.6-1.7-2-1.9 1.9-3.5.9-2-1.5 1.6-2.5 2.4-2.5-.5-1.9-2-.7-2.6-2.2.8.1 4.7-1.5 4.1-2.9-2.3.8-4.1.4-6.4 1.2-.4-.5-1.1.2-1.8.4-.4-1.9-5-4.1-2.1-5.9-1.9-1.5-5.6 3-7.2.2l2.1-1.5c-.7-2.6-3.2 1-4-1.3 1.2-.4 2.3-.4 3.5-.9 1.3-1.4-1.4-.3-.5-2.1-1-1-3.2 2-3.9.3-.7-.2-1.3-.4-1.8-1.1 1.3-1.3 2.1-.9 3.2-1.4-.9-3.5-7-1.6-4.5-5 1-.9 1.6-.3 2.5-.9 1.5 1.2 3.8-.4 5.7-.8 2.4 1.7 0 3.2 1.3 4.8 1.8 1.3-1 2.4-.5 3.6 2.3-.3 4.4-.2 6.8-.7-.1-3.3-3.5-3.5-5.3-6.1-1.2-5.3-5.7.7-7.3-3 1-.9 1.6-.3 2.5-.9-.1-1.5-3.4-.4-1.5-2.2 1.6.7 3.3 1.3 5.1 1.3-1.6-2.5-3.4-4.6-5.6-5 .4.5-.5 1-1 1.5-1.2.6-.8 1.4-1.7 2-1.8-2.4-5.8-2.5-4.2-6l-2.1 1.5c-.3-.4-.5-.7-.8-1.1-.1-.2-.3-.4-.4-.5-.1-.2-.3-.4-.4-.5 1.1-.6 1.4 1.5 2.5.7-1.5-2.3.6-8.3-3.4-10.7 2.8-3.3 5.6-.9 6.6-3.9-1.3-.5-3.3 1.3-4-1.3-.3-.4-.5-.7-.8-1.1-.8-.7 0-1.4-.5-2.1 1.9-2 2.7-.7 4.2-1.4 2.9-2.6 2.2-.2 2.9 1.2.5-.3.9-.7 1.4-1 .9-.1 2.1.8 1.8-.4.9-.5.8.3.4.5.2.6.6.3 1.1.1-.4 1.7-3.2 1.6-2.3 4.1-.9.7-1.8 1.3-2.8 2 .1 1.6 1 3.2-.8 4.7 1.1 1.7 3.3 0 4.1 2.8 2-1.3.2-3.2 3.1-3-2-2.4-1.2-4.6-2.9-7 .5-1 1.3-2 3.1-3-.8-2.3-2.4-1.8-3.7-2.3-.1-.2-.3-.4-.4-.5-3.5-1.3 1.7.1 1-1.5.5-.3.9-.7 1.4-1 1.3 1.2 4.1.8 4.6-.8-.6-.5-.9.2-.7.5-2.3.8 0-2.2-2.2-1.7-.1-.2-.3-.4-.4-.5.3-.9 1.1-1.7 2.4-2.5.3.9-.6 1.7-.2 2.6 1.1-1.9 1.3-.8 3.1-3 .8 2.2 2.3 2.9 1 5.8 2.3 1.1-.5-2.4 2-3 1.8 1.3.1 2.5.5 3.7 1.1 3.3 4.3 5.8 9.2 4.2 1.4 1.4 3.7 0 4.8 2.4 1.6-1.9 2.5-2.7 3.9-.3-1 .9-1.6.3-2.5.9.7 2.6 2.8.3 3.7 2.3-1.6.8-1.6 1.7-2.4 2.5.6 1.5 2.9-2.5 3.2.2-4 .1 2.4 1.6-1.7 2 .5 1.3 1.5 1.1 2.2 1.7-1-1.1.9-2.6 3.8-3.5 2.1 2.4-1.3 4.5-.4 6.8.7 2.6 2.8.3 3.7 2.3.7-.7-.1-1.4-.5-2.1 1.6-1 1.9 2.1 3 2.8.2.4.4.7-.3 1-.4.7-.9 1.4-.6 2.1.9.6 2.5-1.1 2.9 1.2-1.1-3.9 4.3-2.6 3.7-5.1.2-.2.5-.3.7-.5 1.4-.5 3.6-3.5 4.5-2.4.9 2.2-.8 4.2-1.8 6.2-.3-.9.6-1.7.2-2.6-3.3 3.1-4.2 6.9.3 6.3.1.2.3.4.4.5-4.2 2.1 1.5 1.7-2.3 4.1.1.2.3.4.4.5 2 0 .3 2.2 2.6 2.2.1-3.9 4.7-1.2 6.8-.7.9-1-.6-2.1 2-3 .2-.2.5-.3.7-.5 1.5 1.8 1.2 4.8-2.2 5.7-1.6 1.2-2.7.5-4.5 2.4 1.7 1.7 3 2.7 4.6 2.8zM496 327.6c-1.6-.1-2.9-1.4-4.7-.8.9.9.1 1.8.8 2.7.9-.7 1.7-.8 2.5-.9.4.5 1 .3 1.5.6.1.5-.1 1-1 1.5.7 2 2.6-.3 3.3 1.7.7 1.1-2 2-.9 3.1 1.8-.6 3.4-.3 5.6-2.3-.1-3-2.5-2.5-5.2-4.5.8-.7 2-1.3 1.7-2-.6.3-1.4.9-1.8.4.7-.7 1-2.1-.1-1.6.3.8-.7 1.4-1.7 2.1zm42.2 27.4c-1.2.8-2.1 1.6-2.4 2.5.8.9 1.7 1.5 2.9 1.2-.4-1.3 1.3-2.4-.5-3.7zm3.1 11.7c-2.2 1.1.5-1.6-.5-2.1s-2.7 1.8-3.5.9c-.5-1.8 2.3-3.4 1.5-5.2-.9.7-1.8 1.3-2.8 2 2.4 1.9-1.1 3.4.6 5.3 1.9-1.5 2.8.3 4.3.2.1.2.3.4.4.5 1.1-.6 1.8.1 2.8-.4-1.1-.7.4-3.7-1.9-2.7.2.5 0 1-.9 1.5zm-15.1-15.5l2.1-1.5c-.9-1.9-4.9.1-3.8 1.9l-2.1 1.5c.2 1.9 4 .8 3.5-.9-.8.5-1.1-.3.3-1zm-10.8-15.3c1.1 1.3.1 2.5.5 3.7 2.5-1.6 4 .1 6.4-1.2-1.7-3.3-4.8-2.4-6.7-5.1-.3-.4-.5-.7-.8-1.1-.9.4-3.8-1.7-3.5.9 1.3-.2 2.8-.7 3.6.7-.9.4-1.2 3.3.5 2.1zm28.4 37.2c-1.2.8-2.3 1.6-3.5 2.4 3.6 1.8 2 4.1 3.9 7 2.4-2.9.3-6.2-.4-9.4zm-16.4-18.7c.3.7-.7 1.4-1.7 2 .5.7 1 1.5 1.5 2.2l2.1-1.5c-3.1-.4.8-2.9-1.9-2.7zM506.3 326c-2.3 3.8 4.8 5.1 5.9 2.4-2.3.2-3.5-3-5.9-2.4zm1.4 6.4c3.1-2-1.5-2.7-2.9-1.2-.4 1.9.6.6 1.5 2.2-.7.7-.6 1.4-.6 2.1 1.5-1.7 4.7-.1 4.5-2.4-1 .3-1.9.2-2.5-.7zm-6.6-10.9c-.5-.7-1-1.5-1.5-2.2l-2.1 1.5c.8 1.4 2.2 1 3.6.7zm10.8 22.6c-.9-1.4 2.2-1.8 2.8-2-.6-2.2-2.3-1-3.6-.7-1.1.6-1.8-.1-2.8.4-.6-.6-1-1.6-1.8-1.1.4 1.2-.9.3-1.8.4.3.7-.7 1.4-1.7 2 1.3 1.7 3.6.2 5.1 1.3 1.2-1 2-.5 3.2-1.4.4.9-.5 1.7-.2 2.6.7 2.5 4.7-1.6 3.5-2.4-1.2.7-2 .8-2.7.9zm1.5 16.9c2.9.5 3.9-3.6 3.7-5.1-2.4 1.3-1.7 2.7-4.5 4-.4-1.4 2.1-4.6-1.2-3.2.7 1.5-2.6 5.4-.5 5.2-.5-2.2 1.9-.3 2.5-.9zm-5.1-2.9c.6-.3 2.7-1.9 3.8-3.5-1.9 2.1-2.2-1.1-3.9.3-2.1 1.4-2.6 4.6.1 3.2zm21.9 23.8c2.7-3.5 3-.7 6.3-2.8.3-1.2-1.7-5.3-3.5-4.9-.5 1.7.2 3.5-.5 5.2-.9-.9-.1-1.8-.8-2.7-1.1.6-2.4 2-3.2 1.4-.7-1.4 1-2.6 2.4-2.5-.6-.8 1-4-1.2-3.2.5 3.4-4.2 6.4-4.5 9.7 1.9-.7 3.2.5 5-.2zm-23-31.2c0 3.3 5.9-.6 3.8-1.9-1.5 1.4-2.2.1-3.8 1.9z"/><path fill="#EF4241" d="M515.8 335.2c-.6-.6-1.2-1.2-1.9-1.7-.1-.1-.2-.2-.4-.3l-.4.5c.9.4 1.8.9 2.7 1.5zM484.5 369.4c.1.1.2.2.4.3l2.1 1.5c-.7-.7-1.4-1.5-2-2.3l-.5.5zM512.1 335c.1.1.2.2.4.3 9 7.2 10.5 20.4 3.3 29.4s-20.4 10.5-29.4 3.3c-.1-.1-.2-.2-.4-.3l-1 1.3c.6.8 1.3 1.6 2 2.3 9.9 6.2 23.1 4.2 30.5-5.1 7.5-9.3 6.6-22.7-1.7-30.9-.9-.6-1.8-1-2.7-1.5l-1 1.2z"/><path fill="#F26B6C" d="M516.5 345.1c-8.7 2.6-17 5.9-17 5.9v-.3l-3.2 4 .7-.2s.2 6.7-.3 15.6c-4.1-.6-7.2-2.3-9.4-4.2l-1.4 1.7c.1.1.2.2.4.3 9 7.2 22.2 5.7 29.4-3.3 7.2-9 5.7-22.2-3.3-29.4-.1-.1-.2-.2-.4-.3l-1.6 2c2.4 1.9 4.7 4.5 6.1 8.2zm-18 24.9l.8-16.2 13.5 10.8c-5.8 5.9-14.3 5.4-14.3 5.4zm15.2-7L500 352.4l17.8-5.3s1.9 8.5-4.1 15.9z"/><path fill="#F05B5A" d="M513.7 363c6-7.4 4.1-15.9 4.1-15.9l-17.8 5.3 13.7 10.6zM498.5 370s8.5.5 14.3-5.4l-13.5-10.8-.8 16.2zM516.5 345.1c-1.4-3.7-3.6-6.2-6-8l-10.9 13.6v.3c-.1 0 8.2-3.3 16.9-5.9zM496.8 370c.5-8.9.3-15.6.3-15.6l-.7.2-9 11.2c2.2 2 5.3 3.7 9.4 4.2z"/><path fill-rule="evenodd" clip-rule="evenodd" fill="#A9D379" d="M561.1 297.8c2.2-1.5 1.7-2.7 3.2-4 1.5-3.2 4.5-3 6-1.2l-.6.6c-1.4 2.4-2.2.7-3.4 1.4.2 2.1 2 7.2-1.9 6.5-.3 2.3 2 1 1.7 3l.5.5c3-3.3 1.6 2.2 4.4-1.5l.5.5c-1.4 4.4 2.6 4.1 6.2 1.4-.8-.5-1.8.2-2.6-.2 2.2-.6 4.5-2 6.4-.7 1 1.1-2.4 2.7-3.2 4l-.6.6c-2.3-1.1-2 4.5-5.6 2.7 2.2.8.2 2.1.7 3.1.7.4 1.4.1 2.1-.2.4-.6.8-.4 1.1-.1.5 1.2 3.5 2.1 2.2 3.5-.6-.5-1.2-1.5-2-.8 1.8 1.2-.8 2.9 1.6 4 2.1 1.3 4.8-1.7 6.8.8-1.4 2.6-3.2 4.3-4.1 3.1.4.8 0 1.8 1.3 2.5 1.1-4 1.4 2.6 2.3-1.3 2.6.8-1.8 2.3-.4 3.2 1-.7 1.8-.5 2.9-1.9 1.8 1.2-.8 2.9 1.6 4 .7-.8.2-1.4 1.3-2.3 2.1 1.8 1.2 2.6-1 3.8 2.1 1.5.4 3.5 1.5 5.1-2.5 4.4-.6 8.1 2.5 9.8 1.1.7 2.6-.8 3.5 1.2-1.1 2.3-4-1-3.4 1.4 3.1-.7 3.5.8 5.6 2-2.4 1.3-1.5 1.7-3.5 2.5.8.5 1.8-.2 2.6.2-1 1.1-2 1.7-2.9 1.9l-.5-.5c.9-2.1-2.5-.4-1.3-2.5.3.3 1 .1.6-.6-1.7.2-2.5 3-1.6 4.4l-1.2 1.2c-1.4-.9-1 4.3-1.7.7l-.5-.5c-.3-1.4.5-2.9-1.6-4-1.3 1.5-2.4 2.2-3.5 2.5-2-2.1-4.4-1.6-6.4-4.1-.3 2.9-1.9.7-3.5 2.5 2.6 1.3.6 3.1 2.1 4.5 1.8-1.5 3.2-.4 4.8 0l2.4-2.4c2.3 1.4 2.7-1.5 4.4-1.5-.3.4-.6.8-.1 1.1.3-.3 1.1-.3.5.5-1.1-.6-.4.8-.7 1.7l-1.2 1.2c1.3.9 3.7.7.7 3.1-1 1.3.2 2.4-2.1 3.9-.6-.6-1.4.1-2-.8-.3-.3-.6-.6-.9-1-2.4-1.1-.2-2.8-.5-4.2-3.1.5-1.2 3.6-5 5.8-1.6-4.4-7.9-3.4-9.9-5.2-1 1 1 1.7.2 2.6l-.5-.5-.5-.5c-.3-.3-.6-.6-.9-1l1.8-1.8c-3.7.9-3.1-3-5.1-5.2.8-.7 1.4-.2 2.3-1.3.6-.4 1.2-1.2 1.7-.7 0-2.3-1.8-4.4-3.9-6.4-.3 1.8 0 3.5.4 5.2-2.1 1.5-.4-1.6-1.9-1.9-.7.8-.2 1.4-1.3 2.3-3.4-2.3 3.3-5.6-1.7-7.7-2.1-2.3-1.7-5.7-5-6.3-.9 2.2-1.2 4.4-1.9 6.5 1.1.7 2.7-1.9 3.7.1 1.4 1.5 3.2-.5 4.5 2.1-.7 1.8-2.7 3.8-1.8 5.5-.7.8-.2 1.4-1.3 2.3-3.7 1.8-.8-3.9-4.1-5.4-.7 1-.5 1.8-1.9 2.9-.7-.6-.7-1.3-.8-2-1.6-1.1 1.8-2.7 1-3.8-2 .6-.4-1.9-2-.8-.7 1.1-.8 2.2-1.5 3.3-2.1-1.2 1.9-3-.5-4.2l-1.8 1.8c-2.5-2 2.6-4.9 1.4-7-2.3 2.6-3.6-2.3-5.4-3.1.4-.6 1.2-1.2.7-1.7 1.2-2.1 1.1-4 2.4-6.1-1.3-.8-3.6 2.8-3.6 3.6-1.4-.9.1-2.1-1.7-3-.1.8-1.8 4.1-2.9 1.9-.7-1.8 3.1-1.3 1.5-3.3-2.4 3.2-1.1-2-2.6-.2-.9 1.7.4 3.1-1.1 4.9-.5-.5-1-.1-1.5-.4l1.8-1.8c-1.6-1.3-3.7 1.6-5.4.6l-.5-.5c.6-1.8 3-3.8 3.9-5.7.5.2.9.9 1.5.4.9 1.1 2.4-1.9 3.5-2.5-.5-.7-1.4-1.2-.8-2 2-3.2 3.1-3.3 5.6-2.7.3-2.6-3-.7-4.8 0-.5-.6-1.6.1-.9-1 3.4.8 1.1-3.3 4.7-3.7 1.3-.3 2.6-1 3.8-.9 1.1-2.7-3.3-6.2-5.9-3.6 1.4 1.1 1.8 2.3.1 3.7-1.8 2.8-3.8.4-4.1 3.1-1.4 0-2.9.6-4.2-.6 0-.8 2.4-4.4-.7-3.1.8 4.2-1.6-.3-2.6 3.4-.7-4.1-4.8-2.5-7.4-3.9.6-.8.4-1.5.3-2.1l.6-.6c1.2-1.9 4.7-1.8 4.2-4.2-2.5-3-7.2-4.8-11.4-5.6-1-.4-2.1-.3-3.1-.7 3.5-1.4-1.4-4.7-2.1-8.2.2-.9.9-1.9 1.9-2.9.9 1.3-1.2 2.9.5 4.2.7-.3 1.5-.6 2.1-.2 1.2.5 2.3 1.7 3.5 1.2.2-1.4-1.4-3.1-2.8-2.9.4-.6 1.2-1.2.7-1.7.8-1.1 1.5-.6 2.3-1.3 1.8 1.2-.8 2.9 1.6 4 1.7 3.2 9.1 1.2 8-.3-1.7-1.1-5.1-4.6-8.2-6 .6-.8 1.2-.9 1.7-.7 2.1 2.8 4.8 1.1 7.1 2.4 1-2.7-2.9-1.6-3.7-3.8l-.5-.5c.2-3 1.7-2.3 4.1-3.1l1.8-1.8c1.1 1.3.3 2.6 2.5 1.3 2.4-.4-2.1 6.6 2.4 6.1l.6-.6.6-.6c1.1.1 2.1.5 2.9 1.8.2-.8.9-2.4 1.8-1.8 2-2.2-3.4.8-1.4-1.4.7-.8 1.3-1.5.3-2.1 2.1-1.6 1.7-3 2.7-4.5l.6-.6c2.8-.2 2.8 2.8 3.1 4.4 2.2-1.5 1-2.6 3.2-4l.6-.6c3.7 3.4 6.5 4.6 9.4 4.8.7 1.7 1.7 3.3-.7 5.4l-1.8 1.8c1 .7.6 4 2.8 2.9.9-4.2 3.2-1.5 7.1-6 2 2.4-1.4 5.4.6 7.8-1.4 2.1-4.8-.9-4.4 1.5-.5 1.5.3 2.9 1.9 4.4zm15.8 49.9c.7-1-.8-.9-1.5-.4-.4-.5.4-1.1.7-1.7-.6-.5-1.5.7-2.3 1.3-1.4-3-.6-5.3-3.5-6-2.4 1.8-2.4 3.4-3.3 5.1.9 1.3 2.3-1.2 3.2-.4 1.9 1-.8 2.5 1.1 3.6.6-.8 1.2-1 1.7-.7.3.5-.1 1.1.3 1.5-.2.7-.5 1.5-1.3 2.3.8.9 1.7.3 2.5 1.3 1-1.7-.1-3.2.1-4.8.8-.6 1.6-1.5 2.3-1.1zm-25.3-46.3c-.5 1.1-.1 2.1.7 3.1.9-.2 1.9-.8 2.9-1.9-1-2-2.5-.5-3.6-1.2zm-5.8-4.6c1.4-2.1-1.9-1.2-2.3-2.4-.6.9-.1 1.8-.9 2.7l.5.5c-.4 1.4 1.2 2.7-.5 4.3 1.5 2 3.7-1.2 5.1 1.6l2.4-2.4c-1.6-1.1-3.7 1.4-5.4.6-.8-1 1.8-2.3 1.5-3.3-.4-1-3.5 1.2-2-.8.6-.9 1.1-1.1 1.6-.8zm9.9 18.4c-1.5-.8-3.3 2.7-1.5 3.3l1.8-1.8c1.5 1.4 4.2-2.2 2.6-3.4l-1.8 1.8c-1 1.2-1.8.8-1.1.1zm16.1 14.1c1.3 1.1.5 2.4.1 3.7 2.4.7.9-2.5 1.5-3.3-.3-.3-.6-.6-.9-1-2.3-2.4-.8-5.2-3.8-7.5-1.7 2.1-.3 3.9-2.4 6.1 1.2.7 2.5-.1 3.5 1.2-1.4 1.5 1.4 1.7 2 .8zM529 291.8c2.6 2.4 5.1 1.2 6.2 5.1l3-3c-2.9-1.3-5.8-3.9-9.2-2.1zm22.4 19.1l-1.8 1.8c.6.6 1.2 1.3 1.9 1.9.8-.9 1.6-1.8 2.3-1.3.7-2.6-2.5.8-2.4-2.4zm25.3 22.1c-2.8.5-2.8 7.8 1.3 6.2 1-2.2-1.9-4-1.3-6.2zm-4.9 1c-2.2-.6-1.3 2.9-3.2 4 .7.2 1.4.3 2.1-.2 1.3 1.2-.1 1.9 1.9 1.9 1.8-1.1 1.9-5.8-.7-3.1-.8-.7-.7-1.6-.1-2.6zm9.7 14.8l1.8-1.8c-.6-.6-1.2-1.3-1.9-1.9-.4 1.3-1.2 2.6.1 3.7zm-19-20.6c-.6-1.4-5.3 1.8-3 3 .8.4 1.8-.3 2.6.2-1.1 1-.7 1.8-1.9 2.9.9 1.7-1 3.6.4 5.2.8-.9 1.6-1.8 2.3-1.3.3-.8-.4-2.2.7-1.7.6-.8-.3-1.4-.8-2 .6-.9.1-1.8.9-2.7.5-1.3 2-2.7-.1-3.7-.2.5-1.2 3.5-2.4 2.4.2-.8.4-1.5 1.3-2.3zm-19.1 0c-.6 2 3.9-.5 5.2.5 1.9-3-1.6-1.2-2.9-1.8 1.7-2.4 3-1.6 4.7-3.7-1.4-.5-5.6-.2-5.6 2.7-.7.6.8 3.3-1.4 2.3zm6.4 4c1.7-1.4-1.3-2.3 1-3.8-1.7.8-3.7 2.5-4.1 3.1-1.8 2.4 1.4 2.5 3.1.7zm-23.7-21.6c3.3.2 7.2-3.8 10.4-2.7 1.2-2-2.3-1.1-2.9-1.8-.2 1.4-1.6 2.8-2.9 1.9-.4-.8 1.1-1.9 1.9-2.8-.8-.9-1.7-.3-2.5-1.3 1.8-.4 3.4.7 5.2.5.7-1.7-2.9-4.4-4.2-4.3-2.6 2.9 0 3.7-3.9 5.7-1 1.6 0 3-1.1 4.8zm30.3 19.9c-.9-2.3-5.8 2.9-2.6 3.4 2.1-1.3.9-2.2 2.6-3.4z"/><path fill="#EF4241" d="M581.8 360.4c-.2-.8-.4-1.7-.7-2.5-.1-.1-.1-.3-.2-.4l-.6.2 1.5 2.7zM537.3 373.3c0 .1.1.3.1.4.3.8.6 1.6 1 2.4-.2-1-.4-2-.5-3l-.6.2z"/><path fill="#EF4241" d="M578.7 358.3c.1.1.1.3.2.4 3.9 10.9-1.7 22.8-12.6 26.7-10.9 3.9-22.8-1.7-26.8-12.6-.1-.1-.1-.3-.1-.4l-1.5.6c.1 1 .3 2 .5 3 5.1 10.5 17.5 15.6 28.7 11.6 11.2-4.1 17.4-15.9 14.7-27.2l-1.5-2.7-1.6.6z"/><path fill="#F26B6C" d="M577.2 369.2c-8.8-2.3-17.6-3.8-17.6-3.8l.2-.3-4.8 1.7.7.2s-3.3 5.9-8.4 13.2c-3.2-2.6-5-5.7-5.9-8.5l-2.1.8c0 .1.1.3.1.4 3.9 10.9 15.9 16.5 26.8 12.6 10.9-3.9 16.5-15.9 12.6-26.7-.1-.1-.1-.3-.2-.4l-2.4.9c1.2 2.7 1.7 6 1 9.9zm-28.3 11.9l9.1-13.4 5.9 16.3c-8.1 1.9-15-2.9-15-2.9zm16.6 2l-6.1-16.2 17.9 4.8c0-.1-2.9 8.2-11.8 11.4z"/><path fill="#F05B5A" d="M565.5 383.1c9-3.2 11.8-11.4 11.8-11.4l-17.9-4.8 6.1 16.2zM548.9 381.1s7 4.9 15 2.8l-5.9-16.3-9.1 13.5zM577.2 369.2c.7-3.8.1-7.2-.9-10l-16.4 5.9-.2.3s8.7 1.5 17.5 3.8zM547.4 380.2c5.1-7.3 8.4-13.2 8.4-13.2l-.7-.2-13.5 4.9c.9 2.8 2.6 5.9 5.8 8.5z"/><path fill-rule="evenodd" clip-rule="evenodd" fill="#A9D379" d="M551.8 341.9c2.1 1.6 3.1.8 4.8 1.7 3.5.4 4.3 3.3 3.1 5.3-.3-.1-.5-.3-.8-.4-2.7-.5-1.4-1.9-2.4-2.7-2 .9-6.1 4.2-6.8.3-2.3.4-.3 2.3-2.3 2.6l-.3.6c4.1 1.8-1.6 2.2 2.9 3.7l-.3.6c-4.6.1-3 3.8.6 6.3.2-.9-.7-1.6-.6-2.6 1.3 1.9 3.4 3.6 2.8 5.9-.8 1.3-3.3-1.4-4.8-1.7-.3-.1-.5-.3-.8-.4.3-2.5-4.9-.4-4.4-4.4-.1 2.3-1.9.9-2.7 1.6-.2.8.4 1.4.9 2 .7.2.6.6.5 1-1 .8-.8 4-2.6 3.2.2-.8 1-1.6.1-2.2-.6 2.1-3 .2-3.3 2.8-.5 2.4 3.2 4 1.4 6.7-2.9-.5-5.1-1.6-4.2-2.9-.6.7-1.6.6-2 2 4.1-.2-2 2.2 2 1.7.1 2.7-2.8-.9-3.2.7.9.7 1 1.6 2.7 2.1-.6 2.1-3 .2-3.3 2.8 1 .5 1.4-.2 2.6.5-1 2.6-2.1 2-3.9.3-.7 2.5-3.2 1.5-4.4 3-5-.9-7.9 2.1-8.4 5.5-.2 1.3 1.6 2.2 0 3.7-2.5-.3-.3-4.1-2.4-2.7 1.7 2.7.4 3.6-.1 5.9-2-1.9-2.1-.8-3.5-2.5-.2.9.7 1.6.6 2.6-1.3-.6-2.3-1.3-2.7-2.1l.3-.6c2.3.1-.5-2.5 2-2-.2.3.3 1 .8.4-.7-1.6-3.6-1.5-4.7-.1-.5-.3-1-.5-1.5-.8.4-1.7-4.4.5-1.2-1.4l.3-.6c1.2-.7 2.9-.5 3.3-2.8-1.9-.7-2.9-1.6-3.5-2.5 1.3-2.6.1-4.7 1.8-7.3-2.8.6-1.3-1.5-3.5-2.5-.4 2.9-2.8 1.5-3.6 3.4 2 1.2 1.4 2.9 1.5 4.5l3 1.5c-.5 2.6 2.3 2.1 2.9 3.7-.5-.2-.9-.4-1.1.2.4.2.6.9-.3.6.2-1.2-.9-.1-1.8-.2-.5-.3-1-.5-1.5-.8-.5 1.5.5 3.8-2.7 1.6-1.6-.5-2.2 1-4.4-.7.3-.8-.6-1.3.1-2.2l.6-1.2c.3-2.6 2.6-1.1 3.8-1.8-1.5-2.8-3.8 0-7.1-2.8 3.6-3 .6-8.6 1.8-11.1-1.3-.6-1.3 1.4-2.4 1l.3-.6.3-.6.6-1.2c.8.4 1.5.8 2.3 1.1-2.1-3.2 1.9-3.9 3.3-6.6 1 .5.7 1.3 2 1.7.5.4 1.5.8 1.2 1.4 2.2-.7 3.6-3.1 4.8-5.8-1.8.3-3.3 1.1-4.8 2.1-2.1-1.5 1.4-.9 1.2-2.4-1-.5-1.4.2-2.6-.5 1.1-3.9 6.4 1.3 6.8-4.1 1.5-2.8 4.8-3.5 4.3-6.8-2.4-.1-4.5.3-6.8.3-.3 1.3 2.7 1.9 1.1 3.5-1 1.8 1.5 2.9-.6 4.9-2-.1-4.5-1.3-5.7.1-1-.5-1.4.2-2.6-.5-2.9-2.9 3.4-2 3.7-5.6-1.1-.3-1.9.1-3.3-.9.4-.8 1-1.1 1.7-1.4.5-1.8 3.1.9 3.9-.3-1.2-1.7 1.7-1 .1-2.2-1.3-.3-2.4-.1-3.6-.3.5-2.3 3.5.8 3.8-1.8-.8-.4-1.5-.8-2.3-1.1 1.1-3.1 5.4.9 7.1-.9-3.2-1.3 1-4.1 1.2-6.1.7.2 1.5.7 1.8.2 2.3.5 4.1-.2 6.5.3.3-1.5-3.8-2.5-4.5-2.3.4-1.6 2-.6 2.3-2.6-.8.1-4.5-.4-2.7-2.1 1.5-1.3 2.2 2.6 3.6.3-3.8-1.2 1.5-1.7-.6-2.6-1.9-.3-2.8 1.4-5 .5.3-.6-.3-1-.2-1.6.8.4 1.5.8 2.3 1.1.7-1.9-2.7-3-2.3-4.9l.3-.6c1.9-.1 4.6 1.6 6.7 1.8-.1.5-.6 1.2.2 1.6-.8 1.2 2.6 1.6 3.5 2.5.5-.6.7-1.8 1.7-1.4 3.7.9 4.1 1.8 4.4 4.4 2.5-.6-.3-3.1-1.5-4.5.4-.6-.6-1.5.6-1.2.4 3.5 3.5 0 5 3.3.7 1.1 1.8 2.1 2.1 3.3 2.9.2 4.8-5.1 1.5-6.7-.6 1.7-1.6 2.4-3.5 1.3-3.3-.8-1.6-3.5-4.2-2.9-.4-1.3-1.5-2.6-.8-4.1.7-.3 4.9.8 2.7-1.6-3.7 2.1-.2-1.7-4.1-1.3 3.6-2 .8-5.4 1.3-8.3.9.3 1.5-.1 2.1-.4.3.1.5.3.8.4 2.2.5 3.3 3.9 5.3 2.7 2.1-3.4 2.2-8.4 1.6-12.6 0-1.1-.4-2.1-.3-3.1 2.5 2.9 4-2.8 7.1-4.7.9-.1 2 .2 3.3.9-.9 1.3-3.2-.2-3.8 1.8.5.6 1.1 1.2.9 2-.1 1.3-.9 2.7 0 3.7 1.4-.2 2.4-2.3 1.8-3.6.7.2 1.5.7 1.8.2 1.3.4 1 1.2 2 1.7-.6 2.1-3 .2-3.3 2.8-2.5 2.6 1.8 9 2.9 7.4.5-2 2.7-6.3 3-9.7.9.3 1.3.8 1.2 1.4-1.9 2.9.5 4.9 0 7.5 2.9.1.5-3.3 2.4-4.8l.3-.6c2.9-.8 2.8.9 4.2 2.9.8.4 1.5.8 2.3 1.1-.8 1.4-2.4 1.1-.4 2.8 1.1 2.1-6.9.1-5 4.2.3.1.5.3.8.4.3.1.5.3.8.4.3 1 .2 2.1-.7 3.4.8-.1 2.5.1 2.3 1.1 2.8 1.2-1.9-3 .9-1.8 1 .4 1.9.7 2.1-.4 2.2 1.5 3.4.6 5.1 1.1.3.1.5.3.8.4 1.1 2.6-1.7 3.6-3.1 4.4 2.1 1.6 2.7.1 4.8 1.7.3.1.5.3.8.4-2 4.5-2.2 7.7-1.5 10.5-1.4 1.2-2.6 2.7-5.3 1.1-.8-.4-1.5-.8-2.3-1.1-.3 1.2-3.6 1.9-1.8 3.6 4.3-.5 2.5 2.6 8 4.8-1.6 2.7-5.6.4-7.2 3.1-2.5-.6-.7-4.8-2.9-3.7-2 .1-3.1 1.4-4 3.3zM509.7 373c1.2.3.6-1-.2-1.6.3-.6 1.2 0 1.8.2.2-.8-1.1-1.2-2-1.7 2.4-2.3 4.8-2.3 4.5-5.2-2.5-1.7-4-1.1-5.9-1.5-.9 1.3 1.9 1.8 1.4 2.9-.4 2.1-2.7.1-3 2.2.9.3 1.3.8 1.2 1.4-.4.4-1.1.2-1.4.8-.8 0-1.5 0-2.6-.5-.6 1 .3 1.7-.4 2.8 1.9.4 2.9-1.1 4.5-1.5 1.2.5 2.3 1 2.1 1.7zm35.6-38.9c-1.2-.1-2.1.6-2.7 1.6.4.8 1.4 1.5 2.7 2.1 1.6-1.5-.3-2.4 0-3.7zm2.5-6.9c2.5.6.5-2.1 1.5-3-1.1-.3-1.7.5-2.9.1l-.3.6c-1.5.1-2.1 2-4.2.9-1.4 2.1 2.3 3.1.2 5.3l3 1.5c.5-1.9-2.6-3-2.3-4.9.7-1 2.7.9 3.6.3.8-.7-2.2-2.9.1-2.2 1 .4 1.4.8 1.3 1.4zm-14.2 15.2c.3-1.7-3.7-2.2-3.6-.3.8.4 1.5.8 2.3 1.1-.8 1.9 3.5 3.3 4.1 1.3-.8-.4-1.5-.8-2.3-1.1-1.5-.5-1.4-1.3-.5-1zm-8.1 19.9c-.6 1.6-2.1 1.3-3.5 1.3.1 2.5 2.6.1 3.6.3l.6-1.2c1.5-3 4.6-2.5 5.9-6-2.6-.9-3.8.9-6.5-.3-.2 1.3.9 2.3 0 3.7-1.8-.8-1.1 1.9-.1 2.2zm21.6-52.7c-1.4 3.2.5 5.2-2.8 7.5 1.3.6 2.5 1.3 3.8 1.9.2-3.2 1.8-6.7-1-9.4zM536.2 337c-.8-.4-1.5-.8-2.3-1.1l-1.2 2.4c1.1.5 2.2 1 2 1.7 2.8-.2-1.5-2 1.5-3zm-12.6 31c-1.4-2.5-8.3-.1-5.4 3.3 2.4.2 3.1-3.1 5.4-3.3zm-2.6-4.2c-.2-2.3-3.1-.2-4.8-1.7.1.7.1 1.4.9 2-.7 1.7-1.9.6-1.2 2.4 1.6 1.3 6.1-.1 2.7-1.6.4-1.1 1.3-1.4 2.4-1.1zm-10.8 14c.8.4 1.5.8 2.3 1.1l1.2-2.4c-1.4 0-2.9-.3-3.5 1.3zm13.3-24.7c1.1-1.1-3.4-4.4-3.8-1.9-.1.9.9 1.6.6 2.6-1.3-.8-2-.1-3.3-.9-1.3 1.4-3.8.2-4.8 2.1 1.1.5 2.2 1 2 1.7.9 0 2-1.1 1.8.2.9.3 1.2-.8 1.7-1.4 1.1.3 1.7-.5 2.9-.1 1.4 0 3.2 1 3.5-1.3-.6-.1-3.7 0-3-1.5.6-.1 1.4-.1 2.4.5zm-6.2-18c-2.1.1 1.7 3.5 1.2 5.1 3.5.8.6-1.9.7-3.4 2.9.8 2.5 2.3 5 3.3 0-1.5-1.6-5.3-4.4-4.4-.6-.6-2.7 1.7-2.5-.6zm-1.7 7.3c1.9 1.2 1.8-2 3.9-.3-1.3-1.4-3.6-2.7-4.2-2.9-2.9-.9-2 2.2.3 3.2zm12.8-29.4c.9 3.2 6 5.6 5.9 8.9 2.3.5.3-2.5.7-3.4-1.4.3-3.2-.6-2.7-2.1.6-.7 2.1.5 3.3.9.6-1-.3-1.7.4-2.8.9 1.6.5 3.5 1.2 5.1 1.9.1 3.2-4.2 2.7-5.4-3.6-1.5-3.5 1.2-6.7-1.8-1.8-.4-2.8 1-4.8.6zm-9 35c1.9-1.6-4.6-4.5-4.1-1.3 1.9 1.6 2.4.2 4.1 1.3z"/><g fill-rule="evenodd" clip-rule="evenodd"><path fill="#E88948" d="M529.8 377.5c-.5.4-1.9.1-2.2 2.3-.4 2.2.3 4.8.6 7 .4 2.3 2.8 2.7 4.1 3.2 1.2.5 1.5.1 2.6-.2 2.1-.5 2-2.3 2-5 0-4 1.7-7.9-.5-7.5-2.2.4-3.2-1.7-4.5-1-1.3.7-2.1 1.2-2.1 1.2z"/><path fill="#F9A460" d="M529.3 377.5c-.7-1.1-2 1.7-2.3 3.4-.3 1.7 0 3.8.1 5.6.1 1.8 1.4 2.1 2 2.4.6.3 2.4 1.3 2.9 1.1 1.1-.5 1.5-1.4 1.7-4.6.1-3.2-1-3.9-1-5.7 0-1.8-1.1-3.7-1.8-3.1-.6.7-1.6.9-1.6.9z"/></g><g fill-rule="evenodd" clip-rule="evenodd"><path fill="#E88948" d="M513 367c-.6-.8-2.6-.8-2.4-4 .2-3.1 1.9-6.6 3.2-9.7 1.2-3.1 4.9-2.9 6.8-3.2 1.9-.3 2.1.3 3.5 1.1 2.8 1.4 2.1 3.9 1.2 7.7-1.3 5.6-.2 11.7-3.2 10.4-3-1.3-5.1 1.4-6.6 0-1.5-1.3-2.5-2.3-2.5-2.3z"/><path fill="#F9A460" d="M512.4 366.9c-1.4 1.3-2.3-3-2.1-5.6.2-2.5 1.2-5.4 2-7.9.7-2.5 2.7-2.5 3.7-2.7 1-.3 3.7-1.1 4.5-.6 1.4 1.1 1.7 2.4.9 7-.8 4.5-2.6 5.2-3.3 7.7-.6 2.5-2.7 4.9-3.5 3.8-1-1-2.2-1.7-2.2-1.7z"/></g><g fill-rule="evenodd" clip-rule="evenodd"><path fill="#EEBD31" d="M510.8 345.6c-.4-.4-1.5-.5-1.5-2.4.1-1.9 1.1-4 1.9-5.9.7-1.9 2.9-1.8 4.1-1.9 1.1-.2 1.3.2 2.1.6 1.7.9 1.3 2.3.8 4.6-.7 3.4-.1 7.1-1.9 6.3-1.8-.8-3 .9-4 0-1-.7-1.5-1.3-1.5-1.3z"/><path fill="#F4D164" d="M510.3 345.5c-.8.8-1.4-1.8-1.3-3.3.1-1.5.7-3.2 1.1-4.8.4-1.5 1.6-1.5 2.2-1.7.6-.2 2.2-.7 2.7-.4.9.6 1 1.5.5 4.2s-1.6 3.1-1.9 4.7-1.6 3-2.1 2.3c-.4-.6-1.2-1-1.2-1z"/></g><path fill-rule="evenodd" clip-rule="evenodd" fill="#85B655" d="M549.5 315.5c2.6-.5 2.6-1.8 4.5-2.5 2.6-2.4 5.3-1 5.9 1.3-.3.1-.5.2-.8.3-2.2 1.7-2.3-.2-3.6 0-.7 2-1 7.4-4.3 5.3-1.2 2 1.5 1.7.4 3.4.1.2.2.4.2.6 4.1-1.9.6 2.7 4.7.3.1.2.2.4.2.6-3 3.5.7 4.8 5.1 3.8-.5-.8-1.7-.5-2.3-1.3 2.3.3 4.9-.1 6.2 1.9.4 1.4-3.2 1.6-4.5 2.5-.3.1-.5.2-.8.3-1.7-1.9-3.6 3.3-6.3.3 1.7 1.6-.7 2-.6 3.1.4.6 1.3.6 2.1.6.6-.4.8 0 1 .3 0 1.3 2.4 3.3.7 4-.4-.7-.5-1.8-1.5-1.6 1.1 1.8-1.9 2.4-.1 4.3 1.4 2 5.1.3 5.9 3.5-2.3 1.9-4.6 2.7-5 1.2.1.9-.7 1.6.2 2.8 2.6-3.2.3 3 2.6-.3 2.1 1.7-2.5 1.4-1.6 2.8 1.1-.2 1.9.3 3.4-.6 1.1 1.8-1.9 2.3-.1 4.3 1-.4.8-1.2 2.1-1.5 1.2 2.5 0 2.9-2.4 3.1 1.4 2.2-1 3.3-.7 5.3-4.1 3.1-3.7 7.2-1.6 9.9.8 1.1 2.7.3 2.8 2.5-1.9 1.7-3.3-2.5-3.6 0 3.1.5 2.9 2.1 4.3 4.1-2.8.3-2 1-4.2.9.5.8 1.7.5 2.3 1.3-1.4.6-2.5.8-3.4.6-.1-.2-.2-.4-.2-.6 1.6-1.6-2.2-1.3-.2-2.8.1.3.9.5.8-.3-1.6-.5-3.5 1.7-3.2 3.4-.5.2-1.1.4-1.6.6-1-1.4-2.6 3.6-1.8 0-.1-.2-.2-.4-.2-.6.3-1.4 1.6-2.4.1-4.3-1.8.9-3.1 1.1-4.2.9-1.1-2.7-3.4-3.2-4.2-6.2-1.4 2.5-2-.1-4.2.9 1.9 2.2-.7 3.1.1 5 2.2-.7 3.1.9 4.4 1.9 1.1-.4 2.1-.8 3.2-1.2 1.6 2.2 3.1-.3 4.7.3-.5.2-.9.5-.5.9.4-.2 1.1.2.2.6-.8-1-.7.6-1.3 1.2-.5.2-1.1.4-1.6.6.8 1.4 3.1 2.1-.6 3.1-1.4.8-.7 2.3-3.5 2.8-.4-.8-1.3-.5-1.5-1.6-.2-.4-.3-.8-.5-1.2-1.7-2 .9-2.7 1.2-4-3.1-.8-2.5 2.9-6.9 3.4.2-4.7-6-6.2-7-8.7-1.3.5.2 1.9-.9 2.5-.1-.2-.2-.4-.2-.6-.1-.2-.2-.4-.2-.6-.2-.4-.3-.8-.5-1.2l2.4-.9c-3.8-.6-1.6-4-2.7-6.8 1-.4 1.4.4 2.6-.3.7-.1 1.6-.6 1.8 0 .9-2.1.1-4.7-1.1-7.5-1 1.5-1.4 3.2-1.7 5-2.5.5.2-1.6-1-2.5-1 .4-.8 1.2-2.1 1.5-2.2-3.4 5.3-3.9 1.5-7.8-1.1-2.9.6-5.9-2.1-7.8-1.7 1.7-2.8 3.5-4.3 5.3.8 1.1 3.3-.7 3.3 1.6.7 2 3.2.8 3.3 3.7-1.4 1.4-4 2.4-3.8 4.3-1 .4-.8 1.2-2.1 1.5-4.1.2.8-3.9-1.6-6.5-1 .6-1.2 1.5-2.9 1.8-.4-.8-.2-1.5.1-2.2-1-1.6 2.7-1.7 2.4-3.1-2.1-.2.4-1.9-1.5-1.6-1 .8-1.6 1.7-2.7 2.5-1.4-1.9 2.9-2 1.2-4l-2.4.9c-1.5-2.9 4.3-3.4 4.1-5.9-3.1 1.5-2.4-3.5-3.8-5 .6-.4 1.6-.6 1.3-1.2 1.9-1.4 2.6-3.2 4.6-4.6-.9-1.3-4.4 1.1-4.7 1.8-.9-1.4.9-1.9-.4-3.4-.4.7-3.3 3.1-3.4.6.1-2 3.4.1 2.7-2.5-3.5 2-.3-2.3-2.3-1.3-1.5 1.2-.8 3-3 4-.2-.6-.9-.5-1.3-.9l2.4-.9c-1-1.8-4.1 0-5.2-1.6-.1-.2-.2-.4-.2-.6 1.2-1.5 4.3-2.3 5.8-3.7.4.4.5 1.2 1.3.9.4 1.4 2.9-.8 4.2-.9-.2-.8-.8-1.7.1-2.2 3.1-2.2 4.1-1.8 6.3-.3 1.3-2.3-2.5-1.8-4.4-1.9-.2-.7-1.5-.5-.5-1.2 2.8 2.1 2.3-2.6 5.8-1.5 1.3.2 2.8.1 3.9.6 2.1-2.1-.6-7-4-5.6.9 1.5.8 2.8-1.4 3.4-2.8 1.9-3.7-1.1-5 1.2-1.3-.6-2.9-.6-3.6-2.2.3-.7 3.9-3.1.6-3.1-.9 4.2-1.4-.9-3.7 2.2 1-4-3.5-4.2-5.3-6.6.8-.5 1-1.2 1.1-1.9.3-.1.5-.2.8-.3 1.9-1.3 5.1.2 5.5-2.1-1.1-3.8-4.7-7.3-8.3-9.7-.8-.8-1.8-1.1-2.5-1.9 3.8.1.6-4.8 1.3-8.4.5-.8 1.5-1.4 2.9-1.8.3 1.6-2.3 2.2-1.2 4 .8 0 1.6 0 2.1.6.9.9 1.4 2.4 2.8 2.5.8-1.2-.1-3.4-1.4-3.7.6-.4 1.6-.6 1.3-1.2 1.2-.7 1.6.1 2.6-.3 1.1 1.8-1.9 2.3-.1 4.3.3 3.6 7.9 4.7 7.5 2.8-1.1-1.7-2.9-6.2-5.2-8.7.9-.5 1.5-.4 1.8 0 .8 3.4 4 2.9 5.6 5 2-2.1-2.1-2.6-1.9-5-.1-.2-.2-.4-.2-.6 1.3-2.7 2.5-1.5 5-1.2l2.4-.9c.5 1.6-.8 2.5 1.8 2.2 2.3.6-4.6 5.2-.2 6.5.3-.1.5-.2.8-.3.3-.1.5-.2.8-.3.9.5 1.7 1.3 2 2.8.5-.7 1.8-1.8 2.4-.9 2.7-1.3-3.4-.6-.7-1.9.9-.4 1.8-.9 1.1-1.9 2.6-.7 2.7-2.1 4.3-3.1.3-.1.5-.2.8-.3 2.7.9 1.5 3.7 1.1 5.3 2.6-.5 1.9-2 4.5-2.5.3-.1.5-.2.8-.3 2 4.5 4.2 6.8 6.8 8.1 0 1.8.3 3.7-2.7 4.6l-2.4.9c.6 1-1 4 1.4 3.7 2.5-3.5 3.6-.1 8.9-2.7.9 3-3.4 4.4-2.6 7.4-2.1 1.4-4-2.7-4.7-.3-1.5 1.6-1.4 3.3-.5 5.2zm-5.2 52.1c1-.6-.4-1.1-1.3-.9-.2-.6.8-.9 1.3-1.2-.4-.7-1.6 0-2.6.3-.1-3.3 1.6-5.1-.8-6.8-3 .7-3.5 2.2-5 3.4.3 1.5 2.6-.2 3.1.9 1.3 1.7-1.7 2-.4 3.7.9-.5 1.5-.4 1.8 0 0 .6-.6.9-.3 1.6-.5.6-1 1.1-2.1 1.5.3 1.2 1.5.9 1.8 2.2 1.6-1.2 1.1-2.9 2-4.3.9-.6 2-1.1 2.5-.4zm-5-52.5c-.9.8-1 1.9-.6 3.1.9.2 2 0 3.4-.6-.1-2.3-2-1.5-2.8-2.5zm-3.4-6.6c2.1-1.4-1.2-1.8-1.2-3.1-1 .6-.8 1.6-1.9 2.2.1.2.2.4.2.6-.9 1.2.1 2.9-2.2 3.7.6 2.4 3.8.4 4.1 3.4 1.1-.4 2.1-.8 3.2-1.2-1-1.7-4-.2-5.2-1.6-.3-1.2 2.5-1.4 2.7-2.5.1-1.1-3.7-.3-1.5-1.6.8-.3 1.4-.3 1.8.1zm1.7 20.9c-1.1-1.3-4.1 1.2-2.7 2.5l2.4-.9c.9 1.9 4.8-.3 3.7-2.2l-2.4.9c-1.3.7-1.8 0-1-.3zm9.3 19.3c.7 1.5-.5 2.4-1.4 3.4 2 1.6 1.8-1.9 2.7-2.5-.2-.4-.3-.8-.5-1.2-1.2-3.1 1.3-5.1-.5-8.4-2.4 1.3-1.9 3.5-4.6 4.6.8 1.1 2.3.9 2.8 2.5-1.9.8.6 2.1 1.5 1.6zm-24.5-51.4c1.4 3.2 4.2 3.2 3.7 7.2l3.9-1.5c-2.2-2.5-3.7-6-7.6-5.7zm13 26.5l-2.4.9c.3.8.6 1.7 1 2.5 1.1-.5 2.2-1 2.6-.3 1.7-2.2-2.5-.3-1.2-3.1zm14.5 30.2c-2.8-.6-5.6 6-1.2 6.2 1.7-1.7-.2-4.5 1.2-6.2zm-4.9-1c-1.8-1.4-2.3 2.2-4.5 2.5.6.4 1.1.8 2.1.6.7 1.7-.8 1.8 1 2.5 2-.3 4-4.6.6-3.1-.5-1.1-.1-1.8.8-2.5zm3.1 17.4l2.4-.9c-.3-.8-.6-1.7-1-2.5-1 1-2.2 1.9-1.4 3.4zm-9.4-26.4c-.1-1.5-5.6-.4-3.9 1.5.6.7 1.8.4 2.3 1.3-1.4.5-1.4 1.4-2.9 1.8.1 1.9-2.4 2.9-1.7 5 1.1-.5 2.2-1 2.6-.3.6-.6.5-2.2 1.3-1.2.9-.5.2-1.4.1-2.2 1-.6.8-1.6 1.9-2.2.9-1 2.9-1.7 1.4-3.4-.4.4-2.4 2.7-3.2 1.2.5-.6 1-1.1 2.1-1.5zm-17.4-7.6c-1.3 1.6 3.8 1.1 4.6 2.5 3-2-1-1.7-2-2.8 2.5-1.6 3.4-.3 5.8-1.5-1.1-1-5-2.4-6.3.3-.8.2-.6 3.3-2.1 1.5zm4.2 6.3c2.1-.6-.3-2.7 2.4-3.1-1.9 0-4.4.9-5 1.2-2.6 1.4.4 2.9 2.6 1.9zm-13.2-29.3c3 1.5 8.1-.7 10.6 1.6 1.9-1.4-1.7-1.9-2-2.8-.7 1.2-2.6 2-3.4.6-.1-.9 1.8-1.3 2.9-1.8-.3-1.2-1.5-.9-1.8-2.2 1.8.4 2.9 2 4.6 2.5 1.3-1.3-1-5.2-2.2-5.6-3.6 1.6-1.5 3.4-5.8 3.7-1.6 1.1-1.2 2.9-2.9 4zm19.9 30.2c.1-2.5-6.5.4-3.7 2.2 2.5-.4 1.7-1.7 3.7-2.2z"/><g fill-rule="evenodd" clip-rule="evenodd"><path fill="#E88948" d="M539.6 281.6c-.4.3-1.5.1-1.8 1.9-.3 1.7.2 3.9.5 5.7.3 1.8 2.3 2.2 3.3 2.6 1 .4 1.2.1 2.1-.1 1.7-.4 1.6-1.9 1.7-4.1 0-3.2 1.4-6.5-.4-6.1-1.8.3-2.6-1.4-3.6-.8l-1.8.9z"/><path fill="#F9A460" d="M539.2 281.6c-.6-.9-1.6 1.4-1.9 2.8-.2 1.4 0 3.1.1 4.6.1 1.5 1.1 1.7 1.7 2 .5.3 1.9 1.1 2.4.9.9-.4 1.2-1.1 1.4-3.7.1-2.6-.8-3.2-.8-4.7s-.9-3-1.4-2.5c-.8.4-1.5.6-1.5.6z"/></g><g><path fill="#EF4241" d="M515.2 330.5c-.7.5-1.3 1.1-1.9 1.8l-.3.3.5.5c.5-.9 1-1.8 1.7-2.6zM546.4 364.8l.3-.3c.6-.6 1.2-1.3 1.7-2-.8.7-1.6 1.3-2.5 1.8l.5.5z"/><path fill="#EF4241" d="M514.6 334.2l.3-.3c8-8.3 21.2-8.5 29.5-.5s8.5 21.2.5 29.5l-.3.3 1.2 1.1c.9-.5 1.7-1.1 2.5-1.8 7.1-9.2 6.3-22.6-2.3-30.9-8.6-8.3-21.9-8.6-30.9-1.2-.6.8-1.2 1.7-1.7 2.6l1.2 1.2z"/><path fill="#F26B6C" d="M525.1 330.8c1.8 8.9 4.3 17.4 4.3 17.4l-.3-.1 3.7 3.5-.2-.7s6.7.4 15.5 1.7c-1 4-2.9 7-5 9l1.6 1.5.3-.3c8-8.3 7.8-21.5-.5-29.5s-21.5-7.8-29.5.5l-.3.3 1.9 1.8c1.9-2.1 4.7-4.1 8.5-5.1zm23.1 20.2l-16.1-2.3 12-12.5c5.4 6.4 4.1 14.8 4.1 14.8zm-5.5-15.8l-11.9 12.6-3.6-18.2s8.7-1 15.5 5.6z"/><path fill="#F05B5A" d="M542.7 335.2c-6.8-6.6-15.5-5.6-15.5-5.6l3.6 18.2 11.9-12.6zM548.2 351s1.3-8.4-4.1-14.8l-12 12.5 16.1 2.3zM525.1 330.8c-3.8 1-6.5 3.1-8.6 5.2l12.6 12.1.3.1s-2.5-8.5-4.3-17.4zM548.1 352.7c-8.8-1.3-15.5-1.7-15.5-1.7l.2.7 10.4 10c2-2.1 4-5 4.9-9z"/></g><g><path fill="#EF4241" d="M511.3 320c.3.8.7 1.6 1.1 2.4.1.1.1.3.2.4l.6-.3c-.7-.8-1.4-1.7-1.9-2.5zM553.7 301.2c-.1-.1-.1-.3-.2-.4-.4-.8-.8-1.5-1.3-2.2.4 1 .7 2 .9 2.9l.6-.3z"/><path fill="#EF4241" d="M514.6 321.7c-.1-.1-.2-.3-.2-.4-5.3-10.2-1.4-22.9 8.8-28.2 10.2-5.3 22.9-1.4 28.2 8.8.1.1.1.3.2.4l1.5-.8c-.2-1-.5-2-.9-2.9-6.5-9.7-19.4-13.1-30-7.6-10.6 5.5-15.1 18.1-10.9 29 .6.9 1.2 1.7 1.9 2.4l1.4-.7z"/><path fill="#F26B6C" d="M514.6 310.7c9 1.1 17.9 1.4 17.9 1.4l-.2.3 4.5-2.4-.8-.1s2.5-6.2 6.6-14.2c3.5 2.2 5.7 5 7 7.6l2-1c-.1-.1-.1-.3-.2-.4-5.3-10.2-18-14.2-28.2-8.8-10.2 5.3-14.2 18-8.8 28.2.1.1.1.3.2.4l2.3-1.2c-1.4-2.7-2.5-5.9-2.3-9.8zm26.5-15.6l-7.2 14.5-8-15.3c7.7-3.1 15.2.8 15.2.8zm-16.7.2l8.2 15.2-18.4-2.3c0 .1 1.8-8.5 10.2-12.9z"/><path fill="#F05B5A" d="M524.4 295.3c-8.4 4.4-10.2 12.9-10.2 12.9l18.4 2.3-8.2-15.2zM541.1 295.1s-7.6-3.9-15.3-.8l8 15.3 7.3-14.5zM514.6 310.7c-.2 3.9.8 7.2 2.3 9.8l15.5-8.1.2-.3c-.1 0-9-.3-18-1.4zM542.7 295.7c-4.1 7.9-6.6 14.2-6.6 14.2l.8.1 12.8-6.7c-1.3-2.6-3.5-5.4-7-7.6z"/></g><g><path fill="#EF4241" d="M554.7 343.5c.3.8.7 1.6 1.1 2.4.1.1.1.3.2.4l.6-.3c-.7-.8-1.3-1.6-1.9-2.5zM597.2 324.8c-.1-.1-.1-.3-.2-.4-.4-.8-.8-1.5-1.3-2.2.4 1 .7 2 .9 2.9l.6-.3zM558.1 345.2c-.1-.1-.2-.3-.2-.4-5.3-10.2-1.4-22.9 8.8-28.2 10.2-5.3 22.9-1.4 28.2 8.8.1.1.1.3.2.4l1.5-.8c-.2-1-.5-2-.9-2.9-6.5-9.7-19.4-13.1-30-7.6-10.6 5.5-15.1 18.1-10.9 29 .6.9 1.2 1.7 1.9 2.4l1.4-.7z"/><path fill="#F26B6C" d="M558.1 334.2c9 1.1 17.9 1.4 17.9 1.4l-.2.3 4.5-2.4-.8-.1s2.5-6.2 6.6-14.2c3.5 2.2 5.7 5 7 7.6l2-1c-.1-.1-.1-.3-.2-.4-5.3-10.2-18-14.2-28.2-8.8-10.2 5.3-14.2 18-8.8 28.2.1.1.1.3.2.4l2.3-1.2c-1.5-2.6-2.5-5.9-2.3-9.8zm26.5-15.6l-7.2 14.6-8-15.3c7.6-3.2 15.2.7 15.2.7zm-16.7.3l8.2 15.2-18.4-2.3s1.8-8.5 10.2-12.9z"/><path fill="#F05B5A" d="M567.9 318.9c-8.4 4.4-10.2 12.9-10.2 12.9l18.4 2.3-8.2-15.2zM584.6 318.6s-7.6-3.9-15.3-.8l8 15.3 7.3-14.5zM558.1 334.2c-.2 3.9.8 7.2 2.3 9.8l15.5-8.1.2-.3c-.1 0-9-.3-18-1.4zM586.2 319.3c-4.1 7.9-6.6 14.2-6.6 14.2l.8.1 12.8-6.7c-1.4-2.7-3.5-5.5-7-7.6z"/></g><g fill-rule="evenodd" clip-rule="evenodd"><path fill="#EEBD31" d="M538.1 311.2c-.6.5-2.3.2-2.7 2.8-.5 2.6.3 5.8.7 8.6.4 2.8 3.5 3.3 4.9 3.9 1.5.6 1.8.1 3.1-.2 2.6-.7 2.5-2.8 2.5-6.1 0-4.8 2.1-9.7-.6-9.2s-3.9-2.1-5.5-1.2c-1.5.8-2.4 1.4-2.4 1.4z"/><path fill="#F4D164" d="M537.5 311.1c-.9-1.3-2.5 2.1-2.8 4.2-.3 2.1 0 4.6.1 6.8s1.7 2.5 2.5 3c.8.4 2.9 1.6 3.6 1.3 1.4-.6 1.9-1.7 2-5.6.2-3.9-1.2-4.8-1.2-7s-1.3-4.5-2.1-3.8c-1 .8-2.1 1.1-2.1 1.1z"/></g><g fill-rule="evenodd" clip-rule="evenodd"><path fill="#E88948" d="M577.3 300.7c-.4.3-1.5.1-1.8 1.9-.3 1.7.2 3.9.5 5.7.3 1.8 2.3 2.2 3.3 2.6 1 .4 1.2.1 2.1-.1 1.7-.4 1.6-1.9 1.7-4.1 0-3.2 1.4-6.5-.4-6.1-1.8.3-2.6-1.4-3.6-.8-1.2.5-1.8.9-1.8.9z"/><path fill="#F9A460" d="M576.9 300.7c-.6-.9-1.6 1.4-1.9 2.8-.2 1.4 0 3.1.1 4.6.1 1.5 1.1 1.7 1.7 2 .5.3 1.9 1.1 2.4.9.9-.4 1.2-1.1 1.4-3.7.1-2.6-.8-3.2-.8-4.7s-.9-3-1.4-2.5c-.8.4-1.5.6-1.5.6z"/></g><g fill-rule="evenodd" clip-rule="evenodd"><path fill="#E88948" d="M582.1 350.5c-.5.4-1.9.1-2.2 2.3-.4 2.2.3 4.8.6 7 .4 2.3 2.8 2.7 4.1 3.2 1.2.5 1.5.1 2.6-.2 2.1-.5 2-2.3 2-5 0-4 1.7-7.9-.5-7.5-2.2.4-3.2-1.7-4.5-1l-2.1 1.2z"/><path fill="#F9A460" d="M581.6 350.5c-.7-1.1-2 1.7-2.3 3.4-.3 1.7 0 3.8.1 5.6.1 1.8 1.4 2.1 2 2.4.6.3 2.4 1.3 2.9 1.1 1.1-.5 1.5-1.4 1.7-4.6.1-3.2-1-3.9-1-5.7 0-1.8-1.1-3.7-1.8-3.1-.6.7-1.6.9-1.6.9z"/></g><path fill-rule="evenodd" clip-rule="evenodd" fill="#6A9D41" d="M575.1 310.1c2.6-.5 2.6-1.8 4.5-2.5 2.6-2.4 5.3-1 5.9 1.3-.3.1-.5.2-.8.3-2.2 1.7-2.3-.2-3.6 0-.7 2-1 7.4-4.3 5.3-1.2 2 1.5 1.7.4 3.4.1.2.2.4.2.6 4.1-1.9.6 2.7 4.7.3.1.2.2.4.2.6-3 3.5.7 4.8 5.1 3.8-.5-.8-1.7-.5-2.3-1.3 2.3.3 4.9-.1 6.2 1.9.4 1.4-3.2 1.6-4.5 2.5-.3.1-.5.2-.8.3-1.7-1.9-3.6 3.3-6.3.3 1.7 1.6-.7 2-.6 3.1.4.6 1.3.6 2.1.6.6-.4.8 0 1 .3 0 1.3 2.4 3.3.7 4-.4-.7-.5-1.8-1.5-1.6 1.1 1.8-1.9 2.3-.1 4.3 1.4 2 5.1.3 5.9 3.5-2.3 1.9-4.6 2.7-5 1.2.1.9-.7 1.6.2 2.8 2.6-3.2.3 3 2.6-.3 2.1 1.7-2.5 1.4-1.6 2.8 1.1-.2 1.9.3 3.4-.6 1.1 1.8-1.9 2.3-.1 4.3 1-.4.8-1.2 2.1-1.5 1.2 2.5 0 2.9-2.4 3.1 1.4 2.2-1 3.3-.7 5.3-4.1 3.1-3.7 7.2-1.6 9.9.8 1.1 2.7.3 2.8 2.5-1.9 1.7-3.3-2.5-3.6 0 3.1.5 2.9 2.1 4.3 4.1-2.8.3-2 1-4.2.9.5.8 1.7.5 2.3 1.3-1.4.6-2.5.8-3.4.6-.1-.2-.2-.4-.2-.6 1.6-1.6-2.2-1.3-.2-2.8.1.3.9.5.8-.3-1.6-.5-3.5 1.7-3.2 3.4-.5.2-1.1.4-1.6.6-1-1.4-2.6 3.6-1.8 0-.1-.2-.2-.4-.2-.6.3-1.4 1.6-2.4.1-4.3-1.8.9-3.1 1.1-4.2.9-1.1-2.7-3.4-3.2-4.2-6.2-1.4 2.5-2-.1-4.2.9 1.9 2.2-.7 3.1.1 5 2.2-.7 3.1.9 4.4 1.9 1.1-.4 2.1-.8 3.2-1.2 1.6 2.2 3.1-.3 4.7.3-.5.2-.9.5-.5.9.4-.2 1.1.2.2.6-.8-1-.7.6-1.3 1.2-.5.2-1.1.4-1.6.6.8 1.4 3.1 2.1-.6 3.1-1.4.8-.7 2.3-3.5 2.8-.4-.8-1.3-.5-1.5-1.6-.2-.4-.3-.8-.5-1.2-1.7-2 .9-2.7 1.2-4-3.1-.8-2.5 2.9-6.9 3.4.2-4.7-6-6.2-7-8.7-1.3.5.2 1.9-.9 2.5-.1-.2-.2-.4-.2-.6-.1-.2-.2-.4-.2-.6-.2-.4-.3-.8-.5-1.2l2.4-.9c-3.8-.6-1.6-4-2.7-6.8 1-.4 1.4.4 2.6-.3.7-.1 1.6-.6 1.8 0 .9-2.1.1-4.7-1.1-7.5-1 1.5-1.4 3.2-1.7 5-2.5.5.2-1.6-1-2.5-1 .4-.8 1.2-2.1 1.5-2.2-3.4 5.3-3.9 1.5-7.8-1.1-2.9.6-5.9-2.1-7.8-1.7 1.7-2.8 3.5-4.3 5.3.8 1.1 3.3-.7 3.3 1.6.7 2 3.2.8 3.3 3.7-1.4 1.4-4 2.4-3.8 4.3-1 .4-.8 1.2-2.1 1.5-4.1.2.8-3.9-1.6-6.5-1 .6-1.2 1.5-2.9 1.8-.4-.8-.2-1.5.1-2.2-1-1.6 2.7-1.7 2.4-3.1-2.1-.2.4-1.9-1.5-1.6-1 .8-1.6 1.7-2.7 2.5-1.4-1.9 2.9-2 1.2-4l-2.4.9c-1.5-2.9 4.3-3.4 4.1-5.9-3.1 1.5-2.4-3.5-3.8-5 .6-.4 1.6-.6 1.3-1.2 1.9-1.4 2.6-3.2 4.6-4.6-.9-1.3-4.4 1.1-4.7 1.8-.9-1.4.9-1.9-.4-3.4-.4.7-3.3 3.1-3.4.6.1-2 3.4.1 2.7-2.5-3.5 2-.3-2.3-2.3-1.3-1.5 1.2-.8 3-3 4-.2-.6-.9-.5-1.3-.9l2.4-.9c-1-1.8-4.1 0-5.2-1.6-.1-.2-.2-.4-.2-.6 1.2-1.5 4.3-2.3 5.8-3.7.4.4.5 1.2 1.3.9.4 1.4 2.9-.8 4.2-.9-.2-.8-.8-1.7.1-2.2 3.1-2.2 4.1-1.8 6.3-.3 1.3-2.3-2.5-1.8-4.4-1.9-.2-.7-1.5-.5-.5-1.2 2.8 2.1 2.3-2.6 5.8-1.5 1.3.2 2.8.1 3.9.6 2.1-2.1-.5-7-4-5.6.9 1.5.8 2.8-1.4 3.4-2.8 1.9-3.7-1.1-5 1.2-1.3-.6-2.9-.6-3.6-2.2.3-.7 3.9-3.1.6-3.1-.9 4.2-1.4-.9-3.7 2.2 1-4-3.5-4.2-5.3-6.6.8-.5 1-1.2 1.1-1.9.3-.1.5-.2.8-.3 1.9-1.3 5.1.2 5.5-2.1-1.1-3.8-4.7-7.3-8.3-9.7-.8-.8-1.8-1.1-2.5-1.9 3.8.1.6-4.8 1.3-8.4.5-.8 1.5-1.4 2.9-1.8.3 1.6-2.3 2.2-1.2 4 .8 0 1.6 0 2.1.6.9.9 1.4 2.4 2.8 2.5.8-1.2-.1-3.4-1.4-3.7.6-.4 1.6-.6 1.3-1.2 1.2-.7 1.6.1 2.6-.3 1.1 1.8-1.9 2.3-.1 4.3.3 3.6 7.9 4.7 7.5 2.8-1.1-1.7-2.9-6.2-5.2-8.7.9-.5 1.5-.4 1.8 0 .8 3.4 4 2.9 5.6 5 2-2.1-2.1-2.6-1.9-5-.1-.2-.2-.4-.2-.6 1.3-2.7 2.5-1.5 5-1.2l2.4-.9c.5 1.6-.8 2.5 1.8 2.2 2.3.6-4.6 5.2-.2 6.5.3-.1.5-.2.8-.3.3-.1.5-.2.8-.3.9.5 1.7 1.3 2 2.8.5-.7 1.8-1.8 2.4-.9 2.7-1.3-3.4-.6-.7-1.9.9-.4 1.8-.9 1.1-1.9 2.6-.7 2.7-2.1 4.3-3.1.3-.1.5-.2.8-.3 2.7.9 1.5 3.7 1.1 5.3 2.6-.5 1.9-2 4.5-2.5.3-.1.5-.2.8-.3 2 4.5 4.2 6.8 6.8 8.1 0 1.8.3 3.7-2.7 4.6l-2.4.9c.6 1-1 4 1.4 3.7 2.5-3.5 3.6-.1 8.9-2.7.9 3-3.4 4.4-2.6 7.4-2.1 1.4-4-2.7-4.7-.3-1.5 1.6-1.3 3.3-.5 5.2zm-5.2 52.2c1-.6-.4-1.1-1.3-.9-.2-.6.8-.9 1.3-1.2-.4-.7-1.6 0-2.6.3-.1-3.3 1.6-5.1-.8-6.8-3 .7-3.5 2.2-5 3.4.3 1.5 2.6-.2 3.1.9 1.3 1.7-1.7 2-.4 3.7.9-.5 1.5-.4 1.8 0 0 .6-.6.9-.3 1.6-.5.6-1 1.1-2.1 1.5.3 1.2 1.5.9 1.8 2.2 1.6-1.2 1.1-2.9 2-4.3 1-.6 2.1-1.1 2.5-.4zm-4.9-52.5c-.9.8-1 1.9-.6 3.1.9.2 2 0 3.4-.6-.1-2.3-2-1.5-2.8-2.5zm-3.5-6.6c2.1-1.4-1.2-1.8-1.2-3.1-1 .6-.8 1.6-1.9 2.2.1.2.2.4.2.6-.9 1.2.1 2.9-2.2 3.7.6 2.4 3.8.4 4.1 3.4 1.1-.4 2.1-.8 3.2-1.2-1-1.7-4-.2-5.2-1.6-.3-1.2 2.5-1.4 2.7-2.5.1-1.1-3.7-.3-1.5-1.6.9-.3 1.5-.3 1.8.1zm1.7 20.8c-1.1-1.3-4.1 1.2-2.7 2.5l2.4-.9c.9 1.9 4.8-.3 3.7-2.2l-2.4.9c-1.3.8-1.8.1-1-.3zm9.3 19.4c.7 1.5-.5 2.4-1.4 3.4 2 1.6 1.8-1.9 2.7-2.5-.2-.4-.3-.8-.5-1.2-1.2-3.1 1.3-5.1-.5-8.4-2.4 1.3-1.9 3.5-4.6 4.6.8 1.1 2.3.9 2.8 2.5-1.9.8.7 2.1 1.5 1.6zM548.1 292c1.4 3.2 4.2 3.2 3.7 7.2l3.9-1.5c-2.2-2.5-3.8-6.1-7.6-5.7zm13 26.4l-2.4.9c.3.8.6 1.7 1 2.5 1.1-.5 2.2-1 2.6-.3 1.6-2.1-2.6-.2-1.2-3.1zm14.4 30.3c-2.8-.6-5.6 6-1.2 6.2 1.8-1.7-.2-4.5 1.2-6.2zm-4.9-1c-1.8-1.4-2.3 2.2-4.5 2.5.6.4 1.1.8 2.1.6.7 1.7-.8 1.8 1 2.5 2-.3 4-4.6.6-3.1-.5-1.1-.1-1.9.8-2.5zm3.1 17.4l2.4-.9c-.3-.8-.6-1.7-1-2.5-.9 1-2.1 1.9-1.4 3.4zm-9.3-26.4c-.1-1.5-5.6-.4-3.9 1.5.6.7 1.8.4 2.3 1.3-1.4.5-1.4 1.4-2.9 1.8.1 1.9-2.4 2.9-1.7 5 1.1-.5 2.2-1 2.6-.3.6-.6.5-2.2 1.3-1.2.9-.5.2-1.4.1-2.2 1-.6.8-1.6 1.9-2.2.9-1 2.9-1.7 1.4-3.4-.4.4-2.4 2.7-3.2 1.2.4-.6 1-1.2 2.1-1.5zm-17.5-7.6c-1.3 1.6 3.8 1.1 4.6 2.5 3-2-1-1.7-2-2.8 2.5-1.6 3.4-.3 5.8-1.5-1.1-1-5-2.4-6.3.3-.8.2-.5 3.3-2.1 1.5zm4.2 6.2c2.1-.6-.3-2.7 2.4-3.1-1.9 0-4.4.9-5 1.2-2.5 1.5.4 2.9 2.6 1.9zM538 308.1c3 1.5 8.1-.7 10.6 1.6 1.9-1.4-1.7-1.9-2-2.8-.7 1.2-2.6 2-3.4.6-.1-.9 1.8-1.3 2.9-1.8-.3-1.2-1.5-.9-1.8-2.2 1.8.4 2.9 2 4.6 2.5 1.3-1.3-1-5.2-2.2-5.6-3.6 1.6-1.5 3.4-5.8 3.7-1.6 1.1-1.3 2.8-2.9 4zm19.9 30.2c.1-2.5-6.5.4-3.7 2.2 2.4-.4 1.7-1.7 3.7-2.2z"/><g fill-rule="evenodd" clip-rule="evenodd"><path fill="#E88948" d="M543.5 336.9c-.6-.8-2.5-.8-2.3-4 .2-3.1 2-6.6 3.3-9.7 1.3-3.1 4.9-2.8 6.8-3.1 1.9-.2 2.1.4 3.5 1.1 2.8 1.5 2 3.9 1.1 7.7-1.4 5.6-.4 11.7-3.3 10.4-3-1.3-5.1 1.3-6.6-.1-1.6-1.4-2.5-2.3-2.5-2.3z"/><path fill="#F9A460" d="M542.8 336.7c-1.4 1.2-2.3-3.1-2-5.6.2-2.5 1.3-5.4 2.1-7.9s2.7-2.4 3.7-2.7c1-.2 3.8-1.1 4.5-.5 1.4 1.1 1.7 2.5.8 7-.9 4.5-2.7 5.2-3.4 7.7-.7 2.5-2.8 4.9-3.6 3.8-.8-1.1-2.1-1.8-2.1-1.8z"/></g><g fill-rule="evenodd" clip-rule="evenodd"><path fill="#EEBD31" d="M541 371.4c-.4-.5-1.6-.5-1.5-2.4.1-2 1.2-4.1 1.9-6 .8-1.9 3-1.8 4.2-2 1.2-.2 1.3.2 2.2.6 1.8.9 1.3 2.4.8 4.8-.8 3.5-.1 7.3-1.9 6.5-1.9-.8-3.1.9-4.1 0-1.1-.9-1.6-1.5-1.6-1.5z"/><path fill="#F4D164" d="M540.5 371.3c-.8.8-1.4-1.9-1.3-3.5.1-1.6.7-3.3 1.2-4.9.5-1.6 1.6-1.6 2.3-1.7.6-.2 2.3-.7 2.8-.4.9.7 1.1 1.5.6 4.3-.5 2.8-1.6 3.2-2 4.8-.4 1.6-1.7 3.1-2.2 2.4-.6-.6-1.4-1-1.4-1z"/></g><g fill-rule="evenodd" clip-rule="evenodd"><path fill="#EAAD21" d="M555.8 290.4c-.4-.4-1.5-.5-1.4-2.3.1-1.9 1.1-3.9 1.8-5.8.7-1.8 2.9-1.7 4-1.9 1.1-.2 1.3.2 2.1.6 1.7.8 1.3 2.3.8 4.6-.7 3.3-.1 6.9-1.8 6.2-1.8-.8-3 .8-3.9 0-1-.9-1.6-1.4-1.6-1.4z"/><path fill="#FCCB3E" d="M555.4 290.3c-.8.7-1.4-1.8-1.3-3.3.1-1.5.7-3.2 1.1-4.7.4-1.5 1.6-1.5 2.2-1.6.6-.2 2.2-.7 2.6-.4.9.6 1 1.4.5 4.1-.5 2.7-1.5 3.1-1.9 4.6-.4 1.5-1.6 2.9-2.1 2.3-.3-.6-1.1-1-1.1-1z"/></g><g fill-rule="evenodd" clip-rule="evenodd"><path fill="#EAAD21" d="M499.5 313.7c-.6.5-2.3.2-2.7 2.8-.5 2.6.3 5.8.8 8.6.4 2.8 3.5 3.3 4.9 3.9 1.5.6 1.8.1 3.1-.2 2.6-.7 2.5-2.8 2.5-6.1 0-4.8 2.1-9.7-.6-9.2s-3.9-2.1-5.5-1.2c-1.5.8-2.5 1.4-2.5 1.4z"/><path fill="#FCCB3E" d="M499 313.7c-.9-1.3-2.5 2.1-2.8 4.2-.3 2.1 0 4.6.1 6.8s1.7 2.5 2.5 3c.8.4 2.9 1.6 3.6 1.3 1.4-.6 1.9-1.7 2-5.6.2-3.9-1.2-4.8-1.2-7s-1.3-4.5-2.1-3.8c-1 .8-2.1 1.1-2.1 1.1z"/></g><g fill-rule="evenodd" clip-rule="evenodd"><path fill="#EAAD21" d="M531.3 371.7c-.3.3-1.1.1-1.4 1.4-.2 1.3.2 3 .4 4.4.2 1.4 1.8 1.7 2.5 2 .8.3.9.1 1.6-.1 1.3-.3 1.3-1.4 1.3-3.1 0-2.5 1.1-4.9-.3-4.7-1.4.3-2-1.1-2.8-.6-.8.4-1.3.7-1.3.7z"/><path fill="#FCCB3E" d="M531 371.7c-.4-.7-1.3 1.1-1.4 2.1-.2 1.1 0 2.4.1 3.5s.9 1.3 1.3 1.5c.4.2 1.5.8 1.8.7.7-.3.9-.9 1-2.8.1-2-.6-2.4-.6-3.6 0-1.1-.7-2.3-1.1-1.9-.5.3-1.1.5-1.1.5z"/></g></g></g><g><path fill="#E1AF93" d="M367.1 253.6l.1-1c1.8-8.5 10.5-13 18.5-11.1l86.4 20.9c12.7 3.7 12.4 10.9 10.6 19.5l-.1.3c-3 9.5-14.7 9.9-25.9 8.8-1.1-.1-2.1-.3-3.2-.5l-72.7-16.9c-8-1.9-15.5-11.4-13.7-20z"/><path fill="#EAC0A5" d="M366.6 249.6l.1-.3c2-8.5 10.2-13.7 18.4-11.4 0 0 74.7 23.8 88.3 24.1 12.6.2 12.5 11.5 10.5 20l-.1.3c-3.5 10-19.7 10.8-28.8 8.2l-77.2-21.3c-8.2-2.4-13.2-11.1-11.2-19.6z"/><path fill="#E6DED3" d="M484.6 271.7c.2-1.2.1-2.5-.3-3.7-.7-2-2.4-4.6-6.2-5.4-6.2-1.3-15.9-3.2-17-2.6s-2.5 3.7-1.5 7.7 1.6 4.9 4.6 6.2c3 1.3 14.7 2.1 15.8 1.9 1.1-.2 3.9-.4 4.6-4.1z"/></g></svg>