<?xml version="1.0" encoding="utf-8"?>
<!-- Generator: Adobe Illustrator 18.0.0, SVG Export Plug-In . SVG Version: 6.00 Build 0)  -->
<!DOCTYPE svg PUBLIC "-//W3C//DTD SVG 1.0//EN" "http://www.w3.org/TR/2001/REC-SVG-20010904/DTD/svg10.dtd">
<svg version="1.0" id="Layer_1" xmlns="http://www.w3.org/2000/svg" xmlns:xlink="http://www.w3.org/1999/xlink" x="0px" y="0px"
	 width="583.9px" height="496.9px" viewBox="0 0 583.9 496.9" enable-background="new 0 0 583.9 496.9" xml:space="preserve">
<path fill="#EAC0A5" d="M425.8,417.1l61.7-72.7L234.7,127.3L173,200.1 M178,73.6l0.1-0.3c3.2-7.9-1.8-17.3-11.1-21L55.8,7.8
	c-9.3-3.7-19.4-0.4-22.6,7.5l-0.1,0.3c-3.2,7.9,1.8,17.3,11.1,21l111.1,44.5C164.7,84.9,174.8,81.5,178,73.6L178,73.6z M164.6,103.5
	l0.1-0.3c3.2-7.9-0.5-16.8-8.2-19.8L65,46.7c-7.7-3.1-16.4,0.8-19.6,8.7l-0.1,0.3c-3.2,7.9,0.5,16.8,8.2,19.8l91.5,36.6
	C152.6,115.2,161.4,111.3,164.6,103.5z"/>
<path fill="#E1AF93" d="M105.8,115.4l0.1-0.3c4-7.5,1.2-16.8-6.2-20.7L79.2,83.9C71.8,80,62.6,83,58.7,90.5l-0.1,0.3
	c-4,7.5-1.2,16.8,6.2,20.7l20.5,10.6C92.6,125.9,101.8,123,105.8,115.4z"/>
<path fill="#E1AF93" d="M116.9,145.7l0.1-0.3c3.3-7.9-0.4-16.8-8.1-20l-21.4-8.6c-7.7-3.2-16.6,0.6-19.9,8.5l-0.1,0.3
	c-3.3,7.9,0.4,16.8,8.1,20l21.4,8.6C104.7,157.4,113.6,153.6,116.9,145.7L116.9,145.7z"/>
<path fill="#E1AF93" d="M123.8,170v-0.3c1.1-7.8-4.2-15.1-11.8-16.2l-21.2-2.9c-7.7-1.1-14.8,4.3-16,12.2v0.3
	c-1.1,7.8,4.2,15.1,11.8,16.2l21.2,2.9C115.5,183.3,122.7,177.8,123.8,170z"/>
<path fill="#EAC0A5" d="M223.7,181.8l0.9-1c10.8-12.8,17.7-23.8,24-32.2c9.8-12.9,9.2-31.4-9.1-56l-72.8-42
	c-33.4-15.2-37.9-3.2-56.8,28.8l-4.4,6.5c-21,30-14.5,56.9-13.2,66.7c0.9,6.7,3,15,3,15c1.5,4.7,5.9,17,16,20.9
	c26.5,10.3,48.5,32.6,68.1,30.7C193.9,217.7,206.7,201.8,223.7,181.8L223.7,181.8z"/>
<path fill="#EAC0A5" d="M109.3,101.5v-0.3c0.8-8.4-5.2-15.8-13.4-16.6l-22.7-2C65,81.8,57.7,88,56.9,96.3v0.3
	c-0.8,8.4,5.2,15.8,13.4,16.6l22.7,2C101.2,116,108.5,109.9,109.3,101.5z"/>
<path fill="#E9DDCC" d="M84.7,99.3v-0.2c0.5-5.7,2.8-10.2,9.6-9.6l5.9,0.5c6.9,0.6,9.2,5.5,8.7,11.2v0.2c-0.5,5.7-3.6,10.2-10.5,9.6
	l-5.9-0.5C85.7,109.8,84.2,105,84.7,99.3z"/>
<path fill="#EAC0A5" d="M119.1,134.7v-0.3c0.8-8.4-5.2-15.8-13.4-16.6l-22.7-2c-8.2-0.8-15.5,5.4-16.3,13.7v0.3
	c-0.8,8.4,5.2,15.8,13.4,16.6l22.7,2C111,149.2,118.3,143.1,119.1,134.7L119.1,134.7z"/>
<path fill="#E9DDCC" d="M95.2,132.3v-0.2c0.5-5.6,2.7-9.9,9.4-9.3l5.8,0.5c6.7,0.6,8.9,5.3,8.5,10.9v0.2c-0.5,5.6-3.5,9.9-10.2,9.3
	l-5.8-0.5C96.2,142.6,94.8,137.9,95.2,132.3z"/>
<path fill="#EAC0A5" d="M127.4,167.5v-0.3c0.8-7.8-5.4-14.8-13.6-15.6l-22.9-2c-8.3-0.8-15.6,4.9-16.4,12.7v0.3
	c-0.8,7.8,5.4,14.8,13.6,15.6l22.9,2C119.3,181,126.6,175.3,127.4,167.5z"/>
<path fill="#E9DDCC" d="M105.4,165.6v-0.2c0.4-5.1,2.4-9,8.5-8.5l5.2,0.5c6,0.5,8.1,4.8,7.7,9.9v0.2c-0.4,5.1-3.2,9-9.2,8.4
	l-5.2-0.5C106.4,174.9,105,170.6,105.4,165.6L105.4,165.6z"/>
<path fill="#125079" d="M510.3,496.1l73-87.4c0.8-0.9,0.6-2.3-0.3-3.1L281.4,151.2c-0.9-0.8-2.3-0.7-3.1,0.3l-73,87.4
	c-0.8,0.9-0.6,2.3,0.3,3.1l301.7,254.3C508.2,497.1,509.6,497,510.3,496.1L510.3,496.1z M547.1,452L243,193.8"/>
<path fill="#0C3854" d="M205.3,238.9l37.7-45.1l304.1,258.4l-36.7,44c-0.8,0.9-2.2,1.1-3.1,0.3L205.6,242
	C204.6,241.2,204.5,239.8,205.3,238.9z"/>
<g>
	<g>
		<path fill="#0078A9" d="M14.7,46.4l147-45.5c9.6-3,19.8,1.3,24.5,9.8L0,68.4C-0.9,58.7,5.1,49.4,14.7,46.4z M28.2,161.2L8.1,96.1
			l187-57.9l20.2,65.1c3.4,11.1-2.8,22.8-13.8,26.2L54.5,175C43.4,178.5,31.7,172.3,28.2,161.2z"/>
	</g>
	<path fill="#254655" d="M0,68.4l186.2-57.6c0.7,1.3,1.3,2.6,1.7,4l7.2,23.4L8.1,96.1L0.9,72.7C0.4,71.2,0.1,69.8,0,68.4z"/>
	<path fill="#FFFFFF" d="M123.6,96.9l-95.1,29.5l-6.7-21.7l95.2-29.5L123.6,96.9z"/>
	<path fill="#3EAEB5" d="M140.3,106.3c0.6-0.4,0.9-1.2,0.7-1.9c-0.3-0.9-1.2-1.4-2.1-1.1L31.6,136.4c-0.9,0.3-1.4,1.2-1.1,2.1
		c0.3,0.9,1.2,1.4,2.1,1.1l107.3-33.2C140,106.4,140.2,106.3,140.3,106.3L140.3,106.3z M143,115c0.6-0.4,0.9-1.2,0.7-1.9
		c-0.3-0.9-1.2-1.4-2.1-1.1L34.3,145.2c-0.9,0.3-1.4,1.2-1.1,2.1c0.3,0.9,1.2,1.4,2.1,1.1l107.3-33.2
		C142.7,115.2,142.9,115.1,143,115L143,115z"/>
</g>
<g>
	<path fill="#E1AF93" d="M238.1,130.7l0.9-0.3c8-3.4,10.7-12.9,7.3-20.3l-37.4-80.6c-6.1-11.7-13.2-10-21.2-6.6l-0.3,0.1
		c-8.8,4.8-6.8,16.4-3.6,27.1c0.3,1,0.7,2,1.1,3l30.8,68C219.3,128.7,230.1,134.2,238.1,130.7L238.1,130.7z"/>
	<path fill="#EAC0A5" d="M242.2,130.4l0.3-0.1c8-3.6,11.4-12.7,7.6-20.3c0,0-38-68.6-40.9-81.8c-2.7-12.3-13.7-10-21.7-6.4l-0.3,0.1
		c-9.1,5.3-6.7,21.5-2.4,29.8l36,71.5C224.7,130.9,234.2,134.1,242.2,130.4L242.2,130.4z"/>
	<path fill="#E6DED3" d="M197.4,19c1.1-0.5,2.4-0.6,3.7-0.4c2.1,0.3,5,1.4,6.6,5c2.5,5.8,6.2,14.9,5.8,16.2c-0.4,1.2-3.1,3.2-7.3,3
		c-4.1-0.2-5.1-0.6-6.9-3.3c-1.8-2.7-4.9-14-5-15.1C194.2,23.2,193.9,20.4,197.4,19L197.4,19z"/>
</g>
</svg>
