<?xml version="1.0" encoding="utf-8"?>
<!-- Generator: Adobe Illustrator 18.0.0, SVG Export Plug-In . SVG Version: 6.00 Build 0)  -->
<!DOCTYPE svg PUBLIC "-//W3C//DTD SVG 1.0//EN" "http://www.w3.org/TR/2001/REC-SVG-20010904/DTD/svg10.dtd">
<svg version="1.0" id="Layer_1" xmlns="http://www.w3.org/2000/svg" xmlns:xlink="http://www.w3.org/1999/xlink" x="0px" y="0px"
	 width="180px" height="50.1px" viewBox="0 0 180 50.1" enable-background="new 0 0 180 50.1" xml:space="preserve">
<g>
	<path fill="#9EAD3A" d="M31.3,44.1V47c0,1.4-1.2,2.6-2.6,2.6c-1.6,0-2.7-1.2-2.7-2.6v-2.8c-4.5-0.4-10-2.1-11.7-4.9
		c-0.3-0.6-0.6-1.1-0.6-1.8c0-2.1,1.7-3.7,3.7-3.7c0.8,0,1.5,0.2,2.2,0.7c1.8,1.2,3.9,2.2,6.4,2.6v-8.8c-5.8-1.5-12-3.6-12-11.2
		c0-5.7,4.5-10.5,12-11.3v-3c0-1.4,1.2-2.6,2.7-2.6c1.4,0,2.6,1.2,2.6,2.6v3.1c3.3,0.4,8.1,1.7,9.7,4.1c0.3,0.5,0.6,1.1,0.6,1.7
		c0,2.1-2,3.6-4,3.6c-0.3,0-0.7-0.1-1.1-0.2c-1.6-0.4-3.5-1.7-5.2-2.1v8c5.8,1.5,12.2,3.7,12.2,11.3C43.5,38.5,39.4,43.3,31.3,44.1z
		 M25.9,12.8c-2.5,0.3-3.9,1.7-3.9,3.6c0,1.6,1.6,2.5,3.9,3.2C25.9,19.6,25.9,12.8,25.9,12.8z M31.3,29.6v7.5
		c2.7-0.6,4.1-2.2,4.1-3.9C35.4,31.4,33.7,30.4,31.3,29.6z M75.8,35.9H74V40c0,2.1-1.8,3.9-4,3.9c-2.1,0-3.9-1.8-3.9-3.9v-4.1H52
		c-2.2,0-4.1-1.8-4.1-4.4c0-0.9,0.2-1.8,0.7-2.6L61.2,9.2c1.3-2,3.7-3.3,6.1-3.3c3.4-0.6,6.8,1,6.8,4.5v18.5h1.7
		c1.8,0,3.4,1.6,3.4,3.5S77.6,35.9,75.8,35.9z M66.1,13.3L56,28.9h10.1C66.1,28.9,66.1,13.3,66.1,13.3z M88.8,44.2
		c-2.5,0-4.5-2.1-4.5-4.5s2.1-4.5,4.5-4.5s4.5,2.1,4.5,4.5S91.3,44.2,88.8,44.2z M114.5,44.3c-4.9,0-11.2-1.6-12.9-4.5
		c-0.3-0.5-0.4-1.1-0.4-1.6c0-2.1,1.8-3.6,3.8-3.6c0.7,0,1.4,0.2,2.1,0.6c2.2,1.3,4.8,2.1,7.4,2.1c4.4,0,6.9-2.5,6.9-5.5
		c0-3.3-2.5-5.5-6.7-5.5c-2.3,0-4.3,0.4-6.3,1.8c-0.9,0.6-2,1-3.1,1c-2.5,0-4-1.6-4-3.8V10.8c0-2.5,2-4.5,4.5-4.5h18.1
		c1.8,0,3.4,1.6,3.4,3.5s-1.6,3.5-3.4,3.5h-14.6v9.1c1.8-1.8,4.8-3.1,8.2-3.1c6.3,0,12,4.5,12,12.1
		C129.5,39.3,123.5,44.3,114.5,44.3z M150.2,44.3c-10.7,0-15.5-9.7-15.5-19.3s4.8-19.3,15.5-19.3c10.6,0,15.5,9.6,15.5,19.3
		S160.8,44.3,150.2,44.3z M150.2,12.8c-5.4,0-7.4,5.3-7.4,12.2s2,12.3,7.4,12.3c5.3,0,7.3-5.4,7.3-12.3S155.5,12.8,150.2,12.8z"/>
</g>
</svg>
