<svg version="1" xmlns="http://www.w3.org/2000/svg" width="180" height="50.1" viewBox="0 0 180 50.1"><g fill="#9EAD3A"><path d="M19.2 44.1V47c0 1.4-1.2 2.6-2.6 2.6-1.6 0-2.7-1.2-2.7-2.6v-2.8c-4.5-.4-10-2.1-11.7-4.9-.3-.6-.6-1.1-.6-1.8 0-2.1 1.7-3.7 3.7-3.7.8 0 1.5.2 2.2.7 1.8 1.2 3.9 2.2 6.4 2.6v-8.8c-5.8-1.5-12-3.6-12-11.2 0-5.7 4.5-10.5 12-11.3v-3c0-1.4 1.2-2.6 2.7-2.6 1.4 0 2.6 1.2 2.6 2.6v3.1c3.3.4 8.1 1.7 9.7 4.1.3.5.6 1.1.6 1.7 0 2.1-2 3.6-4 3.6-.3 0-.7-.1-1.1-.2-1.6-.4-3.5-1.7-5.2-2.1v8c5.8 1.5 12.2 3.7 12.2 11.3.1 6.2-4 11-12.2 11.8zm-5.3-31.3c-2.5.3-3.9 1.7-3.9 3.6 0 1.6 1.6 2.5 3.9 3.2v-6.8zm5.3 16.8v7.5c2.7-.6 4.1-2.2 4.1-3.9.1-1.8-1.6-2.8-4.1-3.6zM50.1 44c-2.1 0-3.9-1.8-3.9-3.9V16.5L42 20.8c-.6.6-1.4.9-2.2.9-1.7 0-3.3-1.5-3.3-3.3 0-.8.3-1.7 1-2.4l8.6-8.7C47 6.5 48.2 6 49.5 6c2.5 0 4.6 2 4.6 4.5V40c0 2.2-1.8 4-4 4zM76.6 44.3c-10.7 0-15.5-9.7-15.5-19.3S65.9 5.7 76.6 5.7C87.2 5.7 92 15.4 92 25s-4.8 19.3-15.4 19.3zm0-31.5c-5.4 0-7.4 5.3-7.4 12.2 0 6.9 2 12.3 7.4 12.3 5.3 0 7.3-5.4 7.3-12.3s-2-12.2-7.3-12.2zM101.3 44.2c-2.5 0-4.5-2.1-4.5-4.5s2.1-4.5 4.5-4.5 4.5 2.1 4.5 4.5-2 4.5-4.5 4.5zM126.1 44.3c-10.7 0-15.5-9.7-15.5-19.3s4.8-19.3 15.5-19.3c10.6 0 15.5 9.6 15.5 19.3s-4.9 19.3-15.5 19.3zm0-31.5c-5.4 0-7.4 5.3-7.4 12.2 0 6.9 2 12.3 7.4 12.3 5.3 0 7.3-5.4 7.3-12.3s-2-12.2-7.3-12.2zM162.2 44.3c-10.7 0-15.5-9.7-15.5-19.3s4.8-19.3 15.5-19.3c10.6 0 15.5 9.6 15.5 19.3s-4.8 19.3-15.5 19.3zm0-31.5c-5.4 0-7.4 5.3-7.4 12.2 0 6.9 2 12.3 7.4 12.3 5.3 0 7.3-5.4 7.3-12.3.1-6.9-2-12.2-7.3-12.2z"/></g></svg>