<?xml version="1.0" encoding="utf-8"?>
<!-- Generator: Adobe Illustrator 18.0.0, SVG Export Plug-In . SVG Version: 6.00 Build 0)  -->
<!DOCTYPE svg PUBLIC "-//W3C//DTD SVG 1.0//EN" "http://www.w3.org/TR/2001/REC-SVG-20010904/DTD/svg10.dtd">
<svg version="1.0" id="Layer_1" xmlns="http://www.w3.org/2000/svg" xmlns:xlink="http://www.w3.org/1999/xlink" x="0px" y="0px"
	 width="746.7px" height="1132.4px" viewBox="0 0 746.7 1132.4" enable-background="new 0 0 746.7 1132.4" xml:space="preserve">
<path fill="#13517A" d="M233.1,1132.1L0,1132.6l419.7-679.5l168.2,104.4"/>
<path fill="#0C3854" d="M233.1,1132.1L98,1132.4L490.4,497l97.5,60.5"/>
<path fill="#F4C9A1" d="M488.4,440.2c-0.8,0-1.7-0.1-2.5-0.1c-0.2,0-1.8-0.3-2.5-0.4c-0.2,0-1.8-0.5-2.4-0.7c-0.1,0-1.7-0.7-2.4-1
	c-7.1-3.6-12.1-10.9-12.1-19.4l-0.7-233.1c0-17.4-14.2-31.5-31.6-31.5c-5.6,0-10.8,1.5-15.4,4.1l0.6,224.9
	c0.1,21.9,9.9,41.5,25.3,54.7l-13.9,22.4L568,545.3l27.8-44.8l2.9-2.2c10,0.9,20-3.8,25.6-12.8l28-45.4L488.4,440.2z"/>
<path fill="#EFB481" d="M461.6,184.4l0.6,211.9c0,8.5,1.3,24.6,7,32.2c0,0-0.5-0.2,0,0c-1.6-3-2.6-6.4-2.6-10.1l-0.7-233.1
	c0-11.9-6.6-22.2-16.3-27.5C453,162.8,461.6,168.4,461.6,184.4z M635.4,439.8l-142,0.4c4,4.2,9.6,6.9,15.9,6.9l130.3-1.5l-18.3,28.3
	c-5.6,9.1-23.4,15-33.3,14.2l-2.9,2.2l-27.8,44.8L431,459.9l137.2,85.2l27.8-44.8l2.9-2.2c10,0.9,20-3.8,25.6-12.8l28-45.4
	L635.4,439.8z"/>
<path fill="#F4C9A1" d="M716.2,129.2c-7.5-4.7-16.6-4.8-24.1-1.3l32.1-52c7.3-11.8,3.6-27.4-8.2-34.6c-8.4-5.2-18.7-4.8-26.6,0.1
	l0.4,178.5l34.6-56.1C731.7,152,728,136.5,716.2,129.2L716.2,129.2z"/>
<path fill="#EFB481" d="M702.1,200c-1.4-1.8-8.6-8.6-8.7-20.4c0-9.8-0.1-51.3-0.1-51.3l1.2-1.6c-1.5,0.4-1,0.4-2.4,1.1l8.7-14
	c-4.5-4.5-8.4-12.1-8.4-23.6c0-9.2-0.1-34.2-0.1-50.4c0,0-1.2,0.5-2.9,1.5l0.4,178.5l6.6-10.8L702.1,200z"/>
<g>
	<path fill="#EFB481" d="M711.8,39.9c11.8,7.3,15.5,22.8,8.2,34.6l-30.4,49.3v2c1.5-0.6,3-1.1,4.6-1.3l30-48.6
		c7.3-11.8,3.6-27.4-8.2-34.6c-2.3-1.4-4.8-2.4-7.3-3C709.7,38.7,710.8,39.3,711.8,39.9L711.8,39.9z M716.2,129.2
		c-2.3-1.4-4.8-2.4-7.3-3c1.1,0.5,2.1,1,3.2,1.6c11.8,7.3,15.5,22.8,8.2,34.6l-30.4,49.3v8.1l34.6-56.1
		C731.7,152,728,136.4,716.2,129.2L716.2,129.2z"/>
</g>
<path fill="#EFB481" d="M573.1,537l-5,8.1l-137.2-85.2c0,0,29.8,16.2,71.1,40.9S573.1,537,573.1,537L573.1,537z M690.2,360.8
	c0,0,7.1-2.3,13.6-11.8l30.1-41.8c0,0-0.9,6-2.9,9.1c-1.9,3.1-40.8,66.2-40.8,66.2L690.2,360.8L690.2,360.8z"/>
<path fill="#333333" d="M690.3,418.1c0,12-9.7,21.8-21.7,21.8l-180.2,0.4c-12,0-21.8-9.7-21.8-21.7l-1-392.3
	c0-12,9.7-21.8,21.7-21.8L667.5,4c12,0,21.8,9.7,21.8,21.7L690.3,418.1z"/>
<path fill="#020202" d="M642.2,4.1c-0.3-2.3-2.3-4.1-4.7-4.1L598,0.1c-2.4,0-4.4,1.8-4.7,4.1L642.2,4.1z M465.8,107.9
	c-1.2,0.4-2.1,2.5-2.1,5.2l0.1,43.2c0,2.6,0.9,4.8,2.1,5.2L465.8,107.9z"/>
<path fill="#808184" d="M596.7,29.3c0,2.3-1.8,4.1-4.1,4.1l-30.2,0.1c-2.3,0-4.1-1.8-4.1-4.1s1.8-4.1,4.1-4.1l30.2-0.1
	C594.8,25.2,596.7,27.1,596.7,29.3z"/>
<path fill="#FFFFFF" d="M479.5,48.1l196.2-0.5l0.8,328l-196.2,0.5L479.5,48.1z"/>
<path opacity="0.6" fill="#E2E2E2" enable-background="new    " d="M505.3,376.1l171.1-0.4l-0.8-328h-23.4"/>
<path fill="#808184" d="M526,404l-27.2,0.1l3.1-3.1c0.3-0.3,0.3-0.7,0-0.9c-0.3-0.3-0.7-0.3-0.9,0l-4.2,4.2
	c-0.1,0.1-0.1,0.1-0.1,0.2s-0.1,0.2,0,0.2c0,0.1,0,0.2,0.1,0.2c0,0.1,0.1,0.1,0.1,0.2l4.2,4.2c0.1,0.1,0.3,0.2,0.5,0.2
	s0.3-0.1,0.5-0.2c0.3-0.3,0.3-0.7,0-0.9l-3.1-3.1l27.2-0.1c1.4,0,2.6,1.2,2.6,2.6v1.3c0,1.4-1.2,2.6-2.6,2.6h-14.9
	c-0.4,0-0.6,0.3-0.6,0.7c0,0.4,0.3,0.6,0.7,0.6h14.9c2.1,0,3.9-1.8,3.9-3.9v-1.3C529.9,405.7,528.1,404,526,404L526,404z
	 M596.2,414.2l-33.9,0.1v-10.4l17-5.6l17,5.5L596.2,414.2z M563.6,412.9l31.3-0.1v-8.1l-15.6-5.1l-15.6,5.2L563.6,412.9L563.6,412.9
	z"/>
<g>
	<path fill="#808184" d="M630.6,401.1l29.2-0.1l0,1.3l-29.2,0.1L630.6,401.1z M634.3,404.6l25.5-0.1l0,1.3l-25.5,0.1L634.3,404.6z
		 M634.3,408.1l25.5-0.1l0,1.3l-25.5,0.1L634.3,408.1z M634.3,411.7l25.5-0.1l0,1.3l-25.5,0.1L634.3,411.7z"/>
</g>
<circle fill="#2BACE2" cx="658.8" cy="29.2" r="3.9"/>
<circle fill="#808184" cx="645.6" cy="29.2" r="3.9"/>
<g>
	<path fill="#EFB481" d="M726.8,194.8c9.8,6,14.4,19.4,9.5,29.6c-1.8,3.5-2.7,4.6-4.3,7.2l-22.9,36.8c1.5-2,4.7-4,8.1-4.8l18.9-30.6
		c1.6-2.6,2.5-3.7,4.3-7.2c4.9-10.1,0.3-23.5-9.5-29.6c-2.2-1.3-4.5-2.2-6.9-2.7C725,193.8,725.9,194.3,726.8,194.8L726.8,194.8z
		 M694.2,283.8c-5.6,3.6-13.7,2.6-16.4,2c2.4,1,6.6,3.1,12.2,1.6L694.2,283.8z M686,359.5c-3.8,1.3-7.9,1.5-11.8,0.7
		c3.8,1.7,7.9,2.2,11.9,1.6L686,359.5L686,359.5z M736.1,265.7c-2.2-1.4-4.6-2.3-7-2.8c1,0.4,1.9,0.9,2.8,1.5
		c10.5,6.4,13.7,20.2,7.3,30.7l-49,79.5v8.1l53.1-86.2C749.8,285.9,746.6,272.2,736.1,265.7L736.1,265.7z"/>
</g>
<g>
	<path fill="#BFBFBA" d="M676.3,307.5l-15.7,24.2c-6.4,10.5-3.2,24.2,7.3,30.7c2.7,1.7,5.6,2.6,8.5,3.1L676.3,307.5L676.3,307.5z
		 M671.5,288c1.5,0.9,3.1,1.6,4.7,2.1l-0.1-51.1l-11.9,18.3C657.8,267.8,661,281.6,671.5,288z"/>
</g>
<path fill="#F4C9A1" d="M736.1,265.7c-5.8-3.6-12.7-4.2-18.8-2.1l18.9-30.6c1.6-2.6,2.5-3.7,4.3-7.2c4.9-10.1,0.3-23.5-9.5-29.6
	c-10.4-6.4-24.4-3.2-30.9,7.1c0,0-2.4,3.9-3.6,5.8l-6.6,10.5l-22.2,34.2c-6.4,10.5-3.2,24.2,7.3,30.7c4.7,2.9,10,3.8,15.1,3v0.6
	l-25.9,40c-6.4,10.5-3.2,24.2,7.3,30.7c5.9,3.6,12.8,4.2,18.9,2.1l0.1,21.8l53.1-86.2C749.8,285.9,746.6,272.2,736.1,265.7
	L736.1,265.7z"/>
<g>
	<path fill="#E6B923" d="M632,83.6c-2.5-3.8-9.6-6.5-12.6-3.3c-0.3,0.4-0.7,0.7-0.9,1.1c0.9,0.2,1.7,0.6,2.1,1.5
		c0.5,1,0.6,3.7-0.3,5.2c0.3,0.3,0.5,0.7,0.7,1.1c0.3,0.7,0.7,1.6,0.7,2.5c0.7,0.4,1.4,0.7,1.9,0.8c1.2,0.3,2.4,0.3,3.6,0.1
		c1.5-0.2,2.8-0.8,3.8-1.7C632.8,89.1,633.7,86.2,632,83.6z"/>
	<path fill="#61B9DF" d="M615.7,88.2c0.6-0.4,1.3-0.8,2.1-0.9c-0.9-2.2-0.5-4.2,0.7-5.9c-1-0.2-2.2-0.1-3.1,0.1
		c-2,0.5-2.6,1.4-2.5,3.5c0,1.6,0.8,3.1,2.1,4C615.1,88.7,615.4,88.4,615.7,88.2z"/>
	<path fill="#DEBA29" d="M617.7,87.3c0.6-0.1,1.3,0,1.9,0.3c0.3,0.1,0.5,0.3,0.7,0.5c0.9-1.5,0.8-4.2,0.3-5.2
		c-0.4-0.9-1.2-1.4-2.1-1.5C617.2,83.2,616.8,85.2,617.7,87.3L617.7,87.3z"/>
	<path fill="#658439" d="M617.7,87.3c0.6-0.1,1.3,0,1.9,0.3c0.3,0.1,0.5,0.3,0.7,0.5c0.9-1.5,0.8-4.2,0.3-5.2
		c-0.4-0.9-1.2-1.4-2.1-1.5C617.2,83.2,616.8,85.2,617.7,87.3L617.7,87.3z"/>
	<path fill="#E8138B" d="M618.9,89.2c-0.7,0.3-1,0.3-1.7,0.3c-0.9,0.1-1.7-0.2-2.3-0.6c-1,1.1-1.5,2.7-1.1,4.1
		c0.6,0,1.3,0.1,1.6,0.7c0.1,0.3,0.2,0.9,0.1,1.5c1.9,1,3.7,0.6,5.6-1.7c0.5-0.5,0.6-1.2,0.6-1.9c-0.7-0.3-1.3-0.8-1.6-1.1
		C619.6,90.1,619.2,89.7,618.9,89.2L618.9,89.2z"/>
	<path fill="#DEBA29" d="M620.3,88.1c-0.2,0.3-0.4,0.6-0.7,0.7c-0.3,0.2-0.5,0.3-0.7,0.4c0.4,0.5,0.8,0.9,1.2,1.4
		c0.3,0.4,0.9,0.8,1.6,1.1c0-0.9-0.4-1.8-0.7-2.5C620.8,88.8,620.6,88.4,620.3,88.1L620.3,88.1z"/>
	<path fill="#C02629" d="M620.3,88.1c-0.2,0.3-0.4,0.6-0.7,0.7c-0.3,0.2-0.5,0.3-0.7,0.4c0.4,0.5,0.8,0.9,1.2,1.4
		c0.3,0.4,0.9,0.8,1.6,1.1c0-0.9-0.4-1.8-0.7-2.5C620.8,88.8,620.6,88.4,620.3,88.1L620.3,88.1z"/>
	<path fill="#61B8DF" d="M617.2,89.5c0.6-0.1,1-0.1,1.7-0.3c-0.5-0.6-0.9-1.3-1.1-1.9c-0.7,0.1-1.5,0.5-2.1,0.9
		c-0.3,0.2-0.6,0.5-0.8,0.8C615.5,89.4,616.3,89.6,617.2,89.5L617.2,89.5z"/>
	<path fill="#6E2A77" d="M617.2,89.5c0.6-0.1,1-0.1,1.7-0.3c-0.5-0.6-0.9-1.3-1.1-1.9c-0.7,0.1-1.5,0.5-2.1,0.9
		c-0.3,0.2-0.6,0.5-0.8,0.8C615.5,89.4,616.3,89.6,617.2,89.5L617.2,89.5z"/>
	<path fill="#DEBA29" d="M619.6,87.6c-0.6-0.3-1.2-0.4-1.9-0.3c0.3,0.6,0.6,1.2,1.1,1.9c0.2-0.1,0.4-0.2,0.7-0.4
		c0.3-0.2,0.5-0.4,0.7-0.7C620.1,87.9,619.9,87.7,619.6,87.6z"/>
	<path fill="#61B8DF" d="M619.6,87.6c-0.6-0.3-1.2-0.4-1.9-0.3c0.3,0.6,0.6,1.2,1.1,1.9c0.2-0.1,0.4-0.2,0.7-0.4
		c0.3-0.2,0.5-0.4,0.7-0.7C620.1,87.9,619.9,87.7,619.6,87.6z"/>
	<path fill="#69262E" d="M619.6,87.6c-0.6-0.3-1.2-0.4-1.9-0.3c0.3,0.6,0.6,1.2,1.1,1.9c0.2-0.1,0.4-0.2,0.7-0.4
		c0.3-0.2,0.5-0.4,0.7-0.7C620.1,87.9,619.9,87.7,619.6,87.6z"/>
	<path fill="#EE8127" d="M613.7,93.1c-0.2,0-0.5,0.1-0.7,0.1c-0.9,0.2-1.1,0.6-1.1,1.5c0,1,0.8,2.1,1.9,2c0.4,0,0.8-0.1,1.1-0.3
		c0.4-0.3,0.5-0.6,0.6-1.1c0,0-0.1-0.1-0.2-0.1C614.4,94.6,613.9,93.9,613.7,93.1z"/>
	<path fill="#E8168B" d="M615.3,93.8c-0.3-0.6-1-0.8-1.6-0.7c0.2,0.8,0.7,1.6,1.5,2.1c0.1,0,0.2,0.1,0.2,0.1
		C615.6,94.7,615.5,94.1,615.3,93.8L615.3,93.8z"/>
	<path fill="#EF8029" d="M615.3,93.8c-0.3-0.6-1-0.8-1.6-0.7c0.2,0.8,0.7,1.6,1.5,2.1c0.1,0,0.2,0.1,0.2,0.1
		C615.6,94.7,615.5,94.1,615.3,93.8L615.3,93.8z"/>
	<path fill="#CF1F42" d="M615.4,93.8c-0.3-0.6-1-0.8-1.6-0.7c0.2,0.8,0.7,1.6,1.5,2.1c0.1,0,0.1,0.1,0.2,0.1
		C615.6,94.7,615.5,94.1,615.4,93.8"/>
	<path fill="#231F20" d="M626.4,100.1c-1.1-0.3-2.5-0.5-3.2-0.5c-4.3,0-6.5,2.8-6.5,7.3c0,3.7,1.5,6.2,4.7,6.2c2.1,0,3.3-1.1,4-2.4
		v1.2c0,0.6,0.4,1.1,1,1.1s1-0.5,1-1.1v-10.2C627.4,100.8,627.3,100.3,626.4,100.1z M625.3,107c0,1.7-1.2,4.5-3.8,4.5
		c-2,0-2.6-2.3-2.6-4.5c0-3.2,1-5.7,4-5.7c1,0,2,0.2,2.5,0.4L625.3,107L625.3,107z M611.9,100.8c0-0.6,0.5-1.1,1.1-1.1
		s1.1,0.5,1.1,1.1V112c0,0.6-0.5,1.1-1.1,1.1s-1.1-0.5-1.1-1.1V100.8z M608.3,110.7c0.3-0.2,0.7-0.4,1-0.4c0.4,0,0.8,0.3,0.8,0.8
		c0,0.3-0.2,0.6-0.5,0.8c-0.9,0.6-2.3,1.2-4,1.2c-3.7,0-5.7-2.3-5.7-6.8c0-5.3,3.2-6.8,5.6-6.8c1.4,0,2.7,0.3,4,1.4
		c0.2,0.2,0.4,0.5,0.4,0.8c0,0.5-0.4,1-0.9,1c-0.3,0-0.6-0.2-0.8-0.4c-0.8-0.7-1.6-0.9-2.6-0.9c-2,0-3.5,1.5-3.5,4.9
		c0,3,1.1,5.1,3.7,5.1C606.7,111.4,607.5,111.2,608.3,110.7 M592.8,99.7c-2.6,0-5.9,1.4-5.9,6.7c0,4.7,2.2,6.9,5.5,6.9
		c3.2,0,5.9-2.1,5.9-7.1C598.2,100.2,594.6,99.7,592.8,99.7z M592.6,111.5c-2.9,0-3.5-2.9-3.5-5.4c0-2.7,1.2-4.7,3.6-4.7
		c2.4,0,3.4,2.1,3.4,5.1C596.1,109.3,594.9,111.5,592.6,111.5z M577.1,110.5c0.3,0,0.5,0.1,0.6,0.2c0.8,0.4,1.7,0.8,2.9,0.8
		c1.4,0,2.4-0.7,2.4-2.1s-1.3-1.9-2.8-2.4c-1.8-0.6-3.7-1.2-3.7-3.6c0-2.6,2.1-3.8,4.3-3.8c1.4,0,2.6,0.4,3.4,0.9
		c0.2,0.1,0.6,0.4,0.6,0.8c0,0.5-0.3,0.9-0.8,0.9c-0.2,0-0.5-0.1-0.7-0.3c-0.7-0.4-1.6-0.6-2.5-0.6c-1,0-2.2,0.4-2.2,1.8
		c0,1.3,1.4,1.8,2.7,2.2c1.7,0.6,3.7,1.4,3.8,3.8c0,2.6-1.8,3.9-4.4,3.9c-1.9,0-3-0.5-3.8-1c-0.3-0.2-0.6-0.4-0.6-0.8
		C576.3,110.9,576.6,110.5,577.1,110.5 M558.9,104.8c0-1.8-0.6-3.3-2.7-3.2c-1.9,0-3.4,1.9-3.4,4.2v6.4c0,0.6-0.5,1.1-1.1,1.1
		s-1.1-0.5-1.1-1.1V101c0-0.6,0.4-1.1,1-1.1s1,0.5,1.1,1.1v0.9c0.9-1.5,2.3-2.1,3.8-2.1c2.8,0,4.4,1.5,4.4,4.5v7.9
		c0,0.6-0.5,1.1-1.1,1.1s-1.1-0.5-1.1-1.1L558.9,104.8L558.9,104.8z M540.8,100.6c0.2-0.4,0.5-0.7,1-0.7c0.8,0,1.3,0.6,1,1.4
		l-4.1,11c-0.2,0.5-0.4,0.9-1,0.9c-0.5,0-0.7-0.4-0.9-0.9l-4.1-10.9c-0.3-0.8,0.1-1.5,0.9-1.5c0.5,0,0.8,0.3,1,0.7l3.1,8.4
		L540.8,100.6z M522.7,95.8c0-0.6,0.5-1.1,1.1-1.1s1.1,0.5,1.1,1.1v16.6c0,0.6-0.5,1.1-1.1,1.1s-1.1-0.5-1.1-1.1V95.8L522.7,95.8z
		 M630.8,95.5c0-0.6,0.5-1.1,1.1-1.1s1.1,0.5,1.1,1.1v16.6c0,0.6-0.5,1.1-1.1,1.1s-1.1-0.5-1.1-1.1V95.5L630.8,95.5z M572.8,100.1
		c-1-0.2-2-0.4-2.9-0.4c-3.2,0-6.2,2.2-6.2,6.5c0,4.6,2,6.2,4.3,6.4l-0.5,0.3c-1.4,0.9-2.8,2-2.8,4c0,2.1,1.4,3.6,4.1,3.6
		c5.1,0,5.3-4.8,5.3-7.6V102C574.2,100.5,573.8,100.3,572.8,100.1L572.8,100.1z M572.2,113.8c0,2.9-0.7,5.1-3.1,5.1
		c-1.3,0-2.3-0.6-2.3-2c0-1.2,1.2-2.2,2.5-3.3l2.9-2.5L572.2,113.8L572.2,113.8z M572.2,107.2c0,2-1.2,4-3,4c-3.1,0-3.3-3.1-3.3-4.7
		c0-3.2,1.5-5,3.8-5c1.2,0,1.8,0.2,2.5,0.4C572.2,101.9,572.2,107.2,572.2,107.2z M545.2,101c0-0.6,0.5-1.1,1.1-1.1s1.1,0.5,1.1,1.1
		v11.2c0,0.6-0.5,1.1-1.1,1.1s-1.1-0.5-1.1-1.1V101L545.2,101z M528.4,101c0-0.6,0.5-1.1,1.1-1.1s1.1,0.5,1.1,1.1v11.2
		c0,0.6-0.5,1.1-1.1,1.1s-1.1-0.5-1.1-1.1V101L528.4,101z"/>
</g>
<path fill="#E6DED3" d="M431,197.7c-1.9,0.2-3.9-0.2-5.7-1.1c-3.1-1.4-6.9-4.5-7.6-10.6c-1.1-10-2.4-25.5-1.2-27.2
	c1.2-1.7,6.2-3.4,12.4-1.1s7.5,3.3,8.9,8.2c1.5,4.9,0.8,23.4,0.4,25.2C437.8,192.8,437,197.2,431,197.7L431,197.7z"/>
<text transform="matrix(1 0 0 1 504.518 163.315)" fill="#9EAD3A" font-family="'ProximaNovaSoft-Bold'" font-size="38.29">rewards:</text>
<g>
	<g>
		<path fill="#0078A9" d="M523.5,249.8l109.8-0.2c7.2,0,13.2,5.1,14.7,11.8l-139,0.2C510.3,254.9,516.3,249.8,523.5,249.8z
			 M508.7,330.8l-0.1-48.6l139.7-0.2l0.1,48.6c0,8.3-6.7,15-14.9,15l-109.8,0.2C515.4,345.8,508.7,339.1,508.7,330.8L508.7,330.8z"
			/>
	</g>
	<path fill="#254655" d="M508.9,261.6l139-0.2c0.2,1,0.3,2,0.3,3.1V282l-139.7,0.2v-17.5C508.6,263.7,508.7,262.6,508.9,261.6z"/>
	<path fill="#FFFFFF" d="M587.2,307l-71.1,0.1l0-16.2l71.1-0.1L587.2,307z M596.6,316.9c0.5-0.1,0.9-0.6,0.9-1.2
		c0-0.7-0.5-1.2-1.2-1.2l-80.1,0.1c-0.7,0-1.2,0.5-1.2,1.2s0.5,1.2,1.2,1.2l80.1-0.1C596.4,317,596.5,316.9,596.6,316.9z
		 M596.6,323.5c0.5-0.1,0.9-0.6,0.9-1.2c0-0.7-0.5-1.2-1.2-1.2l-80.1,0.1c-0.7,0-1.2,0.5-1.2,1.2s0.5,1.2,1.2,1.2l80.1-0.1H596.6z"
		/>
</g>
<g>
	<path fill="#13517A" d="M233.1,1132.1L0,1132.6l419.7-679.5l168.2,104.4"/>
	<path fill="#0C3854" d="M233.1,1132.1L98,1132.4L490.4,497l97.5,60.5"/>
	<path fill="#F4C9A1" d="M488.4,440.2c-0.8,0-1.7-0.1-2.5-0.1c-0.2,0-1.8-0.3-2.5-0.4c-0.2,0-1.8-0.5-2.4-0.7c-0.1,0-1.7-0.7-2.4-1
		c-7.1-3.6-12.1-10.9-12.1-19.4l-0.7-233.1c0-17.4-14.2-31.5-31.6-31.5c-5.6,0-10.8,1.5-15.4,4.1l0.6,224.9
		c0.1,21.9,9.9,41.5,25.3,54.7l-13.9,22.4L568,545.3l27.8-44.8l2.9-2.2c10,0.9,20-3.8,25.6-12.8l28-45.4L488.4,440.2z"/>
	<path fill="#EFB481" d="M461.6,184.4l0.6,211.9c0,8.5,1.3,24.6,7,32.2c0,0-0.5-0.2,0,0c-1.6-3-2.6-6.4-2.6-10.1l-0.7-233.1
		c0-11.9-6.6-22.2-16.3-27.5C453,162.8,461.6,168.4,461.6,184.4z M635.4,439.8l-142,0.4c4,4.2,9.6,6.9,15.9,6.9l130.3-1.5
		l-18.3,28.3c-5.6,9.1-23.4,15-33.3,14.2l-2.9,2.2l-27.8,44.8L431,459.9l137.2,85.2l27.8-44.8l2.9-2.2c10,0.9,20-3.8,25.6-12.8
		l28-45.4L635.4,439.8z"/>
	<path fill="#F4C9A1" d="M716.2,129.2c-7.5-4.7-16.6-4.8-24.1-1.3l32.1-52c7.3-11.8,3.6-27.4-8.2-34.6c-8.4-5.2-18.7-4.8-26.6,0.1
		l0.4,178.5l34.6-56.1C731.7,152,728,136.5,716.2,129.2L716.2,129.2z"/>
	<path fill="#EFB481" d="M702.1,200c-1.4-1.8-8.6-8.6-8.7-20.4c0-9.8-0.1-51.3-0.1-51.3l1.2-1.6c-1.5,0.4-1,0.4-2.4,1.1l8.7-14
		c-4.5-4.5-8.4-12.1-8.4-23.6c0-9.2-0.1-34.2-0.1-50.4c0,0-1.2,0.5-2.9,1.5l0.4,178.5l6.6-10.8L702.1,200z"/>
	<g>
		<path fill="#EFB481" d="M711.8,39.9c11.8,7.3,15.5,22.8,8.2,34.6l-30.4,49.3v2c1.5-0.6,3-1.1,4.6-1.3l30-48.6
			c7.3-11.8,3.6-27.4-8.2-34.6c-2.3-1.4-4.8-2.4-7.3-3C709.7,38.7,710.8,39.3,711.8,39.9L711.8,39.9z M716.2,129.2
			c-2.3-1.4-4.8-2.4-7.3-3c1.1,0.5,2.1,1,3.2,1.6c11.8,7.3,15.5,22.8,8.2,34.6l-30.4,49.3v8.1l34.6-56.1
			C731.7,152,728,136.4,716.2,129.2L716.2,129.2z"/>
	</g>
	<path fill="#EFB481" d="M573.1,537l-5,8.1l-137.2-85.2c0,0,29.8,16.2,71.1,40.9S573.1,537,573.1,537L573.1,537z M690.2,360.8
		c0,0,7.1-2.3,13.6-11.8l30.1-41.8c0,0-0.9,6-2.9,9.1c-1.9,3.1-40.8,66.2-40.8,66.2L690.2,360.8L690.2,360.8z"/>
	<path fill="#333333" d="M690.3,418.1c0,12-9.7,21.8-21.7,21.8l-180.2,0.4c-12,0-21.8-9.7-21.8-21.7l-1-392.3
		c0-12,9.7-21.8,21.7-21.8L667.5,4c12,0,21.8,9.7,21.8,21.7L690.3,418.1z"/>
	<path fill="#020202" d="M642.2,4.1c-0.3-2.3-2.3-4.1-4.7-4.1L598,0.1c-2.4,0-4.4,1.8-4.7,4.1L642.2,4.1z M465.8,107.9
		c-1.2,0.4-2.1,2.5-2.1,5.2l0.1,43.2c0,2.6,0.9,4.8,2.1,5.2L465.8,107.9z"/>
	<path fill="#808184" d="M596.7,29.3c0,2.3-1.8,4.1-4.1,4.1l-30.2,0.1c-2.3,0-4.1-1.8-4.1-4.1s1.8-4.1,4.1-4.1l30.2-0.1
		C594.8,25.2,596.7,27.1,596.7,29.3z"/>
	<path fill="#FFFFFF" d="M479.5,48.1l196.2-0.5l0.8,328l-196.2,0.5L479.5,48.1z"/>
	<path opacity="0.6" fill="#E2E2E2" enable-background="new    " d="M505.3,376.1l171.1-0.4l-0.8-328h-23.4"/>
	<path fill="#808184" d="M526,404l-27.2,0.1l3.1-3.1c0.3-0.3,0.3-0.7,0-0.9c-0.3-0.3-0.7-0.3-0.9,0l-4.2,4.2
		c-0.1,0.1-0.1,0.1-0.1,0.2s-0.1,0.2,0,0.2c0,0.1,0,0.2,0.1,0.2c0,0.1,0.1,0.1,0.1,0.2l4.2,4.2c0.1,0.1,0.3,0.2,0.5,0.2
		s0.3-0.1,0.5-0.2c0.3-0.3,0.3-0.7,0-0.9l-3.1-3.1l27.2-0.1c1.4,0,2.6,1.2,2.6,2.6v1.3c0,1.4-1.2,2.6-2.6,2.6h-14.9
		c-0.4,0-0.6,0.3-0.6,0.7c0,0.4,0.3,0.6,0.7,0.6h14.9c2.1,0,3.9-1.8,3.9-3.9v-1.3C529.9,405.7,528.1,404,526,404L526,404z
		 M596.2,414.2l-33.9,0.1v-10.4l17-5.6l17,5.5L596.2,414.2z M563.6,412.9l31.3-0.1v-8.1l-15.6-5.1l-15.6,5.2L563.6,412.9
		L563.6,412.9z"/>
	<g>
		<path fill="#808184" d="M630.6,401.1l29.2-0.1l0,1.3l-29.2,0.1L630.6,401.1z M634.3,404.6l25.5-0.1l0,1.3l-25.5,0.1L634.3,404.6z
			 M634.3,408.1l25.5-0.1l0,1.3l-25.5,0.1L634.3,408.1z M634.3,411.7l25.5-0.1l0,1.3l-25.5,0.1L634.3,411.7z"/>
	</g>
	<circle fill="#2BACE2" cx="658.8" cy="29.2" r="3.9"/>
	<circle fill="#808184" cx="645.6" cy="29.2" r="3.9"/>
	<g>
		<path fill="#EFB481" d="M726.8,194.8c9.8,6,14.4,19.4,9.5,29.6c-1.8,3.5-2.7,4.6-4.3,7.2l-22.9,36.8c1.5-2,4.7-4,8.1-4.8
			l18.9-30.6c1.6-2.6,2.5-3.7,4.3-7.2c4.9-10.1,0.3-23.5-9.5-29.6c-2.2-1.3-4.5-2.2-6.9-2.7C725,193.8,725.9,194.3,726.8,194.8
			L726.8,194.8z M694.2,283.8c-5.6,3.6-13.7,2.6-16.4,2c2.4,1,6.6,3.1,12.2,1.6L694.2,283.8z M686,359.5c-3.8,1.3-7.9,1.5-11.8,0.7
			c3.8,1.7,7.9,2.2,11.9,1.6L686,359.5L686,359.5z M736.1,265.7c-2.2-1.4-4.6-2.3-7-2.8c1,0.4,1.9,0.9,2.8,1.5
			c10.5,6.4,13.7,20.2,7.3,30.7l-49,79.5v8.1l53.1-86.2C749.8,285.9,746.6,272.2,736.1,265.7L736.1,265.7z"/>
	</g>
	<g>
		<path fill="#BFBFBA" d="M676.3,307.5l-15.7,24.2c-6.4,10.5-3.2,24.2,7.3,30.7c2.7,1.7,5.6,2.6,8.5,3.1L676.3,307.5L676.3,307.5z
			 M671.5,288c1.5,0.9,3.1,1.6,4.7,2.1l-0.1-51.1l-11.9,18.3C657.8,267.8,661,281.6,671.5,288z"/>
	</g>
	<path fill="#F4C9A1" d="M736.1,265.7c-5.8-3.6-12.7-4.2-18.8-2.1l18.9-30.6c1.6-2.6,2.5-3.7,4.3-7.2c4.9-10.1,0.3-23.5-9.5-29.6
		c-10.4-6.4-24.4-3.2-30.9,7.1c0,0-2.4,3.9-3.6,5.8l-6.6,10.5l-22.2,34.2c-6.4,10.5-3.2,24.2,7.3,30.7c4.7,2.9,10,3.8,15.1,3v0.6
		l-25.9,40c-6.4,10.5-3.2,24.2,7.3,30.7c5.9,3.6,12.8,4.2,18.9,2.1l0.1,21.8l53.1-86.2C749.8,285.9,746.6,272.2,736.1,265.7
		L736.1,265.7z"/>
	<g>
		<path fill="#E6B923" d="M632,83.6c-2.5-3.8-9.6-6.5-12.6-3.3c-0.3,0.4-0.7,0.7-0.9,1.1c0.9,0.2,1.7,0.6,2.1,1.5
			c0.5,1,0.6,3.7-0.3,5.2c0.3,0.3,0.5,0.7,0.7,1.1c0.3,0.7,0.7,1.6,0.7,2.5c0.7,0.4,1.4,0.7,1.9,0.8c1.2,0.3,2.4,0.3,3.6,0.1
			c1.5-0.2,2.8-0.8,3.8-1.7C632.8,89.1,633.7,86.2,632,83.6z"/>
		<path fill="#61B9DF" d="M615.7,88.2c0.6-0.4,1.3-0.8,2.1-0.9c-0.9-2.2-0.5-4.2,0.7-5.9c-1-0.2-2.2-0.1-3.1,0.1
			c-2,0.5-2.6,1.4-2.5,3.5c0,1.6,0.8,3.1,2.1,4C615.1,88.7,615.4,88.4,615.7,88.2z"/>
		<path fill="#DEBA29" d="M617.7,87.3c0.6-0.1,1.3,0,1.9,0.3c0.3,0.1,0.5,0.3,0.7,0.5c0.9-1.5,0.8-4.2,0.3-5.2
			c-0.4-0.9-1.2-1.4-2.1-1.5C617.2,83.2,616.8,85.2,617.7,87.3L617.7,87.3z"/>
		<path fill="#658439" d="M617.7,87.3c0.6-0.1,1.3,0,1.9,0.3c0.3,0.1,0.5,0.3,0.7,0.5c0.9-1.5,0.8-4.2,0.3-5.2
			c-0.4-0.9-1.2-1.4-2.1-1.5C617.2,83.2,616.8,85.2,617.7,87.3L617.7,87.3z"/>
		<path fill="#E8138B" d="M618.9,89.2c-0.7,0.3-1,0.3-1.7,0.3c-0.9,0.1-1.7-0.2-2.3-0.6c-1,1.1-1.5,2.7-1.1,4.1
			c0.6,0,1.3,0.1,1.6,0.7c0.1,0.3,0.2,0.9,0.1,1.5c1.9,1,3.7,0.6,5.6-1.7c0.5-0.5,0.6-1.2,0.6-1.9c-0.7-0.3-1.3-0.8-1.6-1.1
			C619.6,90.1,619.2,89.7,618.9,89.2L618.9,89.2z"/>
		<path fill="#DEBA29" d="M620.3,88.1c-0.2,0.3-0.4,0.6-0.7,0.7c-0.3,0.2-0.5,0.3-0.7,0.4c0.4,0.5,0.8,0.9,1.2,1.4
			c0.3,0.4,0.9,0.8,1.6,1.1c0-0.9-0.4-1.8-0.7-2.5C620.8,88.8,620.6,88.4,620.3,88.1L620.3,88.1z"/>
		<path fill="#C02629" d="M620.3,88.1c-0.2,0.3-0.4,0.6-0.7,0.7c-0.3,0.2-0.5,0.3-0.7,0.4c0.4,0.5,0.8,0.9,1.2,1.4
			c0.3,0.4,0.9,0.8,1.6,1.1c0-0.9-0.4-1.8-0.7-2.5C620.8,88.8,620.6,88.4,620.3,88.1L620.3,88.1z"/>
		<path fill="#61B8DF" d="M617.2,89.5c0.6-0.1,1-0.1,1.7-0.3c-0.5-0.6-0.9-1.3-1.1-1.9c-0.7,0.1-1.5,0.5-2.1,0.9
			c-0.3,0.2-0.6,0.5-0.8,0.8C615.5,89.4,616.3,89.6,617.2,89.5L617.2,89.5z"/>
		<path fill="#6E2A77" d="M617.2,89.5c0.6-0.1,1-0.1,1.7-0.3c-0.5-0.6-0.9-1.3-1.1-1.9c-0.7,0.1-1.5,0.5-2.1,0.9
			c-0.3,0.2-0.6,0.5-0.8,0.8C615.5,89.4,616.3,89.6,617.2,89.5L617.2,89.5z"/>
		<path fill="#DEBA29" d="M619.6,87.6c-0.6-0.3-1.2-0.4-1.9-0.3c0.3,0.6,0.6,1.2,1.1,1.9c0.2-0.1,0.4-0.2,0.7-0.4
			c0.3-0.2,0.5-0.4,0.7-0.7C620.1,87.9,619.9,87.7,619.6,87.6z"/>
		<path fill="#61B8DF" d="M619.6,87.6c-0.6-0.3-1.2-0.4-1.9-0.3c0.3,0.6,0.6,1.2,1.1,1.9c0.2-0.1,0.4-0.2,0.7-0.4
			c0.3-0.2,0.5-0.4,0.7-0.7C620.1,87.9,619.9,87.7,619.6,87.6z"/>
		<path fill="#69262E" d="M619.6,87.6c-0.6-0.3-1.2-0.4-1.9-0.3c0.3,0.6,0.6,1.2,1.1,1.9c0.2-0.1,0.4-0.2,0.7-0.4
			c0.3-0.2,0.5-0.4,0.7-0.7C620.1,87.9,619.9,87.7,619.6,87.6z"/>
		<path fill="#EE8127" d="M613.7,93.1c-0.2,0-0.5,0.1-0.7,0.1c-0.9,0.2-1.1,0.6-1.1,1.5c0,1,0.8,2.1,1.9,2c0.4,0,0.8-0.1,1.1-0.3
			c0.4-0.3,0.5-0.6,0.6-1.1c0,0-0.1-0.1-0.2-0.1C614.4,94.6,613.9,93.9,613.7,93.1z"/>
		<path fill="#E8168B" d="M615.3,93.8c-0.3-0.6-1-0.8-1.6-0.7c0.2,0.8,0.7,1.6,1.5,2.1c0.1,0,0.2,0.1,0.2,0.1
			C615.6,94.7,615.5,94.1,615.3,93.8L615.3,93.8z"/>
		<path fill="#EF8029" d="M615.3,93.8c-0.3-0.6-1-0.8-1.6-0.7c0.2,0.8,0.7,1.6,1.5,2.1c0.1,0,0.2,0.1,0.2,0.1
			C615.6,94.7,615.5,94.1,615.3,93.8L615.3,93.8z"/>
		<path fill="#CF1F42" d="M615.4,93.8c-0.3-0.6-1-0.8-1.6-0.7c0.2,0.8,0.7,1.6,1.5,2.1c0.1,0,0.1,0.1,0.2,0.1
			C615.6,94.7,615.5,94.1,615.4,93.8"/>
		<path fill="#231F20" d="M626.4,100.1c-1.1-0.3-2.5-0.5-3.2-0.5c-4.3,0-6.5,2.8-6.5,7.3c0,3.7,1.5,6.2,4.7,6.2c2.1,0,3.3-1.1,4-2.4
			v1.2c0,0.6,0.4,1.1,1,1.1s1-0.5,1-1.1v-10.2C627.4,100.8,627.3,100.3,626.4,100.1z M625.3,107c0,1.7-1.2,4.5-3.8,4.5
			c-2,0-2.6-2.3-2.6-4.5c0-3.2,1-5.7,4-5.7c1,0,2,0.2,2.5,0.4L625.3,107L625.3,107z M611.9,100.8c0-0.6,0.5-1.1,1.1-1.1
			s1.1,0.5,1.1,1.1V112c0,0.6-0.5,1.1-1.1,1.1s-1.1-0.5-1.1-1.1V100.8z M608.3,110.7c0.3-0.2,0.7-0.4,1-0.4c0.4,0,0.8,0.3,0.8,0.8
			c0,0.3-0.2,0.6-0.5,0.8c-0.9,0.6-2.3,1.2-4,1.2c-3.7,0-5.7-2.3-5.7-6.8c0-5.3,3.2-6.8,5.6-6.8c1.4,0,2.7,0.3,4,1.4
			c0.2,0.2,0.4,0.5,0.4,0.8c0,0.5-0.4,1-0.9,1c-0.3,0-0.6-0.2-0.8-0.4c-0.8-0.7-1.6-0.9-2.6-0.9c-2,0-3.5,1.5-3.5,4.9
			c0,3,1.1,5.1,3.7,5.1C606.7,111.4,607.5,111.2,608.3,110.7 M592.8,99.7c-2.6,0-5.9,1.4-5.9,6.7c0,4.7,2.2,6.9,5.5,6.9
			c3.2,0,5.9-2.1,5.9-7.1C598.2,100.2,594.6,99.7,592.8,99.7z M592.6,111.5c-2.9,0-3.5-2.9-3.5-5.4c0-2.7,1.2-4.7,3.6-4.7
			c2.4,0,3.4,2.1,3.4,5.1C596.1,109.3,594.9,111.5,592.6,111.5z M577.1,110.5c0.3,0,0.5,0.1,0.6,0.2c0.8,0.4,1.7,0.8,2.9,0.8
			c1.4,0,2.4-0.7,2.4-2.1s-1.3-1.9-2.8-2.4c-1.8-0.6-3.7-1.2-3.7-3.6c0-2.6,2.1-3.8,4.3-3.8c1.4,0,2.6,0.4,3.4,0.9
			c0.2,0.1,0.6,0.4,0.6,0.8c0,0.5-0.3,0.9-0.8,0.9c-0.2,0-0.5-0.1-0.7-0.3c-0.7-0.4-1.6-0.6-2.5-0.6c-1,0-2.2,0.4-2.2,1.8
			c0,1.3,1.4,1.8,2.7,2.2c1.7,0.6,3.7,1.4,3.8,3.8c0,2.6-1.8,3.9-4.4,3.9c-1.9,0-3-0.5-3.8-1c-0.3-0.2-0.6-0.4-0.6-0.8
			C576.3,110.9,576.6,110.5,577.1,110.5 M558.9,104.8c0-1.8-0.6-3.3-2.7-3.2c-1.9,0-3.4,1.9-3.4,4.2v6.4c0,0.6-0.5,1.1-1.1,1.1
			s-1.1-0.5-1.1-1.1V101c0-0.6,0.4-1.1,1-1.1s1,0.5,1.1,1.1v0.9c0.9-1.5,2.3-2.1,3.8-2.1c2.8,0,4.4,1.5,4.4,4.5v7.9
			c0,0.6-0.5,1.1-1.1,1.1s-1.1-0.5-1.1-1.1L558.9,104.8L558.9,104.8z M540.8,100.6c0.2-0.4,0.5-0.7,1-0.7c0.8,0,1.3,0.6,1,1.4
			l-4.1,11c-0.2,0.5-0.4,0.9-1,0.9c-0.5,0-0.7-0.4-0.9-0.9l-4.1-10.9c-0.3-0.8,0.1-1.5,0.9-1.5c0.5,0,0.8,0.3,1,0.7l3.1,8.4
			L540.8,100.6z M522.7,95.8c0-0.6,0.5-1.1,1.1-1.1s1.1,0.5,1.1,1.1v16.6c0,0.6-0.5,1.1-1.1,1.1s-1.1-0.5-1.1-1.1V95.8L522.7,95.8z
			 M630.8,95.5c0-0.6,0.5-1.1,1.1-1.1s1.1,0.5,1.1,1.1v16.6c0,0.6-0.5,1.1-1.1,1.1s-1.1-0.5-1.1-1.1V95.5L630.8,95.5z M572.8,100.1
			c-1-0.2-2-0.4-2.9-0.4c-3.2,0-6.2,2.2-6.2,6.5c0,4.6,2,6.2,4.3,6.4l-0.5,0.3c-1.4,0.9-2.8,2-2.8,4c0,2.1,1.4,3.6,4.1,3.6
			c5.1,0,5.3-4.8,5.3-7.6V102C574.2,100.5,573.8,100.3,572.8,100.1L572.8,100.1z M572.2,113.8c0,2.9-0.7,5.1-3.1,5.1
			c-1.3,0-2.3-0.6-2.3-2c0-1.2,1.2-2.2,2.5-3.3l2.9-2.5L572.2,113.8L572.2,113.8z M572.2,107.2c0,2-1.2,4-3,4
			c-3.1,0-3.3-3.1-3.3-4.7c0-3.2,1.5-5,3.8-5c1.2,0,1.8,0.2,2.5,0.4C572.2,101.9,572.2,107.2,572.2,107.2z M545.2,101
			c0-0.6,0.5-1.1,1.1-1.1s1.1,0.5,1.1,1.1v11.2c0,0.6-0.5,1.1-1.1,1.1s-1.1-0.5-1.1-1.1V101L545.2,101z M528.4,101
			c0-0.6,0.5-1.1,1.1-1.1s1.1,0.5,1.1,1.1v11.2c0,0.6-0.5,1.1-1.1,1.1s-1.1-0.5-1.1-1.1V101L528.4,101z"/>
	</g>
	<path fill="#E6DED3" d="M431,197.7c-1.9,0.2-3.9-0.2-5.7-1.1c-3.1-1.4-6.9-4.5-7.6-10.6c-1.1-10-2.4-25.5-1.2-27.2
		c1.2-1.7,6.2-3.4,12.4-1.1s7.5,3.3,8.9,8.2c1.5,4.9,0.8,23.4,0.4,25.2C437.8,192.8,437,197.2,431,197.7L431,197.7z"/>
	<g>
		<g>
			<path fill="#0078A9" d="M523.5,249.8l109.8-0.2c7.2,0,13.2,5.1,14.7,11.8l-139,0.2C510.3,254.9,516.3,249.8,523.5,249.8z
				 M508.7,330.8l-0.1-48.6l139.7-0.2l0.1,48.6c0,8.3-6.7,15-14.9,15l-109.8,0.2C515.4,345.8,508.7,339.1,508.7,330.8L508.7,330.8z"
				/>
		</g>
		<path fill="#254655" d="M508.9,261.6l139-0.2c0.2,1,0.3,2,0.3,3.1V282l-139.7,0.2v-17.5C508.6,263.7,508.7,262.6,508.9,261.6z"/>
		<path fill="#FFFFFF" d="M587.2,307l-71.1,0.1l0-16.2l71.1-0.1L587.2,307z M596.6,316.9c0.5-0.1,0.9-0.6,0.9-1.2
			c0-0.7-0.5-1.2-1.2-1.2l-80.1,0.1c-0.7,0-1.2,0.5-1.2,1.2s0.5,1.2,1.2,1.2l80.1-0.1C596.4,317,596.5,316.9,596.6,316.9z
			 M596.6,323.5c0.5-0.1,0.9-0.6,0.9-1.2c0-0.7-0.5-1.2-1.2-1.2l-80.1,0.1c-0.7,0-1.2,0.5-1.2,1.2s0.5,1.2,1.2,1.2l80.1-0.1H596.6z"
			/>
	</g>
	<g>
		<path fill="#9EAD3A" d="M519.4,165.4c-2.2,0-4.2-0.9-5.7-2.8v7.3c0,1.3-1.1,2.4-2.5,2.4c-1.3,0-2.4-1.1-2.4-2.4v-21.2
			c0-1.3,1.1-2.4,2.5-2.4c1.3,0,2.4,1.1,2.4,2.4v0.2c1.4-1.8,3.4-2.8,5.7-2.8c4.7,0,8.2,3.5,8.2,9.7S524.1,165.4,519.4,165.4z
			 M517.9,150.3c-1.6,0-3.4,0.9-4.2,2.1v6.5c0.8,1.1,2.6,2.1,4.2,2.1c2.8,0,4.7-2.2,4.7-5.4C522.5,152.5,520.7,150.3,517.9,150.3z"
			/>
		<path fill="#9EAD3A" d="M544.2,165.2h-0.4c-0.4,0-2.1-0.3-2.1-2.1c-1.3,1.5-3.4,2.4-5.9,2.4c-2.9,0-6.4-2-6.4-6.1
			c0-4.3,3.5-6,6.4-6c2.5,0,4.6,0.8,5.9,2.3v-2.5c0-1.9-1.6-3.1-4.1-3.1c-1.5,0-2.9,0.3-4.1,1.2c-0.3,0.2-0.6,0.3-0.9,0.3
			c-0.9,0-1.8-0.7-1.8-1.9c0-0.3,0.1-0.7,0.3-1c1.1-1.8,5.3-2.6,7.4-2.6c4.2,0,8.1,1.7,8.1,7v9.8
			C546.5,164.1,545.5,165.2,544.2,165.2z M541.7,158.2c-0.8-1.1-2.3-1.6-3.9-1.6c-1.9,0-3.5,1-3.5,2.8c0,1.7,1.6,2.7,3.5,2.7
			c1.6,0,3.1-0.5,3.9-1.6V158.2z"/>
		<path fill="#9EAD3A" d="M567,149.5l-7.5,18.5c-1.3,3.2-3.6,4.5-6.4,4.5c-1.7,0-3-0.8-3-2.2c0-1.1,0.9-2.1,2.3-2.1
			c0.2,0,0.4,0,0.6,0c0.8-0.2,1.5-0.5,1.8-1.3l0.7-1.6l-6.3-15.8c-0.1-0.3-0.2-0.5-0.2-0.8c0-1.2,1-2.4,2.5-2.4c1,0,1.9,0.6,2.3,1.6
			l4.3,11.5l4.3-11.5c0.3-1,1.3-1.6,2.3-1.6c1.5,0,2.4,1.2,2.4,2.4C567.2,148.9,567.1,149.2,567,149.5z"/>
		<path fill="#9EAD3A" d="M580.4,165.4c-2.2,0-4.2-1-5.7-2.8v0.2c0,1.3-1.1,2.4-2.5,2.4c-1.3,0-2.4-1.1-2.4-2.4v-21.2
			c0-1.3,1.1-2.4,2.5-2.4c1.3,0,2.4,1.1,2.4,2.4v7.3c1.5-1.9,3.5-2.8,5.7-2.8c4.7,0,8.2,3.7,8.2,9.7
			C588.6,161.9,585.1,165.4,580.4,165.4z M578.9,150.3c-1.6,0-3.4,0.9-4.2,2.1v6.5c0.8,1.2,2.6,2.1,4.2,2.1c2.8,0,4.7-2.1,4.7-5.4
			S581.7,150.3,578.9,150.3z"/>
		<path fill="#9EAD3A" d="M605.3,165.2h-0.4c-0.4,0-2.1-0.3-2.1-2.1c-1.3,1.5-3.4,2.4-5.9,2.4c-2.9,0-6.4-2-6.4-6.1
			c0-4.3,3.5-6,6.4-6c2.5,0,4.6,0.8,5.9,2.3v-2.5c0-1.9-1.6-3.1-4.1-3.1c-1.5,0-2.9,0.3-4.1,1.2c-0.3,0.2-0.6,0.3-0.9,0.3
			c-0.9,0-1.8-0.7-1.8-1.9c0-0.3,0.1-0.7,0.3-1c1.1-1.8,5.3-2.6,7.4-2.6c4.2,0,8.1,1.7,8.1,7v9.8
			C607.7,164.1,606.6,165.2,605.3,165.2z M602.8,158.2c-0.8-1.1-2.3-1.6-3.9-1.6c-1.9,0-3.5,1-3.5,2.8c0,1.7,1.6,2.7,3.5,2.7
			c1.6,0,3.1-0.5,3.9-1.6V158.2z"/>
		<path fill="#9EAD3A" d="M626.4,163.6c-1.3,1.1-3.3,1.8-5.9,1.8c-5.7,0-9.8-4-9.8-9.7c0-5.7,4.1-9.7,9.8-9.7c2.9,0,5.6,1,6.4,2.5
			c0.2,0.3,0.2,0.6,0.2,0.9c0,1.3-1.2,2.1-2.3,2.1c-0.5,0-0.9-0.1-1.3-0.4c-0.8-0.5-1.8-0.8-2.7-0.8c-2.9,0-5,2.1-5,5.4
			s2.1,5.4,5,5.4c1,0,1.9-0.3,2.8-0.8c0.4-0.3,0.8-0.4,1.3-0.4c1.2,0,2.3,0.8,2.3,2.1C627.2,162.6,626.9,163.2,626.4,163.6z"/>
		<path fill="#9EAD3A" d="M643.9,165.2c-0.8,0-1.6-0.3-2-1l-4.3-6.3l-2.2,2.4v2.6c0,1.3-1.1,2.4-2.5,2.4c-1.3,0-2.4-1.1-2.4-2.4
			v-21.2c0-1.3,1.1-2.4,2.5-2.4c1.3,0,2.4,1.1,2.4,2.4v13.1l6.5-7.7c0.4-0.5,1-0.8,1.6-0.8c1.2,0,2.3,1.1,2.3,2.3
			c0,0.5-0.2,1-0.5,1.5l-4.3,4.9l4.9,6.5c0.3,0.4,0.5,0.9,0.5,1.4C646.3,163.9,645.3,165.2,643.9,165.2z"/>
		<path fill="#9EAD3A" d="M652.9,152.4c-1.7,0-3.1-1.4-3.1-3.1s1.4-3.1,3.1-3.1s3.1,1.4,3.1,3.1S654.6,152.4,652.9,152.4z
			 M652.9,165.4c-1.7,0-3.1-1.4-3.1-3.1s1.4-3.1,3.1-3.1s3.1,1.4,3.1,3.1S654.6,165.4,652.9,165.4z"/>
	</g>
</g>
</svg>
