<svg version="1" xmlns="http://www.w3.org/2000/svg" width="180" height="50.1" viewBox="0 0 180 50.1"><g fill="#9EAD3A"><path d="M31.2 44.1V47c0 1.4-1.2 2.6-2.6 2.6-1.6 0-2.7-1.2-2.7-2.6v-2.8c-4.5-.4-10-2.1-11.7-4.9-.3-.6-.6-1.1-.6-1.8 0-2.1 1.7-3.7 3.7-3.7.8 0 1.5.2 2.2.7 1.8 1.2 3.9 2.2 6.4 2.6v-8.8c-5.8-1.5-12-3.6-12-11.2 0-5.7 4.5-10.5 12-11.3v-3c0-1.4 1.2-2.6 2.7-2.6 1.4 0 2.6 1.2 2.6 2.6v3.1c3.3.4 8.1 1.7 9.7 4.1.3.5.6 1.1.6 1.7 0 2.1-2 3.6-4 3.6-.3 0-.7-.1-1.1-.2-1.6-.4-3.5-1.7-5.2-2.1v8c5.8 1.5 12.2 3.7 12.2 11.3 0 6.2-4 11-12.2 11.8zm-5.3-31.3c-2.5.3-3.9 1.7-3.9 3.6 0 1.6 1.6 2.5 3.9 3.2v-6.8zm5.3 16.8v7.5c2.7-.6 4.1-2.2 4.1-3.9 0-1.8-1.7-2.8-4.1-3.6zM74.4 43.6H52.8c-2 0-3.8-1.6-3.8-3.9 0-1.3.6-2.6 1.7-3.4 14-10.2 18.4-14.3 18.4-18.7 0-3.2-3-4.9-6-4.9s-5.5.8-7.7 2.3c-.7.5-1.5.7-2.3.7-1.8 0-3.5-1.6-3.5-3.6 0-.6.2-1.1.5-1.6 1.8-2.9 8.1-4.9 12.8-4.9 8 0 14.3 4.5 14.3 11.9 0 6.4-5.3 11.9-15 19h12.2c1.8 0 3.4 1.6 3.4 3.4 0 2.2-1.5 3.7-3.4 3.7zM88.9 44.2c-2.5 0-4.5-2.1-4.5-4.5s2.1-4.5 4.5-4.5 4.5 2.1 4.5 4.5-2 4.5-4.5 4.5zM114.6 44.3c-4.9 0-11.2-1.6-12.9-4.5-.3-.5-.4-1.1-.4-1.6 0-2.1 1.8-3.6 3.8-3.6.7 0 1.4.2 2.1.6 2.2 1.3 4.8 2.1 7.4 2.1 4.4 0 6.9-2.5 6.9-5.5 0-3.3-2.5-5.5-6.7-5.5-2.3 0-4.3.4-6.3 1.8-.9.6-2 1-3.1 1-2.5 0-4-1.6-4-3.8V10.8c0-2.5 2-4.5 4.5-4.5H124c1.8 0 3.4 1.6 3.4 3.5s-1.6 3.5-3.4 3.5h-14.6v9.1c1.8-1.8 4.8-3.1 8.2-3.1 6.3 0 12 4.5 12 12.1 0 7.9-6 12.9-15 12.9zM150.3 44.3c-10.7 0-15.5-9.7-15.5-19.3s4.8-19.3 15.5-19.3c10.6 0 15.5 9.6 15.5 19.3s-4.9 19.3-15.5 19.3zm0-31.5c-5.4 0-7.4 5.3-7.4 12.2 0 6.9 2 12.3 7.4 12.3 5.3 0 7.3-5.4 7.3-12.3s-2-12.2-7.3-12.2z"/></g></svg>