<?xml version="1.0" standalone="no"?><!DOCTYPE svg PUBLIC "-//W3C//DTD SVG 1.1//EN" "http://www.w3.org/Graphics/SVG/1.1/DTD/svg11.dtd"><svg width="100%" height="100%" viewBox="0 0 42 26" version="1.1" xmlns="http://www.w3.org/2000/svg" xmlns:xlink="http://www.w3.org/1999/xlink" xml:space="preserve" style="fill-rule:evenodd;clip-rule:evenodd;stroke-miterlimit:10;"><g id="Layer1"><g id="Layer2"><g><clipPath id="_clip1"><path d="M13.098,0.09c-6.908,0 -12.508,5.595 -12.508,12.5c0,6.904 5.59,12.5 12.508,12.5l16.114,0c6.908,0 12.507,-5.595 12.507,-12.5c0,-6.903 -5.589,-12.5 -12.507,-12.5l-16.114,0Z"/></clipPath><g clip-path="url(#_clip1)"><path d="M13.098,0.09c-6.908,0 -12.508,5.595 -12.508,12.5c0,6.904 5.59,12.5 12.508,12.5l16.114,0c6.908,0 12.507,-5.595 12.507,-12.5c0,-6.903 -5.589,-12.5 -12.507,-12.5l-16.114,0Z" style="fill:#fff;"/></g><clipPath id="_clip2"><path d="M13.098,0.09c-6.908,0 -12.508,5.595 -12.508,12.5c0,6.904 5.59,12.5 12.508,12.5l16.114,0c6.908,0 12.507,-5.595 12.507,-12.5c0,-6.903 -5.589,-12.5 -12.507,-12.5l-16.114,0Z"/></clipPath><g clip-path="url(#_clip2)"><path d="M13.103,23.59l16.104,0l0.147,-0.001l0.143,-0.002l0.141,-0.005l0.142,-0.006l0.14,-0.008l0.14,-0.01l0.14,-0.011l0.139,-0.014l0.139,-0.015l0.138,-0.016l0.137,-0.018l0.137,-0.021l0.137,-0.021l0.135,-0.024l0.135,-0.025l0.135,-0.026l0.134,-0.028l0.133,-0.03l0.133,-0.032l0.132,-0.033l0.132,-0.035l0.13,-0.036l0.131,-0.038l0.129,-0.039l0.129,-0.041l0.128,-0.042l0.127,-0.044l0.127,-0.046l0.126,-0.047l0.125,-0.048l0.125,-0.05l0.123,-0.051l0.123,-0.053l0.123,-0.055l0.121,-0.055l0.121,-0.058l0.119,-0.058l0.119,-0.06l0.119,-0.062l0.117,-0.062l0.117,-0.065l0.115,-0.065l0.115,-0.067l0.114,-0.068l0.113,-0.07l0.112,-0.071l0.111,-0.072l0.111,-0.073l0.109,-0.075l0.108,-0.076l0.108,-0.078l0.106,-0.078l0.106,-0.08l0.104,-0.081l0.104,-0.082l0.102,-0.084l0.102,-0.085l0.1,-0.085l0.1,-0.088l0.098,-0.088l0.097,-0.089l0.097,-0.091l0.095,-0.091l0.094,-0.093l0.093,-0.094l0.091,-0.095l0.091,-0.096l0.089,-0.098l0.089,-0.098l0.087,-0.099l0.086,-0.101l0.085,-0.101l0.083,-0.102l0.083,-0.104l0.081,-0.104l0.08,-0.106l0.078,-0.106l0.078,-0.108l0.076,-0.108l0.075,-0.109l0.073,-0.11l0.072,-0.112l0.071,-0.112l0.07,-0.113l0.068,-0.113l0.067,-0.115l0.066,-0.116l0.064,-0.116l0.063,-0.117l0.061,-0.119l0.06,-0.118l0.059,-0.12l0.057,-0.121l0.056,-0.121l0.054,-0.122l0.053,-0.123l0.051,-0.124l0.05,-0.124l0.049,-0.125l0.047,-0.126l0.045,-0.127l0.044,-0.127l0.043,-0.128l0.041,-0.129l0.039,-0.129l0.038,-0.13l0.036,-0.131l0.035,-0.131l0.033,-0.132l0.032,-0.133l0.029,-0.133l0.029,-0.134l0.026,-0.134l0.025,-0.135l0.024,-0.136l0.021,-0.136l0.02,-0.137l0.019,-0.138l0.016,-0.138l0.015,-0.138l0.014,-0.139l0.011,-0.14l0.01,-0.14l0.008,-0.14l0.006,-0.141l0.005,-0.142l0.002,-0.142l0.001,-0.143l-0.001,-0.142l-0.002,-0.142l-0.005,-0.142l-0.006,-0.141l-0.008,-0.141l-0.01,-0.14l-0.011,-0.139l-0.013,-0.139l-0.015,-0.139l-0.017,-0.138l-0.018,-0.137l-0.02,-0.137l-0.022,-0.136l-0.023,-0.136l-0.025,-0.135l-0.027,-0.134l-0.028,-0.134l-0.03,-0.134l-0.032,-0.132l-0.033,-0.132l-0.034,-0.132l-0.036,-0.13l-0.038,-0.13l-0.04,-0.13l-0.04,-0.128l-0.043,-0.128l-0.044,-0.128l-0.045,-0.126l-0.047,-0.126l-0.049,-0.125l-0.049,-0.125l-0.052,-0.123l-0.053,-0.123l-0.054,-0.122l-0.056,-0.122l-0.057,-0.12l-0.058,-0.12l-0.06,-0.119l-0.062,-0.118l-0.062,-0.117l-0.065,-0.117l-0.065,-0.115l-0.067,-0.115l-0.068,-0.114l-0.07,-0.113l-0.071,-0.112l-0.072,-0.111l-0.073,-0.11l-0.075,-0.109l-0.076,-0.109l-0.077,-0.107l-0.079,-0.106l-0.08,-0.106l-0.081,-0.104l-0.082,-0.104l-0.083,-0.102l-0.085,-0.102l-0.086,-0.1l-0.087,-0.099l-0.088,-0.099l-0.09,-0.097l-0.09,-0.096l-0.092,-0.095l-0.093,-0.094l-0.094,-0.093l-0.095,-0.091l-0.096,-0.091l-0.097,-0.089l-0.098,-0.089l-0.1,-0.087l-0.1,-0.086l-0.102,-0.084l-0.102,-0.084l-0.104,-0.082l-0.104,-0.081l-0.106,-0.08l-0.106,-0.079l-0.107,-0.077l-0.109,-0.076l-0.109,-0.075l-0.11,-0.073l-0.112,-0.072l-0.112,-0.071l-0.113,-0.07l-0.114,-0.068l-0.114,-0.067l-0.116,-0.066l-0.117,-0.064l-0.117,-0.062l-0.118,-0.062l-0.119,-0.06l-0.12,-0.059l-0.121,-0.057l-0.121,-0.055l-0.122,-0.055l-0.123,-0.053l-0.124,-0.051l-0.125,-0.05l-0.125,-0.048l-0.126,-0.047l-0.127,-0.046l-0.127,-0.044l-0.128,-0.042l-0.129,-0.041l-0.13,-0.04l-0.13,-0.037l-0.131,-0.037l-0.131,-0.034l-0.132,-0.033l-0.133,-0.032l-0.134,-0.03l-0.134,-0.028l-0.135,-0.027l-0.135,-0.025l-0.136,-0.023l-0.136,-0.022l-0.137,-0.02l-0.138,-0.018l-0.138,-0.017l-0.139,-0.015l-0.139,-0.013l-0.14,-0.012l-0.141,-0.009l-0.14,-0.008l-0.142,-0.007l-0.142,-0.004l-0.142,-0.003l-0.148,-0.001l-16.104,0l-0.148,0.001l-0.142,0.003l-0.142,0.004l-0.141,0.007l-0.141,0.008l-0.14,0.009l-0.139,0.012l-0.14,0.013l-0.138,0.015l-0.138,0.017l-0.138,0.018l-0.137,0.02l-0.136,0.022l-0.136,0.023l-0.135,0.025l-0.134,0.027l-0.134,0.028l-0.134,0.03l-0.132,0.031l-0.132,0.034l-0.132,0.034l-0.131,0.036l-0.13,0.038l-0.129,0.04l-0.129,0.041l-0.128,0.042l-0.128,0.044l-0.126,0.045l-0.126,0.047l-0.125,0.049l-0.125,0.05l-0.124,0.051l-0.123,0.053l-0.122,0.054l-0.121,0.056l-0.121,0.057l-0.12,0.059l-0.119,0.06l-0.118,0.061l-0.117,0.063l-0.117,0.064l-0.116,0.066l-0.114,0.067l-0.114,0.068l-0.113,0.069l-0.112,0.071l-0.112,0.072l-0.11,0.074l-0.109,0.075l-0.109,0.076l-0.107,0.077l-0.107,0.079l-0.105,0.08l-0.105,0.081l-0.103,0.082l-0.103,0.083l-0.101,0.085l-0.101,0.086l-0.099,0.087l-0.098,0.088l-0.098,0.09l-0.096,0.09l-0.095,0.092l-0.094,0.093l-0.093,0.094l-0.092,0.095l-0.09,0.096l-0.09,0.097l-0.088,0.099l-0.087,0.099l-0.086,0.1l-0.085,0.102l-0.084,0.102l-0.082,0.104l-0.081,0.104l-0.08,0.105l-0.079,0.107l-0.077,0.107l-0.076,0.109l-0.075,0.109l-0.073,0.11l-0.073,0.111l-0.071,0.112l-0.069,0.113l-0.068,0.114l-0.067,0.115l-0.066,0.115l-0.064,0.117l-0.063,0.117l-0.061,0.118l-0.06,0.119l-0.059,0.12l-0.057,0.12l-0.056,0.122l-0.054,0.122l-0.053,0.123l-0.052,0.123l-0.05,0.125l-0.048,0.125l-0.047,0.126l-0.046,0.126l-0.044,0.128l-0.042,0.128l-0.041,0.128l-0.039,0.13l-0.038,0.13l-0.037,0.13l-0.034,0.132l-0.033,0.132l-0.032,0.132l-0.03,0.134l-0.028,0.134l-0.027,0.134l-0.025,0.135l-0.023,0.136l-0.022,0.136l-0.02,0.137l-0.018,0.137l-0.017,0.138l-0.015,0.139l-0.013,0.139l-0.012,0.139l-0.009,0.14l-0.008,0.141l-0.007,0.141l-0.004,0.142l-0.003,0.142l-0.001,0.142l0.001,0.143l0.003,0.142l0.004,0.142l0.007,0.141l0.008,0.14l0.009,0.14l0.012,0.14l0.013,0.139l0.015,0.138l0.017,0.138l0.018,0.138l0.02,0.137l0.022,0.136l0.023,0.136l0.025,0.135l0.027,0.134l0.028,0.134l0.03,0.133l0.031,0.133l0.033,0.132l0.035,0.131l0.036,0.131l0.038,0.13l0.039,0.129l0.041,0.129l0.042,0.128l0.044,0.127l0.046,0.127l0.047,0.126l0.048,0.125l0.05,0.124l0.051,0.124l0.053,0.123l0.055,0.122l0.055,0.121l0.057,0.121l0.059,0.119l0.06,0.119l0.061,0.119l0.063,0.117l0.064,0.116l0.066,0.116l0.067,0.115l0.068,0.113l0.069,0.113l0.071,0.112l0.072,0.111l0.074,0.111l0.075,0.109l0.076,0.108l0.077,0.108l0.079,0.106l0.079,0.105l0.081,0.105l0.083,0.103l0.083,0.103l0.085,0.101l0.086,0.101l0.087,0.099l0.088,0.098l0.089,0.097l0.091,0.096l0.092,0.096l0.093,0.093l0.093,0.093l0.096,0.092l0.096,0.091l0.097,0.089l0.098,0.088l0.1,0.087l0.1,0.086l0.101,0.085l0.103,0.083l0.103,0.083l0.105,0.081l0.105,0.08l0.107,0.078l0.107,0.078l0.108,0.076l0.11,0.074l0.11,0.074l0.111,0.072l0.112,0.071l0.113,0.07l0.114,0.068l0.115,0.067l0.116,0.065l0.116,0.064l0.118,0.063l0.118,0.062l0.119,0.06l0.12,0.058l0.12,0.057l0.122,0.056l0.122,0.054l0.123,0.053l0.124,0.052l0.124,0.05l0.126,0.048l0.126,0.047l0.126,0.046l0.128,0.044l0.128,0.042l0.129,0.041l0.129,0.039l0.131,0.038l0.13,0.036l0.132,0.035l0.132,0.033l0.133,0.032l0.133,0.029l0.135,0.029l0.134,0.026l0.136,0.025l0.135,0.024l0.137,0.021l0.137,0.02l0.138,0.019l0.138,0.016l0.139,0.015l0.139,0.014l0.14,0.011l0.14,0.01l0.141,0.008l0.142,0.006l0.142,0.005l0.142,0.002l0.148,0.001ZM13.093,26.59l-0.176,-0.001l-0.18,-0.003l-0.18,-0.006l-0.179,-0.008l-0.179,-0.01l-0.178,-0.012l-0.178,-0.015l-0.177,-0.017l-0.176,-0.019l-0.176,-0.021l-0.175,-0.023l-0.174,-0.026l-0.174,-0.027l-0.173,-0.03l-0.172,-0.032l-0.172,-0.034l-0.171,-0.036l-0.17,-0.038l-0.169,-0.04l-0.169,-0.042l-0.167,-0.045l-0.167,-0.046l-0.166,-0.048l-0.165,-0.05l-0.165,-0.052l-0.163,-0.054l-0.162,-0.056l-0.162,-0.058l-0.161,-0.06l-0.159,-0.062l-0.159,-0.064l-0.158,-0.065l-0.157,-0.068l-0.155,-0.069l-0.155,-0.071l-0.154,-0.073l-0.152,-0.074l-0.152,-0.077l-0.151,-0.078l-0.149,-0.08l-0.148,-0.082l-0.148,-0.083l-0.146,-0.085l-0.145,-0.087l-0.144,-0.089l-0.142,-0.09l-0.142,-0.092l-0.14,-0.093l-0.139,-0.095l-0.138,-0.097l-0.137,-0.099l-0.135,-0.1l-0.134,-0.101l-0.133,-0.103l-0.132,-0.105l-0.13,-0.106l-0.129,-0.108l-0.128,-0.109l-0.126,-0.111l-0.125,-0.112l-0.123,-0.114l-0.123,-0.115l-0.12,-0.116l-0.12,-0.118l-0.118,-0.12l-0.116,-0.12l-0.115,-0.123l-0.114,-0.123l-0.112,-0.125l-0.111,-0.126l-0.109,-0.128l-0.108,-0.129l-0.106,-0.13l-0.105,-0.132l-0.103,-0.132l-0.101,-0.134l-0.1,-0.136l-0.098,-0.136l-0.097,-0.138l-0.095,-0.139l-0.094,-0.141l-0.092,-0.141l-0.09,-0.143l-0.088,-0.143l-0.087,-0.145l-0.085,-0.146l-0.084,-0.147l-0.081,-0.149l-0.08,-0.149l-0.078,-0.15l-0.077,-0.152l-0.075,-0.153l-0.072,-0.153l-0.071,-0.155l-0.07,-0.155l-0.067,-0.157l-0.065,-0.158l-0.064,-0.158l-0.062,-0.16l-0.06,-0.16l-0.057,-0.162l-0.056,-0.162l-0.055,-0.163l-0.052,-0.164l-0.05,-0.165l-0.048,-0.166l-0.046,-0.167l-0.044,-0.167l-0.042,-0.169l-0.041,-0.169l-0.038,-0.169l-0.036,-0.171l-0.034,-0.171l-0.031,-0.172l-0.03,-0.173l-0.028,-0.174l-0.025,-0.174l-0.023,-0.175l-0.022,-0.175l-0.019,-0.176l-0.016,-0.177l-0.015,-0.177l-0.012,-0.178l-0.011,-0.179l-0.007,-0.179l-0.006,-0.179l-0.004,-0.18l-0.001,-0.181l0.001,-0.18l0.004,-0.18l0.006,-0.18l0.007,-0.179l0.011,-0.179l0.012,-0.177l0.015,-0.178l0.017,-0.177l0.019,-0.176l0.021,-0.175l0.023,-0.175l0.026,-0.174l0.027,-0.174l0.03,-0.173l0.032,-0.172l0.034,-0.171l0.036,-0.171l0.038,-0.17l0.04,-0.169l0.042,-0.168l0.045,-0.168l0.046,-0.166l0.048,-0.166l0.05,-0.165l0.053,-0.164l0.054,-0.163l0.056,-0.163l0.058,-0.161l0.06,-0.161l0.062,-0.159l0.063,-0.159l0.066,-0.157l0.067,-0.157l0.07,-0.156l0.071,-0.154l0.073,-0.154l0.074,-0.153l0.077,-0.151l0.078,-0.151l0.08,-0.149l0.082,-0.148l0.083,-0.147l0.085,-0.146l0.087,-0.145l0.089,-0.144l0.09,-0.143l0.092,-0.141l0.094,-0.14l0.095,-0.139l0.097,-0.138l0.098,-0.137l0.1,-0.135l0.102,-0.134l0.103,-0.133l0.105,-0.131l0.106,-0.131l0.108,-0.129l0.109,-0.127l0.111,-0.126l0.112,-0.125l0.114,-0.124l0.115,-0.122l0.116,-0.121l0.118,-0.119l0.12,-0.118l0.121,-0.117l0.122,-0.115l0.124,-0.113l0.125,-0.112l0.126,-0.111l0.128,-0.109l0.129,-0.108l0.13,-0.106l0.131,-0.105l0.133,-0.103l0.134,-0.101l0.136,-0.1l0.137,-0.099l0.137,-0.096l0.14,-0.096l0.14,-0.093l0.141,-0.092l0.143,-0.09l0.144,-0.089l0.145,-0.086l0.146,-0.086l0.147,-0.083l0.148,-0.082l0.15,-0.08l0.15,-0.078l0.152,-0.076l0.153,-0.075l0.153,-0.073l0.155,-0.071l0.156,-0.069l0.156,-0.067l0.158,-0.066l0.159,-0.063l0.159,-0.062l0.161,-0.06l0.161,-0.058l0.163,-0.056l0.163,-0.054l0.164,-0.052l0.165,-0.05l0.166,-0.049l0.167,-0.046l0.168,-0.044l0.168,-0.042l0.169,-0.04l0.17,-0.038l0.171,-0.036l0.171,-0.034l0.172,-0.032l0.173,-0.03l0.174,-0.028l0.174,-0.025l0.175,-0.023l0.175,-0.022l0.177,-0.019l0.176,-0.016l0.178,-0.015l0.178,-0.012l0.178,-0.011l0.179,-0.007l0.18,-0.006l0.18,-0.004l0.176,-0.001l16.124,0l0.176,0.001l0.18,0.004l0.18,0.006l0.179,0.007l0.179,0.011l0.178,0.012l0.178,0.015l0.177,0.016l0.176,0.019l0.176,0.022l0.175,0.023l0.174,0.025l0.174,0.028l0.173,0.03l0.172,0.032l0.172,0.034l0.171,0.036l0.17,0.038l0.169,0.04l0.168,0.042l0.168,0.044l0.167,0.046l0.166,0.049l0.165,0.05l0.164,0.052l0.164,0.054l0.162,0.056l0.162,0.058l0.16,0.06l0.16,0.062l0.159,0.063l0.157,0.066l0.157,0.067l0.156,0.07l0.155,0.071l0.153,0.072l0.153,0.075l0.152,0.077l0.15,0.078l0.15,0.08l0.148,0.081l0.147,0.084l0.147,0.085l0.145,0.087l0.143,0.088l0.143,0.091l0.142,0.091l0.14,0.094l0.139,0.095l0.138,0.097l0.136,0.098l0.136,0.1l0.134,0.102l0.133,0.103l0.131,0.104l0.131,0.107l0.129,0.107l0.127,0.11l0.127,0.11l0.124,0.112l0.124,0.114l0.122,0.115l0.121,0.117l0.119,0.118l0.118,0.119l0.117,0.121l0.115,0.122l0.114,0.124l0.112,0.125l0.111,0.126l0.109,0.128l0.108,0.128l0.106,0.131l0.104,0.131l0.103,0.133l0.102,0.134l0.1,0.135l0.098,0.137l0.097,0.138l0.095,0.139l0.094,0.14l0.091,0.142l0.091,0.142l0.088,0.144l0.087,0.145l0.085,0.146l0.083,0.147l0.082,0.148l0.08,0.15l0.078,0.15l0.077,0.152l0.074,0.152l0.073,0.154l0.071,0.154l0.069,0.156l0.068,0.157l0.065,0.157l0.064,0.159l0.061,0.16l0.06,0.16l0.058,0.161l0.056,0.163l0.054,0.163l0.052,0.164l0.051,0.165l0.048,0.166l0.046,0.166l0.044,0.168l0.042,0.168l0.04,0.169l0.038,0.17l0.036,0.171l0.034,0.171l0.032,0.172l0.03,0.173l0.027,0.173l0.026,0.175l0.023,0.174l0.021,0.176l0.019,0.176l0.017,0.177l0.015,0.177l0.012,0.178l0.01,0.178l0.008,0.179l0.006,0.18l0.003,0.18l0.001,0.18l-0.001,0.181l-0.003,0.18l-0.006,0.18l-0.008,0.179l-0.01,0.178l-0.012,0.178l-0.015,0.177l-0.017,0.177l-0.019,0.176l-0.021,0.176l-0.023,0.175l-0.026,0.174l-0.028,0.173l-0.029,0.173l-0.032,0.172l-0.034,0.172l-0.036,0.17l-0.038,0.17l-0.041,0.169l-0.042,0.169l-0.044,0.167l-0.046,0.167l-0.048,0.166l-0.051,0.165l-0.052,0.164l-0.054,0.163l-0.056,0.162l-0.058,0.162l-0.06,0.16l-0.062,0.16l-0.064,0.159l-0.065,0.157l-0.068,0.157l-0.069,0.155l-0.071,0.155l-0.073,0.154l-0.075,0.152l-0.076,0.152l-0.078,0.15l-0.08,0.15l-0.082,0.148l-0.084,0.147l-0.085,0.146l-0.087,0.145l-0.088,0.144l-0.091,0.142l-0.091,0.142l-0.094,0.14l-0.095,0.139l-0.097,0.138l-0.098,0.136l-0.1,0.136l-0.102,0.134l-0.103,0.133l-0.105,0.131l-0.106,0.13l-0.108,0.129l-0.109,0.128l-0.111,0.126l-0.112,0.125l-0.114,0.123l-0.115,0.123l-0.117,0.12l-0.118,0.12l-0.119,0.118l-0.121,0.116l-0.122,0.115l-0.124,0.114l-0.125,0.112l-0.126,0.111l-0.128,0.109l-0.129,0.108l-0.13,0.106l-0.132,0.104l-0.133,0.104l-0.134,0.101l-0.135,0.1l-0.137,0.098l-0.138,0.097l-0.139,0.095l-0.14,0.094l-0.142,0.091l-0.142,0.091l-0.144,0.088l-0.145,0.087l-0.146,0.085l-0.147,0.084l-0.149,0.081l-0.149,0.08l-0.151,0.078l-0.151,0.077l-0.153,0.074l-0.154,0.073l-0.154,0.071l-0.156,0.07l-0.157,0.067l-0.157,0.065l-0.159,0.064l-0.16,0.062l-0.16,0.06l-0.162,0.058l-0.162,0.056l-0.164,0.054l-0.164,0.052l-0.165,0.05l-0.166,0.048l-0.166,0.046l-0.168,0.045l-0.168,0.042l-0.169,0.04l-0.17,0.038l-0.171,0.036l-0.171,0.034l-0.173,0.032l-0.172,0.03l-0.174,0.027l-0.174,0.026l-0.175,0.023l-0.176,0.021l-0.176,0.019l-0.177,0.017l-0.177,0.015l-0.178,0.012l-0.179,0.01l-0.179,0.008l-0.179,0.006l-0.181,0.003l-0.175,0.001l-16.124,0Z" style="fill:#000;fill-opacity:0.101961;"/></g><clipPath id="_clip3"><path d="M13.09,23.881c6.236,0 11.291,-5.055 11.291,-11.291c0,-6.235 -5.055,-11.29 -11.291,-11.29c-6.235,0 -11.29,5.055 -11.29,11.29c0,6.236 5.055,11.291 11.29,11.291Z"/></clipPath><g clip-path="url(#_clip3)"><rect x="-3.2" y="-3.7" width="32.581" height="32.581" style="fill:#fff;fill-rule:nonzero;"/></g><clipPath id="_clip4"><path d="M-8.2,-8.7l42.581,0l0,42.581l-42.581,0l0,-42.581ZM13.09,23.881c6.236,0 11.291,-5.055 11.291,-11.291c0,-6.235 -5.055,-11.29 -11.291,-11.29c-6.235,0 -11.29,5.055 -11.29,11.29c0,6.236 5.055,11.291 11.29,11.291Z"/></clipPath><g clip-path="url(#_clip4)"><path d="M13.09,23.881c6.236,0 11.291,-5.055 11.291,-11.291c0,-6.235 -5.055,-11.29 -11.291,-11.29c-6.235,0 -11.29,5.055 -11.29,11.29c0,6.236 5.055,11.291 11.29,11.291Z" style="fill:none;stroke-width:1px;stroke:#000;stroke-opacity:0.101961;"/></g></g></g></g></svg>