<?xml version="1.0" standalone="no"?><!DOCTYPE svg PUBLIC "-//W3C//DTD SVG 1.1//EN" "http://www.w3.org/Graphics/SVG/1.1/DTD/svg11.dtd"><svg width="100%" height="100%" viewBox="0 0 42 26" version="1.1" xmlns="http://www.w3.org/2000/svg" xmlns:xlink="http://www.w3.org/1999/xlink" xml:space="preserve" style="fill-rule:evenodd;clip-rule:evenodd;stroke-miterlimit:10;"><g id="Layer1"><g id="Layer11"><g><clipPath id="_clip1"><path d="M13.008,0.09c-6.908,0 -12.508,5.595 -12.508,12.5c0,6.904 5.59,12.5 12.508,12.5l16.113,0c6.908,0 12.508,-5.595 12.508,-12.5c0,-6.903 -5.59,-12.5 -12.508,-12.5l-16.113,0Z"/></clipPath><g clip-path="url(#_clip1)"><rect x="0.5" y="-0.41" width="42" height="30" style="fill:#4cd864;fill-rule:nonzero;"/></g><clipPath id="_clip2"><path d="M29.129,23.881c6.236,0 11.29,-5.055 11.29,-11.291c0,-6.235 -5.054,-11.29 -11.29,-11.29c-6.235,0 -11.29,5.055 -11.29,11.29c0,6.236 5.055,11.291 11.29,11.291Z"/></clipPath><g clip-path="url(#_clip2)"><rect x="12.839" y="-3.7" width="32.581" height="32.581" style="fill:#fff;fill-rule:nonzero;"/></g><clipPath id="_clip3"><path d="M7.839,-8.7l42.58,0l0,42.581l-42.58,0l0,-42.581ZM29.129,23.881c6.236,0 11.29,-5.055 11.29,-11.291c0,-6.235 -5.054,-11.29 -11.29,-11.29c-6.235,0 -11.29,5.055 -11.29,11.29c0,6.236 5.055,11.291 11.29,11.291Z"/></clipPath><g clip-path="url(#_clip3)"><path d="M29.129,23.881c6.236,0 11.29,-5.055 11.29,-11.291c0,-6.235 -5.054,-11.29 -11.29,-11.29c-6.235,0 -11.29,5.055 -11.29,11.29c0,6.236 5.055,11.291 11.29,11.291Z" style="fill:none;stroke-width:1px;stroke:#000;stroke-opacity:0.101961;"/></g></g></g></g></svg>