<svg version="1" xmlns="http://www.w3.org/2000/svg" width="555.8" height="400.9" viewBox="0 0 555.8 400.9"><path fill="#EFB670" d="M79.4 258.3c1.6-5.6 6.2-8.4 13.7-6.2l75.5 19.6c7.5 2.1 12.3 8.4 10.7 14.1l-1.5 5.4c-1.6 5.6-9 8.4-16.5 6.3l-72.7-19.6c-7.5-2.2-12.3-8.4-10.7-14.1l1.5-5.5zM70.6 223.6c1.6-5.6 9-8.4 16.5-6.3l95.2 26c7.5 2.2 12.3 8.5 10.7 14.1l-1.5 5.4c-1.6 5.6-9 8.4-16.5 6.2l-95.2-26c-7.5-2.1-12.3-8.4-10.7-14l1.5-5.4zM68.1 190.7c1.6-5.6 9-8.4 16.5-6.3l104.8 28.8c7.5 2.2 12.3 8.4 10.7 14.1l-1.5 5.4c-1.6 5.6-9 8.4-16.5 6.3L77.2 210.1c-7.5-2.1-12.3-8.4-10.7-14.1l1.6-5.3zM26.4 144.8c1.6-5.6 8.3-8.6 15-6.7l90.6 26.5c6.7 1.9 10.8 8 9.2 13.6l-1.5 5.4c-1.6 5.6-8.3 8.6-15 6.7l-90.6-26.5c-6.7-1.9-10.8-8-9.2-13.6l1.5-5.4z"/><path fill="#92C1CC" d="M102 312.7c4.9-14.9 5.6-50.2-.2-99.4-5.4-46.4-10.8-55.3-17.9-64.5C43.5 144.3 7.9 99.9 1.1 42 .2 34.1-.1 26.5 0 19L162.6 0c1.9 7.2 3.3 14.7 4.3 22.5 6.8 57.9-17.7 109.3-55.9 123-4.8 10.7-8 20.5-2.6 66.9 5.8 49.2 14.7 83.4 22.9 96.8 40.2-3.8 71.3-2.8 71.9 2.6l-170.6 20c-.7-5.4 29.4-13.5 69.4-19.1z"/><path fill="#79AFB7" d="M102 312.7c4.9-14.9 5.6-50.2-.2-99.4-5.4-46.4-10.8-55.3-17.9-64.5C43.5 144.3 7.9 99.9 1.1 42 .2 34.1-.1 26.5 0 19l81.3-9.5 36.5 312.3-85.3 10c-.6-5.4 29.5-13.5 69.5-19.1z"/><path fill="#FDDB36" d="M154.5 50.7c-1.6 44.8-25.7 82.2-58.3 86.1-36.4 4.3-72.3-34.8-79.9-86.1h138.2z"/><path fill="#FFF" d="M121.7 16.1l17-2c5.8 53-6.5 100.8-27.9 117.3 10.3-24.2 14.7-67.1 10.9-115.3z"/><path fill="#FBAC35" d="M86.2 50.7l10.1 86.1c-36.5 4.2-72.4-34.8-80-86.1h69.9z"/><path fill="#EFB670" d="M118.4 160.7l83.6 23.9c9.5 2.7 16.8 9.3 20.8 17.5l61.3 17.5v86l-4.4 15.4-85.3-24.4c-7.5 4.1-16.5 5.4-25.3 2.9l-78-21.1 27.3-117.7z"/><path fill="#FECB84" d="M141.5 196.8c0-10 2.7-19.3 7.3-27.4l53.2 15.2c9.5 2.7 16.8 9.3 20.8 17.5l28.3 8.1c-6 24.2-27.8 42.2-53.9 42.2-30.8 0-55.7-24.9-55.7-55.6z"/><path fill="#757D33" d="M533.6 400.9l-326.3-92L239 198.2l316.8 92.4"/><path fill="#9CAC3A" d="M544.5 347.2l-321.3-93.7 15.8-55.3 316.8 92.4"/><path fill="#FECB84" d="M118.5 114.6l-5.1 5.2c-5.4 5.4-5 14.5.8 20.3l92.1 91.1 11-37.2-78.4-78.7c-6-5.9-15-6.2-20.4-.7z"/><g><path fill="#FECB84" d="M68.3 189c1.7-5.6 9.2-8.2 16.7-5.8l48.8 14.3c7.5 2.4 12.1 8.8 10.3 14.3l-1.7 5.3c-1.7 5.6-9.2 8.2-16.6 5.8L77 208.6c-7.5-2.3-12.1-8.7-10.3-14.3l1.6-5.3z"/></g><g><path fill="#FECB84" d="M79.6 255.8c1.5-4.9 8.1-7.2 14.7-5.1l33.2 9.8c6.6 2.1 10.6 7.7 9.1 12.6l-1.6 7.2c-1.5 4.9-8.1 7.2-14.6 5.1l-33.2-9.8c-6.6-2-10.6-7.7-9.1-12.6l1.5-7.2z"/></g><g><path fill="#FECB84" d="M70.8 221.9c1.7-5.6 9.2-8.2 16.7-5.8l44.5 12.5c7.5 2.4 12.1 8.8 10.3 14.4l-1.7 5.3c-1.7 5.6-9.2 8.2-16.6 5.8l-44.5-12.5c-7.5-2.3-12.1-8.7-10.3-14.3l1.6-5.4z"/></g></svg>