<svg version="1" xmlns="http://www.w3.org/2000/svg" width="555.8" height="400.9" viewBox="0 0 555.8 400.9"><path fill="#EFB670" d="M476.4 258.3c-1.6-5.6-6.2-8.4-13.7-6.2l-75.5 19.6c-7.5 2.1-12.3 8.4-10.7 14.1l1.5 5.4c1.6 5.6 9 8.4 16.5 6.3l72.7-19.6c7.5-2.2 12.3-8.4 10.7-14.1l-1.5-5.5zM485.2 223.6c-1.6-5.6-9-8.4-16.5-6.3l-95.2 26c-7.5 2.2-12.3 8.5-10.7 14.1l1.5 5.4c1.6 5.6 9 8.4 16.5 6.2l95.2-26c7.5-2.1 12.3-8.4 10.7-14l-1.5-5.4zM487.7 190.7c-1.6-5.6-9-8.4-16.5-6.3l-104.8 28.8c-7.5 2.2-12.3 8.4-10.7 14.1l1.5 5.4c1.6 5.6 9 8.4 16.5 6.3l104.8-28.8c7.5-2.1 12.3-8.4 10.7-14.1l-1.5-5.4zM529.4 144.8c-1.6-5.6-8.3-8.6-15-6.7l-90.6 26.5c-6.7 1.9-10.8 8-9.2 13.6l1.5 5.4c1.6 5.6 8.3 8.6 15 6.7l90.6-26.5c6.7-1.9 10.8-8 9.2-13.6l-1.5-5.4z"/><path fill="#92C1CC" d="M453.8 312.7c-4.9-14.9-5.6-50.2.2-99.4 5.4-46.4 10.8-55.3 17.9-64.5 40.4-4.5 76-48.9 82.8-106.8.9-7.8 1.2-15.5 1.1-22.9L393.2 0c-1.9 7.2-3.3 14.7-4.3 22.5-6.8 57.9 17.7 109.3 55.9 123 4.8 10.7 8 20.5 2.6 66.9-5.8 49.2-14.7 83.4-22.9 96.8-40.2-3.8-71.3-2.8-71.9 2.6l170.6 20c.7-5.4-29.4-13.5-69.4-19.1z"/><path fill="#79AFB7" d="M453.8 312.7c-4.9-14.9-5.6-50.2.2-99.4 5.4-46.4 10.8-55.3 17.9-64.5 40.4-4.5 76-48.9 82.8-106.8.9-7.8 1.2-15.5 1.1-22.9l-81.3-9.5L438 321.9l85.3 10c.6-5.5-29.5-13.6-69.5-19.2z"/><path fill="#FDDB36" d="M401.2 50.7c1.6 44.8 25.7 82.2 58.3 86.1 36.4 4.3 72.3-34.8 79.9-86.1H401.2z"/><path fill="#FFF" d="M434.1 16.1l-17-2c-5.8 53 6.5 100.8 27.9 117.3-10.3-24.2-14.7-67.1-10.9-115.3z"/><path fill="#FBAC35" d="M469.6 50.7l-10.1 86.1c36.4 4.2 72.3-34.8 79.9-86.1h-69.8z"/><path fill="#EFB670" d="M437.4 160.7l-83.6 23.9c-9.5 2.7-16.8 9.3-20.8 17.5l-61.3 17.5v86l4.4 15.4 85.3-24.4c7.5 4.1 16.5 5.4 25.3 2.9l78-21.1-27.3-117.7z"/><path fill="#FECB84" d="M414.3 196.8c0-10-2.7-19.3-7.3-27.4l-53.2 15.2c-9.5 2.7-16.8 9.3-20.8 17.5l-28.3 8.1c6 24.2 27.8 42.2 53.9 42.2 30.8 0 55.7-24.9 55.7-55.6z"/><path fill="#0C3854" d="M22.2 400.9l326.3-92-31.7-110.7L0 290.6"/><path fill="#13517A" d="M11.3 347.2l321.3-93.7-15.8-55.3L0 290.6"/><path fill="#FECB84" d="M437.3 114.6l5.1 5.2c5.4 5.4 5 14.5-.8 20.3l-92.1 91.1-11-37.2 78.4-78.7c5.9-5.9 15-6.2 20.4-.7z"/><g><path fill="#FECB84" d="M487.5 189c-1.7-5.6-9.2-8.2-16.7-5.8L422 197.5c-7.5 2.4-12.1 8.8-10.3 14.3l1.7 5.3c1.7 5.6 9.2 8.2 16.6 5.8l48.8-14.3c7.5-2.3 12.1-8.7 10.3-14.3l-1.6-5.3z"/></g><g><path fill="#FECB84" d="M476.2 255.8c-1.5-4.9-8.1-7.2-14.7-5.1l-33.2 9.8c-6.6 2.1-10.6 7.7-9.1 12.6l1.6 7.2c1.5 4.9 8.1 7.2 14.6 5.1l33.2-9.8c6.6-2 10.6-7.7 9.1-12.6l-1.5-7.2z"/></g><g><path fill="#FECB84" d="M485 221.9c-1.7-5.6-9.2-8.2-16.7-5.8l-44.5 12.5c-7.5 2.4-12.1 8.8-10.3 14.4l1.7 5.3c1.7 5.6 9.2 8.2 16.6 5.8l44.5-12.5c7.5-2.3 12.1-8.7 10.3-14.3l-1.6-5.4z"/></g></svg>