<svg version="1" xmlns="http://www.w3.org/2000/svg" xmlns:xlink="http://www.w3.org/1999/xlink" width="153.8" height="258.5" viewBox="0 0 153.8 258.5"><path fill="#FFF" d="M-.02.392L154.38.01l.64 258.2-154.4.382z"/><path opacity=".6" fill="#E2E2E2" d="M20.3 258.5l134.7-.3L154.4 0H136"/><g fill="#E6B923"><path d="M99 63.5l-9.5 22 6.1 2.2 6.4-23.1M62.7 161.6l-6.4 23.1 3.1 1 9.4-21.9M118.3 135l-2.1 6.1 23 6.4 1.1-3.1M19.2 101.8l-1.1 3.1 21.9 9.4 2.2-6.1M136.4 95.4l-22.2 8.9 2.8 5.8 20.8-11.7M41.4 139.2l-20.8 11.7 1.4 3 22.2-8.9M99.5 159.6l-5.8 2.8 11.8 20.8 2.9-1.4M52.9 66.1L50 67.4l8.8 22.3 5.9-2.8"/></g><defs><circle id="a" cx="79.2" cy="124.6" r="33.4"/></defs><use xlink:href="#a" overflow="visible" fill="#2A89C1"/><defs><circle id="b" cx="79.2" cy="124.6" r="33.4"/></defs><clipPath id="c"><use xlink:href="#b" overflow="visible"/></clipPath><path clip-path="url(#c)" fill="#277BAC" d="M65.7 129.9l35.4 35.3 20.8-25.6L92.2 110l-14.4 20.4"/><path fill="#277BAC" d="M66.7 118.3L84.5 136l-15.8-7.7"/><g><path fill-rule="evenodd" clip-rule="evenodd" fill="#FFF" d="M60.2 124c2.1-1.8 4.1-3.6 6.5-5.6 2.7 3 5.8 6.5 8.8 9.9 6.6-6.8 10.7-12 16.7-18.2 2.3 2.5 4.2 4.4 5.9 6.2-8 7.9-14.4 14.8-22.8 23.1-4.6-4.5-9.9-9.6-15.1-14.7v-.7z"/></g><g><path fill="#FFF" d="M12.17 211.17l56-.14.06 24.1-56 .14z"/><defs><path id="d" d="M68.3 236.8c0 1-.8 1.7-1.7 1.7l-52.7.1c-1 0-1.7-.8-1.7-1.7l-.1-30.5c0-1 .8-1.7 1.7-1.7l52.7-.1c1 0 1.7.8 1.7 1.7l.1 30.5z"/></defs><clipPath id="e"><use xlink:href="#d" overflow="visible"/></clipPath><g fill-rule="evenodd" clip-rule="evenodd" fill="#0078A9" clip-path="url(#e)"><path d="M10.2 247H10v-.3s0-.1-.1-.1h-.3v.4h-.1v-.9h.4c.2 0 .3 0 .3.2 0 .1 0 .2-.1.2 0 0 .1.1.1.2v.2c-.1 0-.1 0 0 .1zm-.2-.7c0-.1-.1-.1-.1-.1h-.3v.3h.3s.1-.1.1-.2m.8.2c0-.5-.5-1-1.1-1-.6 0-1 .4-1 1s.5 1 1 1c.6 0 1.1-.4 1.1-1m-.2 0c0 .5-.4.8-.9.8s-.9-.3-.9-.8c0-.4.4-.8.9-.8s.9.4.9.8M68.6 228.6c0 1.3-.9 1.9-2.5 1.9h-3v-1.3h3c.3 0 .5 0 .6-.1.1-.1.2-.2.2-.4s-.1-.4-.2-.4c-.1-.1-.3-.1-.6-.1-1.4 0-3.3.1-3.3-1.9 0-.9.6-1.8 2.3-1.8h3.1v1.3h-2.9c-.3 0-.5 0-.6.1-.1.1-.2.3-.2.5s.1.4.3.4c.2 0 .4.1.6.1h.9c.9 0 1.5.2 1.8.5.3.2.5.6.5 1.2m-6.6-1.3c-.4-.3-1-.5-1.8-.5h-.9c-.2 0-.4 0-.6-.1-.2-.1-.3-.2-.3-.4s0-.3.2-.5c.1-.1.3-.1.6-.1h2.9v-1.3H59c-1.7 0-2.3 1-2.3 1.8 0 2 1.8 1.9 3.3 1.9.3 0 .5 0 .6.1.1.1.2.3.2.4 0 .2-.1.3-.2.4-.1.1-.3.1-.6.1h-3v1.3h3c1.6 0 2.5-.6 2.5-1.9-.1-.5-.3-.9-.5-1.2m-6.1 2h-3.7v-1.2h3.6v-1.2h-3.6v-1.1h3.7v-1.3h-5.3v6.2h5.3v-1.4zm-6.9-4.6c-.5-.3-1.1-.3-1.9-.3h-3.6v6.2h1.6v-2.2h1.7c.6 0 .9 0 1.1.3.3.3.3.8.3 1.2v.7h1.6v-1.2c0-.6-.1-.8-.2-1.1-.1-.2-.4-.4-.8-.5.4-.1 1.1-.7 1.1-1.6-.1-.8-.4-1.2-.9-1.5m-9-.3h-5l-2 2-1.9-2h-6.4v6.2H31l2-2 1.9 2h3v-2.1h2c1.4 0 2.7-.4 2.7-2.1.1-1.6-1.3-2-2.6-2m7.7 2.6c-.2.1-.5.1-.8.1l-1.9.1v-1.4h1.9c.3 0 .6 0 .8.1.2.1.3.3.3.5s-.1.4-.3.6m-7.7.3h-2.1v-1.6H40c.6 0 .9.2.9.7.1.6-.3.9-.9.9m-6 .2l2.4-2.4v5l-2.4-2.6zm-3.9 1.9h-3.9v-1.2h3.5V227h-3.5v-1.1h4l1.7 1.8-1.8 1.7zm34.1-9.5h-2.3l-3-4.6v4.6h-3.2l-.6-1.4h-3.3l-.6 1.4h-1.8c-.8 0-1.7-.2-2.3-.7-.5-.5-.8-1.2-.8-2.3 0-.9.1-1.7.9-2.4.5-.5 1.3-.7 2.4-.7h1.5v1.3h-1.5c-.6 0-.9.1-1.2.3-.3.3-.4.8-.4 1.4 0 .7.1 1.1.4 1.5.2.2.7.3 1.1.3h.7l2.2-4.8h2.3l2.7 5.8v-5.8h2.4l2.8 4.3v-4.3h1.6v6.1zm-18.7-6.1h-1.6v6.2h1.6v-6.2zm-3.3.3c-.5-.3-1.1-.3-1.9-.3h-3.6v6.2h1.5v-2.2h1.7c.6 0 .9 0 1.2.2.3.3.2.8.2 1.2v.8h1.6v-1.2c0-.5-.1-.8-.3-1.1-.1-.2-.4-.4-.8-.5.4-.2 1.1-.7 1.1-1.6.1-.8-.2-1.2-.7-1.5m-6.7 4.6h-3.7v-1.2h3.6v-1.3h-3.6v-1.1h3.7v-1.3h-5.3v6.2h5.3v-1.3zm-6.4-4.8h-2.6l-1.9 4.2-2.1-4.2H20v5.8l-2.7-5.8H15l-2.8 6.2h1.7l.6-1.4h3.3l.6 1.4h3.2v-4.8l2.3 4.8h1.4l2.3-4.8v4.8h1.6l-.1-6.2zm25.5 3.4l-1.1-2.4-1.1 2.4h2.2zm-13.7-1c-.2.1-.5.1-.8.1h-1.9V215h1.9c.3 0 .6 0 .8.1.2.1.3.3.3.6s-.1.6-.3.6m-26 1.1L16 215l1.1 2.4h-2.2zm53.2-22.9l-56.1.1.1 22.2 1.9-4.1h4.1l.6 1v-1h4.8l1.1 2.2 1.1-2.2H41c.7 0 1.3.1 1.8.5v-.5H47v.5c.7-.4 1.6-.5 2.6-.5h6.1l.6 1v-1h4.5l.7 1v-1h4.4v8.6h-4.4l-.9-1.3v1.3h-5.5l-.6-1.4h-1.4l-.6 1.4h-2.9c-1.1 0-2-.2-2.5-.5v.5h-6.8v-2c0-.3 0-.3-.2-.3h-.2v2.3H26.7v-1.1l-.5 1.1h-2.8l-.5-1.1v1.1h-5.3l-.6-1.4h-1.4l-.6 1.4h-2.7l.1 26 56.1-.1v-15.8c-.6.3-1.4.4-2.3.4h-4.1v-.5c-.5.3-1.3.5-2.1.5H47.1v-2c0-.3-.1-.3-.3-.3h-.2v2.2h-4.3v-2.3c-.7.3-1.5.3-2.2.3h-.5v2h-5.2l-1.2-1.3-1.3 1.3h-8.3v-8.6h8.5l1.2 1.3 1.3-1.3h5.7c.7 0 1.7.1 2.2.5v-.5h5.1c.5 0 1.5.1 2.2.5v-.5h7.7v.5c.4-.3 1.2-.5 1.9-.5h4.3v.5c.5-.3 1.1-.5 2-.5h2.9l-.5-28.6z"/></g></g><g><path fill="#FFF" d="M84.07 211.37l55.6-.138.06 23.4-55.6.138z"/><defs><path id="f" d="M85.5 206c-.8 0-1.5.7-1.5 1.5l.1 30.5c0 .8.7 1.5 1.5 1.5l52.7-.1c.8 0 1.5-.7 1.5-1.5l-.1-30.5c0-.8-.7-1.5-1.5-1.5l-52.7.1z"/></defs><clipPath id="g"><use xlink:href="#f" overflow="visible"/></clipPath><g clip-path="url(#g)" fill-rule="evenodd" clip-rule="evenodd"><path fill="#097CB4" d="M141 213.6l-.1-8.3-58.1.2v8.3l58.2-.2"/><path fill="#F0C14B" d="M141 239.8v-8.3l-58.1.2v8.3l58.1-.2"/><path fill="#097CB4" d="M102.8 229.2l3.9-13.1h3.6l-4 13.1h-3.5M101.2 216.2l-3.2 5.6c-.8 1.5-1.3 2.2-1.5 3.1.1-1.2-.1-2.6-.1-3.4l-.4-5.3h-6l-.1.4c1.5 0 2.4.8 2.7 2.3l1.2 10.4h3.7l7.4-13.1h-3.7zM128.8 229.2l-.1-1.9h-4.4l-.9 2h-3.8l6.9-13.1h4.7l1.2 13.1-3.6-.1zm-.5-7.7c0-1-.1-2.3 0-3.1h-.1c-.2.7-1.1 2.6-1.5 3.6l-1.3 2.9h3.1l-.2-3.4zM114 229.6c-2.5 0-4.2-.8-5.4-1.5l1.7-2.6c1.1.6 1.9 1.3 3.8 1.3.6 0 1.2-.2 1.5-.8.5-.9-.1-1.3-1.5-2.1l-.7-.4c-2.1-1.4-2.9-2.7-2-5.1.6-1.5 2.2-2.6 4.9-2.6 1.9 0 3.6.8 4.6 1.6l-1.9 2.3c-1-.8-1.8-1.2-2.8-1.2-.7 0-1.3.3-1.5.7-.4.7.1 1.2 1.2 1.9l.8.5c2.5 1.6 3.1 3.2 2.5 4.8-.9 2.6-3 3.2-5.2 3.2z"/></g></g><g><path fill="#E6B923" d="M120.1 17.3c-2-3-7.5-5.1-9.9-2.6-.3.3-.5.6-.7.9.7.1 1.3.5 1.7 1.2.4.8.5 2.9-.2 4.1.2.2.4.5.6.8.2.5.5 1.3.6 2 .5.3 1.1.5 1.5.6.9.2 1.9.2 2.8.1 1.1-.1 2.2-.6 3-1.4 1.2-1.4 1.9-3.7.6-5.7z"/><path fill="#61B9DF" d="M107.2 20.9c.5-.3 1-.6 1.6-.7-.7-1.7-.4-3.3.6-4.7-.8-.2-1.7-.1-2.5.1-1.6.4-2 1.1-2 2.7 0 1.2.6 2.5 1.6 3.1.3-.1.5-.3.7-.5z"/><path fill="#DEBA29" d="M108.8 20.2c.5-.1 1 0 1.5.2.2.1.4.3.5.4.7-1.2.6-3.3.2-4.1-.3-.7-1-1.1-1.7-1.2-.9 1.4-1.2 3-.5 4.7z"/><path fill="#658439" d="M108.8 20.2c.5-.1 1 0 1.5.2.2.1.4.3.5.4.7-1.2.6-3.3.2-4.1-.3-.7-1-1.1-1.7-1.2-.9 1.4-1.2 3-.5 4.7z"/><path fill="#E8138B" d="M109.7 21.7c-.5.2-.8.2-1.3.3-.7.1-1.3-.1-1.8-.5-.8.9-1.2 2.1-.9 3.2.5 0 1 .1 1.3.6.1.2.2.7.1 1.2 1.5.8 2.9.5 4.4-1.4.4-.4.5-.9.5-1.5-.5-.3-1-.6-1.3-.9-.4-.3-.7-.7-1-1z"/><path fill="#DEBA29" d="M110.8 20.8c-.1.2-.3.4-.5.6l-.6.3c.3.4.6.7 1 1.1.2.3.7.6 1.3.9 0-.7-.3-1.5-.6-2-.2-.4-.3-.6-.6-.9z"/><path fill="#C02629" d="M110.8 20.8c-.1.2-.3.4-.5.6l-.6.3c.3.4.6.7 1 1.1.2.3.7.6 1.3.9 0-.7-.3-1.5-.6-2-.2-.4-.3-.6-.6-.9z"/><path fill="#61B8DF" d="M108.4 21.9c.5-.1.8 0 1.3-.3-.4-.5-.7-1-.9-1.5-.6.1-1.2.4-1.6.7l-.6.6c.5.4 1.1.6 1.8.5z"/><path fill="#6E2A77" d="M108.4 21.9c.5-.1.8 0 1.3-.3-.4-.5-.7-1-.9-1.5-.6.1-1.2.4-1.6.7l-.6.6c.5.4 1.1.6 1.8.5z"/><path fill="#DEBA29" d="M110.3 20.4c-.5-.2-1-.3-1.5-.2.2.5.5 1 .9 1.5.2-.1.3-.2.6-.3.2-.1.4-.3.5-.6-.1-.1-.3-.3-.5-.4z"/><path fill="#61B8DF" d="M110.3 20.4c-.5-.2-1-.3-1.5-.2.2.5.5 1 .9 1.5.2-.1.3-.2.6-.3.2-.1.4-.3.5-.6-.1-.1-.3-.3-.5-.4z"/><path fill="#69262E" d="M110.3 20.4c-.5-.2-1-.3-1.5-.2.2.5.5 1 .9 1.5.2-.1.3-.2.6-.3.2-.1.4-.3.5-.6-.1-.1-.3-.3-.5-.4z"/><path fill="#EE8127" d="M105.7 24.7c-.2 0-.4 0-.5.1-.7.2-.9.5-.9 1.2 0 .8.6 1.6 1.5 1.6.3 0 .6-.1.8-.2.3-.3.4-.4.5-.9 0 0-.1-.1-.2-.1-.7-.4-1.1-1-1.2-1.7z"/><path fill="#E8168B" d="M107 25.3c-.2-.5-.8-.6-1.3-.6.2.6.5 1.2 1.2 1.6.1 0 .2.1.2.1 0-.4 0-.9-.1-1.1z"/><path fill="#EF8029" d="M107 25.3c-.2-.5-.8-.6-1.3-.6.2.6.5 1.2 1.2 1.6.1 0 .2.1.2.1 0-.4 0-.9-.1-1.1z"/><path fill="#CF1F42" d="M107 25.3c-.2-.5-.8-.6-1.3-.6.2.6.5 1.2 1.2 1.6.1 0 .1.1.2.1 0-.4 0-.9-.1-1.1"/><path fill="#231F20" d="M115.6 30.2c-.9-.2-2-.4-2.5-.4-3.4 0-5.1 2.2-5.1 5.8 0 2.9 1.2 4.9 3.7 4.9 1.7 0 2.6-.9 3.2-1.9v1c0 .5.3.9.8.9s.8-.4.8-.9v-8c0-.8-.1-1.2-.9-1.4zm-.8 5.5c0 1.4-.9 3.5-3 3.5-1.6 0-2.1-1.8-2.1-3.5 0-2.5.8-4.5 3.1-4.5.8 0 1.5.2 1.9.3l.1 4.2zm-10.5-4.9c0-.5.4-.9.8-.9.5 0 .9.4.9.9v8.8c0 .5-.4.9-.9.9s-.8-.4-.8-.9v-8.8zm-2.8 7.8c.2-.1.5-.3.8-.3.3 0 .6.2.6.7 0 .3-.1.5-.4.7-.7.5-1.8.9-3.1.9-2.9 0-4.5-1.8-4.5-5.3 0-4.1 2.5-5.3 4.4-5.3 1.1 0 2.1.2 3.2 1.1.2.1.3.4.3.6 0 .4-.3.8-.7.8-.2 0-.5-.1-.7-.3-.7-.6-1.2-.7-2.1-.7-1.6 0-2.8 1.2-2.7 3.8 0 2.3.8 4 2.9 4 .7-.2 1.3-.3 2-.7m-12.3-8.7c-2 0-4.6 1.1-4.6 5.3 0 3.7 1.7 5.4 4.3 5.4 2.5 0 4.6-1.7 4.6-5.6 0-4.7-2.9-5.1-4.3-5.1zm-.2 9.4c-2.2 0-2.7-2.3-2.7-4.3 0-2.1 1-3.7 2.8-3.7 1.9 0 2.7 1.6 2.7 4 0 2.2-.9 3.9-2.8 4zm-12.1-.8c.2 0 .4.1.5.2.6.3 1.3.6 2.3.6 1.1 0 1.9-.5 1.9-1.6s-1.1-1.5-2.2-1.9c-1.4-.5-2.9-1-2.9-2.9 0-2.1 1.6-3 3.4-3 1.1 0 2 .3 2.7.7.2.1.4.3.4.7 0 .4-.3.7-.6.7-.2 0-.4-.1-.6-.2-.6-.3-1.2-.5-2-.5s-1.8.3-1.8 1.4c0 1 1.1 1.4 2.2 1.8 1.4.5 3 1.1 3 3 0 2-1.4 3.1-3.5 3.1-1.5 0-2.4-.4-3-.8-.3-.1-.5-.3-.5-.7 0-.3.3-.6.7-.6m-14.4-4.6c0-1.4-.5-2.6-2.1-2.6-1.5 0-2.6 1.5-2.6 3.3v5.1c0 .5-.4.9-.9.9s-.8-.4-.8-.9v-8.8c0-.5.3-.9.8-.9s.8.4.8.9v.7c.7-1.2 1.8-1.6 3-1.6 2.2 0 3.5 1.2 3.5 3.5v6.2c0 .5-.4.9-.9.9s-.8-.4-.8-.9v-5.8zm-14.2-3.3c.1-.3.4-.5.8-.5.6 0 1 .5.8 1.1l-3.2 8.7c-.1.4-.3.7-.8.7-.4 0-.6-.3-.7-.7L42 31.3c-.2-.6.1-1.2.7-1.2.4 0 .7.2.8.5l2.5 6.6 2.3-6.6zM34 26.8c0-.5.4-.9.8-.9.5 0 .9.4.9.9v13.1c0 .5-.4.9-.9.9s-.8-.4-.8-.9V26.8zm85.1-.2c0-.5.4-.9.8-.9.5 0 .9.4.9.9v13.1c0 .5-.4.9-.9.9s-.8-.4-.8-.9V26.6zm-45.6 3.7c-.8-.2-1.6-.3-2.3-.3-2.5 0-4.9 1.8-4.8 5.1 0 3.6 1.6 4.9 3.4 5.1l-.4.2c-1.1.7-2.2 1.6-2.2 3.1 0 1.6 1.1 2.8 3.2 2.8 4 0 4.2-3.8 4.2-6v-8.6c0-1.1-.3-1.3-1.1-1.4zM73 41.1c0 2.3-.5 4-2.5 4-1.1 0-1.8-.5-1.8-1.6 0-.9.9-1.7 2-2.6l2.3-2v2.2zm0-5.3c0 1.5-1 3.1-2.4 3.1-2.5 0-2.6-2.5-2.6-3.7 0-2.5 1.2-3.9 3-3.9.9 0 1.4.1 2 .3v4.2zm-21.2-4.9c0-.5.4-.9.8-.9.5 0 .9.4.9.9v8.8c0 .5-.4.9-.9.9s-.8-.4-.8-.9v-8.8zm-13.2.1c0-.5.4-.9.8-.9.5 0 .9.4.9.9v8.8c0 .5-.4.9-.9.9s-.8-.4-.8-.9V31z"/></g></svg>