<svg version="1" xmlns="http://www.w3.org/2000/svg" width="250.8" height="147.4" viewBox="0 0 250.8 147.4"><path opacity=".2" fill="#1D1D1B" d="M241 53.3c-.7-13.2-11.6-23.8-25-23.8l-159.6-.2c-4.2 0-8.3 1.1-12 3.1-8.1 4.4-13.1 12.8-13.1 22v1.1c-5.6.6-9.8 5.4-9.7 11.1l1.4 46.5c.1 5 3.6 9.1 8.3 10.2.6 13.3 11.6 24 25 24l159.5.1c4.2 0 8.3-1.1 12-3.1 8.1-4.4 13.1-12.8 13.1-22V121c1.5-.1 3-.6 4.2-1.3 3.5-1.9 5.8-5.6 5.6-9.8l-1.4-46.5c0-5-3.6-9.1-8.3-10.1z"/><path fill="#E3CFB8" d="M209.3 33.9l-159.5-.2c-10.3 0-18.7 8.4-18.7 18.7l-.1 67.9c0 10.3 8.4 18.7 18.7 18.7l159.5.1c10.3 0 18.7-8.4 18.7-18.7l.1-67.8c0-10.3-8.4-18.7-18.7-18.7z"/><path fill="#F4ECE4" d="M209.3 27.5l-159.5-.1c-4.2 0-8.3 1.1-12 3.1-8.1 4.4-13.1 12.8-13.1 22l-.1 67.8c0 13.8 11.2 25.1 25 25.1l159.5.1c4.2 0 8.3-1.1 12-3.1 8.1-4.4 13.1-12.8 13.1-22l.1-67.8c.1-13.9-11.2-25.1-25-25.1zm12.3 25.1l-.1 67.8c0 4.5-2.5 8.6-6.4 10.8-1.8 1-3.8 1.5-5.9 1.5l-159.5-.1c-6.8 0-12.3-5.5-12.3-12.3l.1-67.8c0-4.5 2.5-8.6 6.4-10.8 1.8-1 3.8-1.5 5.9-1.5l159.5.1c6.8 0 12.3 5.5 12.3 12.3z"/><path opacity=".2" fill="#1D1D1B" d="M198.8 49c-.8 3.1-1.2 6.5-1.4 9.9-2.5-3.5-6-6.4-10.7-8.3-11.7-4.9-24.7-1.5-32.6 7.6-1.8-2.6-4.1-4.8-6.6-6.6 3-.6 6.3-1.3 6.3-1.3l-10.1-1.1-1.2-.6-2.7-1.6c-.6-2.4-1.9-5.8-3.3-8.5 0-3.3 0-7.1.3-11.2.9-11.5 2.1-18.6 4.4-20.1 2.3-1.5 2.6-3.9-.3-5.2-2.8-1.2-3.9 6.3-6.9 20.3-.9 4-1.1 8.5-1 12.9-1.5 2.1-7.2 10.4-7.2 10.4l-2 .4-11.9-3.3 5.1 4.6 3.3.8c-.2.1-.4.1-.6.2-3.5 1.5-6.6 3.6-9.2 6.3-3.6-7.4-9.4-13.3-16.7-14.8-2.8-.6-5.6-.5-8.3.1-6-7.1-13.5-12.2-18.5-15.2-4.2-2.6-21.2-16.5-17.3-9.4 3.1 5.7-2.3 12.2-2.5 29.1-7.7-.7-14.8.1-19.7.8-4.9.7-26.9 1.1-19.3 4 7.6 2.9 5.7 15.3 27 34.2 9.4 8.3 21.1 10.2 31.3 9.8 1.7 1.4 3.6 2.7 5.6 3.7-1.1.9-2.2 1.8-3.4 2.6-4 2.7-8.1 5.1-12.2 7.5-.6.5-4.4 3.2-4.7 3.4l-1.2.9c-.2.1-.4.3-.6.4-.3.2-.5.4-.8.5 0 .1.1.3.1.4l.3.3v.2c.4.4.8.9 1.2 1.3.7.9 1.5 1.7 1.6 1.8.8.6 1.6 1.2 2.5 1.7 9 6.8 21 9.5 32.7 6.3 10.6-2.9 18.9-10.1 23.6-19.2 3.8 9.9 12.6 19.1 21.8 23 14.5 6.1 28.3-1.9 34.4-16.3.1.1.1.2.2.4s.2.5.4.7c.1.1.2.3.2.4.1.2.2.4.4.6.1.1.2.3.3.4.1.2.3.4.4.6.1.1.2.3.3.4.1.2.3.4.4.6.1.1.2.3.3.4.2.2.3.4.5.6l.3.3c.2.3.5.5.7.8 5.3 5.5 13.3 8.5 22.2 8.4 15.8-.2 28.5-10 28.3-25.8-.1-9.1-4.4-17.1-11.1-22.3 3-.5 6.3-1 6.3-1l-10.1-1.4-1.2-.6-2.7-1.7c-.5-2.4-1.7-5.9-3-8.6.1-3.3.3-7.1.8-11.1 1.3-11.4 2.8-18.5 5.2-19.9 2.4-1.4 2.7-3.8-.1-5.2-2.7-1.1-4 6.5-7.6 20.3z"/><path fill="#E3CFB8" d="M233.3 108.4L232 61.9"/><path fill="#FFF" d="M231.6 51c-6 .2-10.7 5.2-10.5 11.1l1.4 46.5c.2 6 5.2 10.7 11.1 10.5 1.8-.1 3.4-.5 4.9-1.3 3.5-1.9 5.8-5.6 5.6-9.8l-1.4-46.5c-.1-5.9-5.1-10.6-11.1-10.5z"/><path fill="#D14C27" d="M122.8 44.2c-15.7.8-27.9 14.2-27.1 29.9.8 15.8 14 24.8 29.8 24 15.8-.8 28.1-11.1 27.3-26.8-.8-15.7-14.2-27.9-30-27.1z"/><path fill="#D86C40" d="M95.7 74.1c.3 6.9 3 12.5 7.3 16.6-.1-.4-.2-.7-.3-1.1-1.1-4-1.6-8.1-1.3-12.4.8-10.8 7.2-21.6 15.9-28 2.7-2 5.7-3.5 8.6-4.6.2-.1.3-.3.5-.4-1.2-.1-2.5-.1-3.8-.1-15.5.9-27.7 14.3-26.9 30z"/><path fill="#769A45" d="M127.3 20.4c-.9 4-1.1 8.5-1 12.9-1.5 2.1-7.2 10.4-7.2 10.4l-2 .4-11.9-3.3 5.1 4.6 7 1.7 3.4-.9-3.1 3.4s-.7 4.4-1.5 6.4c1.5-2 5-6.2 5-6.2l6.1-3.6c.1 0 .1.1.2.1.6 4.5 1.3 7.5 1.3 7.5 3.5 4.7 2.6 2.2 1.7-5.9 2.7 1.3 5.4 2.7 5.9 2.6 1-.2 10.8-2.2 10.8-2.2l-10.4-1.1L133 45c-.6-2.4-1.9-5.8-3.3-8.5 0-3.3 0-7.1.3-11.2.9-11.5 2.1-18.6 4.4-20.1 2.3-1.5 2.6-3.9-.3-5.2-2.7-1.1-3.7 6.5-6.8 20.4z"/><path fill="#78BD78" d="M115.6 56.9c.2-.1.4-.5.5-.9-.5.7-.8 1.1-.5.9z"/><path fill="#FFF" d="M142.7 63.9c-6.1 14.5.7 31.3 15.3 37.4 14.5 6.1 28.4-1.9 34.5-16.5 6.1-14.5 2.1-30.1-12.4-36.2-14.6-6.1-31.3.7-37.4 15.3z"/><path fill="#F2ECE6" d="M164.7 70.9c-7.7 4.2-15.7 7-23.9 8.5 1.5 9.4 7.7 17.9 17.1 21.8 14.5 6.1 28.4-1.9 34.5-16.5 5-11.9 3.2-24.5-5.6-32-5.8 7.7-13.2 13.8-22.1 18.2z"/><path fill="#FFF" d="M87.1 37.9C71.7 34.6 55 51.8 51.8 67.3 48.5 82.7 59 94.8 74.5 98.1c15.4 3.3 29.9-3.6 33.2-19 3.2-15.5-5.1-37.9-20.6-41.2z"/><path fill="#A7A135" d="M20.9 43.2c-4.9.7-26.9 1.1-19.3 4 7.6 2.9 5.7 15.3 27 34.2 21.3 18.9 54.8 4.7 54.8 4.7s-1.9-16-15.7-31.3C53.8 39.6 31.6 41.6 20.9 43.2z"/><linearGradient id="a" gradientUnits="userSpaceOnUse" x1="277.805" y1="-580.292" x2="324.883" y2="-580.292" gradientTransform="matrix(.877 -.48 .48 .877 60.665 721.423)"><stop offset="0" stop-color="#FFF"/><stop offset="1"/></linearGradient><path opacity=".1" fill="url(#a)" d="M81.1 83.2c-.8-.8-1.7-1.9-2.9-3s-2.5-2.4-4-3.6c-.4-.3-.8-.6-1.2-1-.4-.3-.8-.6-1.2-1-.8-.7-1.7-1.3-2.6-2-.9-.7-1.9-1.3-2.9-2s-2-1.3-3.1-1.9c-1.1-.6-2.1-1.3-3.3-1.8-1.1-.6-2.3-1.2-3.4-1.8-.6-.3-1.2-.6-1.7-.9-.6-.3-1.2-.6-1.8-.8-1.2-.6-2.4-1.1-3.6-1.6-2.4-1.1-4.8-2.1-7.2-3-2.4-.9-4.8-1.8-7.1-2.6-4.6-1.6-9-3-12.8-4-3.8-1-6.9-1.8-9.2-2.3-2.2-.5-3.5-.7-3.5-.7l-.1.3s1.3.3 3.4.9c2.2.6 5.3 1.5 9 2.8 1.8.6 3.8 1.3 5.9 2.1 2.1.8 4.3 1.6 6.5 2.5 2.3.9 4.6 1.9 6.9 2.9 2.3 1 4.7 2.1 7 3.3 1.1.6 2.3 1.2 3.4 1.8.6.3 1.1.6 1.7.9.6.3 1.1.6 1.7.9 1.1.6 2.2 1.3 3.2 1.9 1.1.6 2.1 1.3 3.1 1.9 2.1 1.2 4 2.5 5.9 3.6l2.7 1.8c.4.3.9.6 1.3.8.4.3.8.6 1.2.8.8.6 1.6 1.1 2.3 1.6.7.5 1.4 1 2 1.5 1.3.9 2.4 1.8 3.3 2.4.9.7 1.6 1.3 2.1 1.6.5.4.8.6.8.6l.2-.2s-.2-.3-.6-.7c0-.4-.6-1.1-1.4-2z"/><g><path fill="#B4AD51" d="M43.1 13.3c3.9 7.1-5.5 15.4-1.5 43.6 4 28.2 38.8 39 38.8 39s8.9-13.5 8.2-34c-.7-20.6-19-33.4-28.2-39.1-4.3-2.7-21.3-16.6-17.3-9.5z"/><linearGradient id="b" gradientUnits="userSpaceOnUse" x1="317.35" y1="-580.307" x2="328.222" y2="-580.307" gradientTransform="matrix(.877 -.48 .48 .877 60.665 721.423)"><stop offset="0" stop-color="#FFF"/><stop offset="1"/></linearGradient><path opacity=".1" fill="url(#b)" d="M55.9 30.7c-2.2-3.2-4.1-5.8-5.5-7.6-1.4-1.8-2.2-2.8-2.2-2.8l-.2.2s.8 1 2 2.9c1.3 1.9 3.1 4.6 5.1 7.9 1 1.7 2.1 3.5 3.2 5.4 1.1 1.9 2.2 4 3.4 6.1 1.1 2.1 2.3 4.4 3.4 6.7s2.2 4.6 3.2 7l1.5 3.6c.2.6.5 1.2.7 1.8.2.6.4 1.2.7 1.8l1.2 3.6c.4 1.2.8 2.3 1.2 3.5.8 2.3 1.5 4.5 2.2 6.6.3 1 .6 2.1.9 3.1.2.5.3 1 .4 1.5.1.5.3 1 .4 1.4.2.9.5 1.8.7 2.7.2.9.4 1.7.6 2.4.4 1.5.7 2.9.9 4 .2 1.1.4 2 .5 2.6.1.6.2.9.2.9h.3v-.9-2.7c-.1-1.1-.1-2.5-.3-4.1-.2-1.6-.4-3.4-.7-5.3l-.3-1.5-.3-1.5c-.2-1-.5-2.1-.7-3.2-.3-1.1-.5-2.2-.9-3.4-.3-1.1-.7-2.3-1.1-3.5-.4-1.2-.8-2.3-1.3-3.5-.5-1.2-1-2.4-1.5-3.5-.3-.6-.5-1.2-.8-1.8-.3-.6-.5-1.2-.8-1.8-.5-1.2-1.1-2.4-1.7-3.6-1.1-2.4-2.3-4.7-3.5-7-1.2-2.3-2.5-4.5-3.7-6.6-2.5-4.4-5-8.2-7.2-11.4z"/></g><path fill="#FFF" d="M104.1 86c-6.1 14.5 7.6 34.2 22.2 40.3 14.5 6.1 28.4-1.9 34.5-16.5 6.1-14.5 2.1-30.1-12.4-36.2-14.5-6.1-38.2-2.2-44.3 12.4z"/><path fill="#F2ECE6" d="M140.5 102.8c-5.4 8.2-12.4 14.7-20.9 19.7 2.2 1.5 4.4 2.8 6.7 3.8 14.5 6.1 28.4-1.9 34.5-16.5 5-12 3.2-24.7-5.8-32.2-2.8 9.6-7.7 17.9-14.5 25.2z"/><g><path fill="#D14C27" d="M186.7 70.6c-15.8.2-28.4 13.1-28.3 28.9.2 15.8 13.1 25.3 28.8 25.2 15.8-.2 28.5-10 28.3-25.8-.1-15.8-13-28.4-28.8-28.3z"/><path fill="#D86C40" d="M158.4 99.5c.1 6.9 2.6 12.6 6.7 16.8-.1-.4-.2-.7-.2-1.1-.9-4-1.3-8.2-.8-12.5 1.2-10.8 8-21.3 17-27.3 2.8-1.9 5.8-3.3 8.8-4.2.2-.1.3-.3.5-.4-1.2-.1-2.5-.2-3.8-.2-15.7.2-28.3 13.1-28.2 28.9z"/><path fill="#769A45" d="M192.1 47c-1 4-1.5 8.5-1.5 12.8-1.6 2.1-7.6 10.1-7.6 10.1l-2 .3-11.8-3.7 5 4.8 6.9 1.9 3.4-.7-3.2 3.3s-.9 4.4-1.8 6.3c1.5-1.9 5.2-6 5.2-6l6.2-3.3c.1 0 .1.1.2.1.5 4.5 1 7.6 1 7.6 3.3 4.8 2.5 2.3 1.9-5.9 2.6 1.4 5.3 2.9 5.8 2.8 1-.2 10.9-1.7 10.9-1.7l-10.4-1.5-3.6-2.3c-.5-2.4-1.7-5.9-3-8.6.1-3.3.3-7.1.8-11.1 1.3-11.4 2.8-18.5 5.2-19.9 2.4-1.4 2.7-3.8-.1-5.2-2.6-1.4-3.9 6.1-7.5 19.9z"/><path fill="#78BD78" d="M179 83.1c.2-.1.4-.5.6-.9-.6.6-.9 1-.6.9z"/></g><g><path fill="#EB5D3E" d="M97.1 66.4c.9-.3 1.7-.5 2.6-.8-1.5.5-2.9 1.2-4.3 1.8-2.4 1.7-4.5 3.6-6.7 5.6-4.2 4-8.1 8.3-12.7 12-4.9 4-8.7 9.1-14 12.6-4 2.7-8.1 5.1-12.2 7.5-.6.5-4.4 3.2-4.7 3.4-.8.6-1.6 1.2-2.4 1.7 0 .4.1.7.2 1.1 9.2 10.3 23.8 15.1 38 11.1 20-5.5 31.8-26.1 26.3-46.1-.8-2.8-2.2-7.3-5.1-12-1.5.9-3.2 1.5-5 2.1z"/><path fill="#EE8356" d="M97.1 66.4c.9-.3 1.7-.5 2.6-.8-1.5.5-2.9 1.2-4.3 1.8-2.4 1.7-4.5 3.6-6.7 5.6-4.2 4-8.1 8.3-12.7 12-4.9 4-8.7 9.1-14 12.6-4 2.7-8.1 5.1-12.2 7.5-.6.5-4.4 3.2-4.7 3.4-.9.7-1.7 1.3-2.7 1.8 0 .1.1.3.1.4.8 1 2.9 3.4 3.1 3.6 19.8 15.1 39 4 43.4.9 23.6-16.4 19.4-30.9 14.5-41.9-.4-1-2.2-5.8-2.3-6.7 0-.4-.3-.9-.8-1.5-.9.5-2 .9-3.3 1.3z"/><path fill="#EB5D3E" d="M91 74.3c-.4 5.4 2.2 6.9 1 8.7-1 1.5-6-1.6-7.2-.2-1.3 1.6 3.5 6.9 1.8 8.1-1.4 1-4.2-4.1-5.8-3.5-2.7.9-1.4 11.3-1.4 11.3s-3.2-4.1-3.8-4.7c-.6-.6-2.7-4.7-3.7 1.6-1.1 6.3-2.6 10.7-3.6 9-1.1-1.7-2.4-11.2-3.9-7.2-1.6 3.9-7.6 6.1-7.6 6.1s-6.7 4-2.5 6.3c4.2 2.2 25.8 4 31.4-3.2 5.6-7.2 15.7-18.2 12.2-38-.1 0-6.5.3-6.9 5.7z"/><path fill="#F5928C" d="M74.4 101.5c-.8.3-.8 2.5-.3 4s1.2 1.6 2 1.3c.8-.3 1.3-.8.9-2.3-.5-1.4-1.8-3.3-2.6-3zM88.2 86.8c-.3.8 1.4 2.2 2.9 2.8 1.4.6 2 .1 2.3-.7.3-.8.2-1.6-1.2-2.1-1.4-.7-3.6-.8-4 0zM81.2 91.8c-.8.7.2 3.2 1.5 4.7 1.2 1.4 2.2 1.2 3 .5.8-.7 1.2-1.6-.1-3-1.2-1.5-3.6-2.9-4.4-2.2z"/></g></svg>