<svg version="1" xmlns="http://www.w3.org/2000/svg" width="142.3" height="142.9" viewBox="0 0 142.3 142.9"><path fill="#1D1D1B" d="M74.7 7.7C37.5 7.7 7.1 38.1 7.1 75.3c0 37.3 30.3 67.6 67.6 67.6s67.6-30.3 67.6-67.6c0-37.2-30.3-67.6-67.6-67.6zm0 125c-31.6 0-57.4-25.7-57.4-57.4C17.4 43.7 43.1 18 74.7 18s57.4 25.7 57.4 57.4c0 31.6-25.7 57.3-57.4 57.3z" opacity=".2"/><circle opacity=".5" fill="#FFEEDB" cx="67.6" cy="70.6" r="62.5"/><path fill="#F3F3F3" d="M67.6 3C30.3 3 0 33.3 0 70.6s30.3 67.6 67.6 67.6 67.6-30.3 67.6-67.6S104.9 3 67.6 3zm0 125c-31.6 0-57.4-25.7-57.4-57.4 0-31.6 25.7-57.4 57.4-57.4S125 38.9 125 70.6c0 31.6-25.8 57.4-57.4 57.4z"/><path fill="#F08346" d="M67.6 21.6c-27.5 0-49.7 21.9-49.7 49s22.3 49 49.7 49 49.7-21.9 49.7-49-22.2-49-49.7-49z"/><path opacity=".5" fill="#FFEEDB" d="M78.8 39.4l-2.9-5.1c-1.2-3-4.7-4.5-7.7-3.2l-23.9 9.8c-3 1.2-4.5 4.7-3.2 7.7 0 0 2.3 5 3.9 11.5.7 2.8 4.9 10 4.9 10 1.2 3 4.7 4.5 7.7 3.2l23.9-9.8c3-1.2 4.5-4.7 3.2-7.7l-5.9-16.4zM105.8 60.9l-2.9-5.1c-1.2-3-4.7-4.5-7.7-3.2l-23.9 9.8c-3 1.2-4.5 4.7-3.2 7.7 0 0 2.3 5 3.9 11.5.7 2.8 4.9 10 4.9 10 1.2 3 4.7 4.5 7.7 3.2l23.9-9.8c3-1.2 4.5-4.7 3.2-7.7l-5.9-16.4z"/><path opacity=".5" fill="#FFEEDB" d="M79.7 79.7L54.9 65.9c-3.1-1.7-7.1-.6-8.8 2.5 0 0-2.7 5.4-7.1 11.3-1.9 2.5-5.2 11.1-5.2 11.1-1.7 3.1-.6 7.1 2.5 8.8l24.8 13.7c3.1 1.7 7.1.6 8.8-2.5l9.9-16.3 2.4-6c1.8-3.2.6-7.1-2.5-8.8z"/><circle opacity=".5" fill="#FFEEDB" cx="26.7" cy="63.1" r="3.5"/><circle opacity=".5" fill="#FFEEDB" cx="28.4" cy="87.9" r="1.7"/><circle opacity=".5" fill="#FFEEDB" cx="32.6" cy="80.1" r="2.4"/><circle opacity=".5" fill="#FFEEDB" cx="67" cy="44.4" r="1.3"/><circle opacity=".5" fill="#FFEEDB" cx="65.7" cy="36.8" r="1.3"/><circle opacity=".5" fill="#FFEEDB" cx="72.7" cy="37.3" r="1.6"/><circle opacity=".5" fill="#FFEEDB" cx="63" cy="100.5" r="1.3"/><circle opacity=".5" fill="#FFEEDB" cx="66" cy="93.5" r="1.3"/><circle opacity=".5" fill="#FFEEDB" cx="71.6" cy="97.7" r="1.6"/><circle opacity=".5" fill="#FFEEDB" cx="109.1" cy="57.9" r="3.8"/><circle opacity=".5" fill="#FFEEDB" cx="111.2" cy="73.6" r="2.1"/><circle opacity=".5" fill="#FFEEDB" cx="106.4" cy="84.3" r="2.7"/><circle opacity=".5" fill="#FFEEDB" cx="95.5" cy="101.2" r="2.6"/><circle opacity=".5" fill="#FFEEDB" cx="88.2" cy="104.3" r="3.1"/><circle opacity=".5" fill="#FFEEDB" cx="90.6" cy="94.2" r="2.3"/><circle opacity=".5" fill="#FFEEDB" cx="34.6" cy="53.7" r="2.6"/><circle opacity=".5" fill="#FFEEDB" cx="27.1" cy="51.6" r="3.1"/><circle opacity=".5" fill="#FFEEDB" cx="35.3" cy="45.2" r="2.3"/><path fill="#F47E22" d="M131 1.3c-1.7-1.7-4.4-1.7-6.1 0l-46 45.8c-1.7 1.7-1.7 4.4 0 6.1l2.5 2.5c1.7 1.7 4.4 1.7 6.1 0l45.9-45.9c1.7-1.7 1.7-4.4 0-6.1L131 1.3z"/><circle fill="#FEE1C9" cx="83.4" cy="47.1" r="1.1"/><circle fill="#FAAE73" cx="85.1" cy="52" r="1.1"/><circle fill="#FEE1C9" cx="92" cy="40" r="1.1"/><circle fill="#FEE1C9" cx="95.8" cy="36" r="1.1"/><circle fill="#FEE1C9" cx="101.9" cy="28.3" r="1.1"/><circle fill="#FEE1C9" cx="100.1" cy="33.1" r="1.1"/><circle fill="#FAAE73" cx="106.7" cy="26.5" r="1.1"/><circle fill="#FAAE73" cx="87.5" cy="44.5" r="1.1"/><circle fill="#FEE1C9" cx="108.7" cy="23" r="1.1"/><circle fill="#FEE1C9" cx="108.4" cy="30.2" r="1.1"/><circle fill="#FAAE73" cx="103.8" cy="33.3" r="1.1"/><circle fill="#FEE1C9" cx="97.7" cy="41" r="1.1"/><circle fill="#FEE1C9" cx="100.2" cy="37" r="1.1"/><circle fill="#FEE1C9" cx="92.9" cy="42.8" r="1.1"/><circle fill="#FEE1C9" cx="113.5" cy="25.3" r="1.1"/><circle fill="#FAAE73" cx="90.9" cy="46.4" r="1.1"/><circle fill="#FEE1C9" cx="129.8" cy="8.1" r="1.1"/><circle fill="#FEE1C9" cx="123.8" cy="15.9" r="1.1"/><circle fill="#FAAE73" cx="125.5" cy="11.2" r="1.1"/><circle fill="#FAAE73" cx="119.1" cy="17.9" r="1.1"/><circle fill="#FEE1C9" cx="117.2" cy="21.4" r="1.1"/><circle fill="#FEE1C9" cx="117.4" cy="14.2" r="1.1"/><circle fill="#FAAE73" cx="121.9" cy="11" r="1.1"/><circle fill="#FEE1C9" cx="127.8" cy="3.2" r="1.1"/><circle fill="#FAAE73" cx="125.4" cy="7.3" r="1.1"/><circle fill="#FAAE73" cx="112.4" cy="19.3" r="1.1"/></svg>