<svg version="1" xmlns="http://www.w3.org/2000/svg" width="43.1" height="317.5" viewBox="0 0 43.1 317.5"><path opacity=".15" fill="#231F20" d="M36.2 3.3l.1 82.6c0 .1-.1.1-.1.2-2.3 4.8-4.3.7-4.7 0l-.9-82.8s-.3-3-1.4-3c-.9 0-1.2 3-1.2 3l-2.4 83.2c-2.2 4-4.1.2-4.4-.5l-.9-82.8s-.2-3-1.3-3c-.9 0-1.3 3-1.3 3l-2.4 82.5c0 .1-.1.1-.1.2-2.4 5-4.5.4-4.7-.1l.8-82.7s-.1-3-1.3-3c-1.1 0-1.7 3-1.7 3s-4.6 69-4.6 84.4c-.1 15.5 13.6 29.3 13.6 29.3L13 310s2.6 6.5 9.4 6.5c6.9 0 9.5-6.4 9.5-6.4L29.3 117s13.8-13.7 13.9-29.2c.1-15.5-4-84.5-4-84.5s-.3-3-1.4-3c-1.7 0-1.6 3-1.6 3z"/><path fill="#A8AAAD" d="M34.5 3.1l.1 82.6c0 .1-.1.1-.1.2-2.3 4.8-4.3.7-4.7 0l-.9-82.8s-.3-3-1.4-3c-.9 0-1.2 3-1.2 3l-2.4 83.2c-2.2 4-4.1.2-4.4-.5L18.6 3s-.2-3-1.3-3C16.4 0 16 3 16 3l-2.4 82.5c0 .1-.1.1-.1.2-2.4 5-4.5.4-4.7-.1L9.6 3s-.1-3-1.3-3C7.2 0 6.6 3 6.6 3S2 72 1.9 87.4c-.1 15.5 13.6 29.3 13.6 29.3l-4.2 193.1s2.6 6.5 9.4 6.5c6.9 0 9.5-6.4 9.5-6.4l-2.6-193.1s13.8-13.7 13.9-29.2c.1-15.5-4-84.5-4-84.5s-.3-3-1.4-3c-1.7 0-1.6 3-1.6 3z"/><linearGradient id="a" gradientUnits="userSpaceOnUse" x1="1073.417" y1="-1190.845" x2="1020.094" y2="-1159.399" gradientTransform="matrix(.709 -.705 .705 .709 109.336 1704.58)"><stop offset=".301" stop-color="#CCDADF"/><stop offset="1" stop-color="#E1F3FC"/></linearGradient><path fill="url(#a)" d="M32.6 2.2l.1 82.6c0 .1-.1.1-.1.2-2.3 4.8-4.3.7-4.7 0L27 2.2s-.3-3-1.4-3c-.9 0-1.2 3-1.2 3L22 85.4c-2.2 4-4.1.2-4.4-.5l-.9-82.8s-.2-3-1.3-3c-.9 0-1.3 3-1.3 3l-2.4 82.5c0 .1-.1.1-.1.2-2.4 5-4.5.4-4.7-.1l.8-82.6s-.1-3-1.3-3c-1.1 0-1.7 3-1.7 3S.1 71.1 0 86.5c-.1 15.5 13.6 29.3 13.6 29.3L9.4 308.9s2.6 6.5 9.4 6.5c6.9 0 9.5-6.4 9.5-6.4l-2.6-193.1s13.8-13.7 13.9-29.2c.1-15.5-4-84.5-4-84.5s-.3-3-1.4-3c-1.7 0-1.6 3-1.6 3z"/><path fill="#E1F3FC" d="M9.4 308.9s2.6 6.5 9.4 6.5c6.9 0 9.5-6.4 9.5-6.4l-2-148.5c-4.6 2.8-9.2 5.5-13.8 8.1L9.4 308.9z"/></svg>