<svg version="1" xmlns="http://www.w3.org/2000/svg" width="40.3" height="327.8" viewBox="0 0 40.3 327.8"><path fill="#A8AAAD" d="M20.1 5.8c-12.7 11-24 120-16.2 149 0 0 18.2 4.3 18.1 20.6l-2.8 144.1s2.6 6.5 9.4 6.5c6.9 0 9.5-6.4 9.5-6.4l-2-154.4L38 9.1S32.8-5.2 20.1 5.8z"/><path opacity=".15" fill="#231F20" d="M22.2 7.6c-12.7 11-24 120-16.2 149 0 0 18.2 4.3 18.1 20.6l-2.8 144.1s2.6 6.5 9.4 6.5c6.9 0 9.5-6.4 9.5-6.4l-2-154.4L40 10.8c.1 0-5.1-14.2-17.8-3.2z"/><linearGradient id="a" gradientUnits="userSpaceOnUse" x1="264.248" y1="-427.613" x2="315.122" y2="-476.897" gradientTransform="matrix(.948 -.32 .32 .948 -101.422 680.341)"><stop offset=".301" stop-color="#CCDADF"/><stop offset="1" stop-color="#E1F3FC"/></linearGradient><path fill="url(#a)" d="M18.8 4.2c-12.7 11-24 120-16.2 149 0 0 18.2 4.3 18.1 20.6l-2.8 144.1s2.6 6.5 9.4 6.5c6.9 0 9.5-6.4 9.5-6.4l-2-154.4L36.7 7.4S31.5-6.8 18.8 4.2z"/><path fill="#E1F3FC" d="M18.8 4.2C8.8 12.8-.3 81.9 0 125.2c4.3-3.6 8.6-7.2 12.8-10.9 7.9-6.8 15.7-14 22.9-21.6l1-85.3S31.5-6.8 18.8 4.2z"/></svg>