<svg version="1" xmlns="http://www.w3.org/2000/svg" width="304.5" height="171.8" viewBox="0 0 304.5 171.8"><g opacity=".47"><g fill="#C6C6C5"><path d="M31.9 158.4c-1 .1-1.9-.6-2-1.6L14.5 43.5c-.1-1 .6-1.9 1.6-2L284.8 5c1-.1 1.9.6 2 1.6l15.4 113.3c.1 1-.6 1.9-1.6 2L31.9 158.4z"/><path d="M301.3 120c.1.5-.3 1-.8 1L31.8 157.5c-.5.1-1-.3-1-.8L15.4 43.3c-.1-.5.3-1 1.9-2.1L286 4.9c-.6 1-.1 1.4-.1 1.8L301.3 120z"/></g><g fill="#C6C6C5"><path d="M37.4 171.7c-1 .2-1.9-.4-2.1-1.4l-23-112c-.2-1 .4-1.9 1.4-2.1L279.3 1.6c1-.2 1.9.4 2.1 1.4l23 112c.2 1-.4 1.9-1.4 2.1L37.4 171.7z"/><path d="M303.5 115.3c.1.5-.2 1-.7 1.1L37.2 170.8c-.5.1-1-.2-1.1-.7l-23-112c-.1-.5.2-1 .7-1.1L279.5 2.5c.5-.1 1 .2 1.1.7l22.9 112.1z"/></g><path fill="#C6C6C5" d="M25.9 167.1c-1 .2-1.9-.5-2.1-1.5L5.1 52.8c-.2-1 .5-1.9 1.5-2.1L274 6.3c1-.2 1.9.5 2.1 1.5l18.7 112.8c.2 1-.5 1.9-1.5 2.1L25.9 167.1z"/><path fill="#C6C6C5" d="M294 120.7c.1.5-.3 1-.7 1L25.8 166.2c-.5.1-1-.3-1-.7L6 52.6c-.1-.5.3-1 .7-1L274.2 7.2c.5-.1 1 .3 1 .7L294 120.7z"/><path fill="#C6C6C5" d="M33.4 156.2c-.5.1-1-.3-1-.7L16 57c-.1-.5.3-1 .7-1l253.1-42c.5-.1 1 .3 1 .7l16.4 98.5c.1.5-.3 1-.7 1l-253.1 42z"/><path fill="#C6C6C5" d="M34.1 155.1c-.5.1-1-.3-1-.7L17 57.7c-.1-.5.3-1 .7-1L269 15c.5-.1 1 .3 1 .7l16.1 96.7c.1.5-.3 1-.7 1L34.1 155.1z"/><path fill="#C6C6C5" d="M44.8 149.2c-4.6.8-9-2.4-9.8-7L23 70.4c-.8-4.6 2.4-9 7-9.8l228.7-38c4.6-.8 9 2.4 9.8 7l11.9 71.8c.8 4.6-2.4 9-7 9.8l-228.6 38z"/><path fill="#C6C6C5" d="M44.6 148.3c-4.1.7-8.1-2.1-8.7-6.3l-12-71.8c-.7-4.1 2.1-8.1 6.3-8.7l228.7-38c4.1-.7 8.1 2.1 8.7 6.3l11.9 71.8c.7 4.1-2.1 8.1-6.3 8.7l-228.6 38z"/><path fill="#C6C6C5" d="M110.4 91.9c3.4 20.3 17.3 35.7 34.1 39.9l29-4.8c14.5-9.3 22.7-28.5 19.3-48.8-3.1-18.7-15.2-33.3-30.1-38.7l-36.2 6c-12.4 10-19.2 27.7-16.1 46.4z"/><path fill="#C6C6C5" d="M112.3 91.6c3.6 21.9 20.2 37.9 38.9 39.1l15.7-2.6c17.3-7.2 27.8-27.7 24.1-49.5-3.2-19.6-16.8-34.4-33-38.2l-26.8 4.5C117.1 53.5 109 72 112.3 91.6z"/><path fill-rule="evenodd" clip-rule="evenodd" fill="#C6C6C5" d="M127.9 66.7c1.2 7.2 5.9 13 12.1 15.8-8.7 6.5-14.8 18.4-17.1 32.9 7.3 8.9 17.4 14.5 28.2 15.2l15.7-2.6c10.7-4.4 18.7-13.9 22.5-25.7-6.8-12-16-20.6-25.8-23.8 4.9-4.7 7.5-11.7 6.3-18.9-1.8-10.7-11.2-18.2-21.8-17.8l-5.3.9c-10 3.1-16.6 13.3-14.8 24z"/><path fill-rule="evenodd" clip-rule="evenodd" fill="#C6C6C5" d="M162.8 79.6c4.9-4.7 7.5-11.7 6.3-18.9-1.9-11.6-12.9-19.4-24.5-17.5-11.6 1.9-19.4 12.9-17.5 24.5 1.2 7.2 5.9 13 12.1 15.8-8.3 6.2-14.3 17.5-16.8 31.3 7.3 9.2 17.6 15.1 28.6 15.8l15.7-2.6c10.2-4.2 18-13.1 22-24.2-6.7-12.2-16-21-25.9-24.2zM68.7 84.2c-7.8 1.3-13.2 8.7-11.8 16.6 1.3 7.8 8.7 13.2 16.6 11.8 7.8-1.3 13.2-8.7 11.8-16.6-1.3-7.8-8.7-13.1-16.6-11.8zm4.2 25c-5.9 1-11.6-3-12.6-9-1-5.9 3-11.6 9-12.6 5.9-1 11.6 3 12.6 9s-3.1 11.6-9 12.6z"/><circle fill-rule="evenodd" clip-rule="evenodd" fill="#C6C6C5" cx="71.1" cy="98.4" r="8.9"/><path fill="#C6C6C5" d="M73.8 114.6c-8.9 1.5-17.4-4.6-18.9-13.5s4.6-17.4 13.5-18.9 17.4 4.6 18.9 13.5-4.6 17.4-13.5 18.9zm-5.3-31.7c-8.6 1.4-14.4 9.6-13 18.1 1.4 8.6 9.6 14.4 18.1 13 8.6-1.4 14.4-9.6 13-18.1-1.4-8.7-9.5-14.5-18.1-13z"/><g fill="#C6C6C5"><path d="M229.4 64.7c-.3.5-.3 1-.2 1.6.1.5.3.9.7 1.3.4.4.9.7 1.5.8l-.8-4.9c-.6.3-1 .7-1.2 1.2zM234.2 72.7l.9 5.5c.7-.2 1.2-.7 1.6-1.3.4-.6.5-1.2.4-2-.1-.6-.4-1.1-.8-1.5-.5-.3-1.2-.6-2.1-.7z"/><path d="M247.6 70.4l2.3-3.8-4-2.1.6-4.5-4.5-.3-1.3-4.3-4.2 1.6-2.9-3.4-3.2 3.1-4.1-1.9-1.7 4.2-4.5-.1.2 4.5-4.1 1.7 2 4-3.1 3.3 3.5 2.9-1.5 4.2 4.3 1.2.4 4.5 4.4-.6 2.1 3.9 3.8-2.4 3.6 2.7 2.5-3.7 4.4 1 .8-4.4 4.4-.8-1.1-4.4 3.7-2.5-2.8-3.6zm-8 8.1c-.8 1.3-2.2 2.3-4 2.9l.4 2.6-2.1.3-.4-2.6c-1.7.1-3.1-.3-4.3-1.2-1.2-.8-2.1-2.2-2.7-4l3.6-1c.3.7.7 1.3 1.2 1.8s1 .8 1.6 1l-1-5.9c-1.9-.2-3.4-.8-4.5-1.7-1-.9-1.7-2.2-1.9-3.7-.3-1.5 0-2.9.8-4.1.8-1.2 2-2 3.6-2.5l-.2-1.4 2.1-.3.2 1.4c1.5-.1 2.8.2 3.8.9s1.8 1.7 2.3 3.1l-3.5 1.1c-.4-1.1-1.1-1.7-2.1-2l.9 5.5c2.4.2 4 .8 5 1.6s1.6 2 1.9 3.6c.4 1.7.1 3.2-.7 4.6z"/></g><g fill="#C6C6C5"><path d="M262.4 41.5c.1.5-.3 1-.7 1l-66 11c-.5.1-1-.3-1-.7v-.2c-.1-.5.3-1 .7-1l66-11c.5-.1 1 .3 1 .7v.2zM261.7 37.2c.1.5-.3 1-.7 1l-66 11c-.5.1-1-.3-1-.7v-.2c-.1-.5.3-1 .7-1l66-11c.5-.1 1 .3 1 .7v.2z"/></g><path fill="#C6C6C5" d="M109 116c.1.5-.3 1-.7 1l-66 11c-.5.1-1-.3-1-.7v-.2c-.1-.5.3-1 .7-1l66-11c.5-.1 1 .3 1 .7v.2z"/><g fill-rule="evenodd" clip-rule="evenodd" fill="#C6C6C5"><path d="M248.6 101.1c-4.2.7-7.3 2.6-6.7 6 .6 3.5 4.2 4.2 8.3 3.5 4.2-.7 7.3-2.6 6.7-6-.6-3.5-4.2-4.2-8.3-3.5zm1.5 8.8c-.7.1-1.6-1.6-2-3.8-.4-2.2-.1-4.1.6-4.2.7-.1 1.6 1.6 2 3.8.3 2.2.1 4.1-.6 4.2zM264 98.5c-4.2.7-7.3 2.6-6.7 6 .6 3.5 4.2 4.2 8.3 3.5s7.3-2.6 6.7-6c-.5-3.4-4.1-4.2-8.3-3.5zm1.5 8.9c-.7.1-1.6-1.6-2-3.8-.4-2.2-.1-4.1.6-4.2.7-.1 1.6 1.6 2 3.8.4 2.2.1 4.1-.6 4.2zM240.6 102.4l1 6.1s.4 3 3.2 2.5l.1.6-11.9 2-.1-.6s3.1-.8 2.7-3c-.2-1.2-.1-3.6-3.7-3l-.1-.6s4.1-.6 3.9-3.1l4.9-.9z"/><g><path d="M59.3 132.5c-4.2.7-7.3 2.6-6.7 6 .6 3.5 4.2 4.2 8.3 3.5 4.2-.7 7.3-2.6 6.7-6-.6-3.4-4.2-4.2-8.3-3.5zm1.4 8.9c-.7.1-1.6-1.6-2-3.8-.4-2.2-.1-4.1.6-4.2.7-.1 1.6 1.6 2 3.8.4 2.2.2 4.1-.6 4.2zM74.7 129.9c-4.2.7-7.3 2.6-6.7 6 .6 3.5 4.2 4.2 8.3 3.5 4.2-.7 7.3-2.6 6.7-6-.6-3.4-4.1-4.1-8.3-3.5zm1.5 8.9c-.7.1-1.6-1.6-2-3.8-.4-2.2-.1-4.1.6-4.2.7-.1 1.6 1.6 2 3.8.4 2.2.1 4.1-.6 4.2z"/><path d="M51.3 133.8l1 6.1s.4 3 3.2 2.5l.1.6-11.9 2-.1-.6s3.1-.8 2.7-3c-.2-1.2-.1-3.6-3.7-3l-.1-.6s4.1-.6 3.9-3.1l4.9-.9z"/></g></g><g fill-rule="evenodd" clip-rule="evenodd" fill="#C6C6C5"><path d="M235.7 23.2c-4.2.7-7.3 2.6-6.7 6 .6 3.5 4.2 4.2 8.3 3.5 4.2-.7 7.3-2.6 6.7-6-.6-3.4-4.2-4.2-8.3-3.5zm1.4 8.9c-.7.1-1.6-1.6-2-3.8-.4-2.2-.1-4.1.6-4.2.7-.1 1.6 1.6 2 3.8.4 2.2.1 4.1-.6 4.2zM251.1 20.7c-4.2.7-7.3 2.6-6.7 6 .6 3.5 4.2 4.2 8.3 3.5 4.2-.7 7.3-2.6 6.7-6-.6-3.5-4.2-4.2-8.3-3.5zm1.5 8.8c-.7.1-1.6-1.6-2-3.8-.4-2.2-.1-4.1.6-4.2.7-.1 1.6 1.6 2 3.8.3 2.2.1 4.1-.6 4.2zM227.7 24.5l1 6.1s.4 3 3.2 2.5l.1.6-11.9 2-.1-.6s3.1-.8 2.7-3c-.2-1.2-.1-3.6-3.7-3l-.1-.6s4.1-.6 3.9-3.1l4.9-.9z"/><g><path d="M46.3 54.7c-4.2.7-7.3 2.6-6.7 6 .6 3.5 4.2 4.2 8.3 3.5 4.2-.7 7.3-2.6 6.7-6-.5-3.5-4.1-4.2-8.3-3.5zm1.5 8.8c-.7.1-1.6-1.6-2-3.8-.4-2.2-.1-4.1.6-4.2.7-.1 1.6 1.6 2 3.8.4 2.2.1 4.1-.6 4.2zM61.8 52.1c-4.2.7-7.3 2.6-6.7 6 .6 3.5 4.2 4.2 8.3 3.5 4.2-.7 7.3-2.6 6.7-6-.6-3.4-4.2-4.2-8.3-3.5zm1.4 8.9c-.7.1-1.6-1.6-2-3.8-.4-2.2-.1-4.1.6-4.2.7-.1 1.6 1.6 2 3.8.4 2.2.1 4.1-.6 4.2z"/><path d="M38.4 56l1 6.1s.4 3 3.2 2.5l.1.6-11.9 2-.1-.6s3.1-.8 2.7-3c-.2-1.2-.1-3.6-3.7-3l-.1-.6s4.1-.6 3.9-3.1l4.9-.9z"/></g></g></g><path fill="#F2F5CD" d="M26.9 156.7c-1 .1-1.9-.6-2-1.6L9.5 41.9c-.1-1 .6-1.9 1.6-2L279.7 3.4c1-.1 1.9.6 2 1.6l15.4 113.3c.1 1-.6 1.9-1.6 2L26.9 156.7z"/><path fill="#E8EFBD" d="M296.2 118.4c.1.5-.3 1-.8 1L26.7 155.8c-.5.1-1-.3-1-.8L10.4 41.7c-.1-.5.3-1 1.9-2.1L280.9 3.2c-.6 1-.1 1.4-.1 1.8l15.4 113.4z"/><path fill="#F2F5CD" d="M32.3 170.1c-1 .2-1.9-.4-2.1-1.4l-23-112c-.2-1 .4-1.9 1.4-2.1L274.2 0c1-.2 1.9.4 2.1 1.4l23 112c.2 1-.4 1.9-1.4 2.1L32.3 170.1z"/><path fill="#E8EFBD" d="M298.4 113.7c.1.5-.2 1-.7 1.1L32.2 169.2c-.5.1-1-.2-1.1-.7l-23-112c-.1-.5.2-1 .7-1.1L274.4.9c.5-.1 1 .2 1.1.7l22.9 112.1z"/><g><path fill="#F2F5CD" d="M20.9 165.5c-1 .2-1.9-.5-2.1-1.5L0 51.2c-.2-1 .5-1.9 1.5-2.1L269 4.7c1-.2 1.9.5 2.1 1.5L289.8 119c.2 1-.5 1.9-1.5 2.1L20.9 165.5z"/><path fill="#E8EFBD" d="M288.9 119.1c.1.5-.3 1-.7 1L20.7 164.6c-.5.1-1-.3-1-.7L.9 51c-.1-.5.3-1 .7-1L269.1 5.6c.5-.1 1 .3 1 .7l18.8 112.8z"/><path fill="#8EA847" d="M28.3 154.6c-.5.1-1-.3-1-.7L10.9 55.3c-.1-.5.3-1 .7-1l253.1-42c.5-.1 1 .3 1 .7l16.4 98.5c.1.5-.3 1-.7 1L28.3 154.6z"/><path fill="#AAC56A" d="M29.1 153.5c-.5.1-1-.3-1-.7L12 56.1c-.1-.5.3-1 .7-1L264 13.3c.5-.1 1 .3 1 .7l16.1 96.7c.1.5-.3 1-.7 1L29.1 153.5z"/><path fill="#F2F5CD" d="M39.7 147.6c-4.6.8-9-2.4-9.8-7L18 68.8c-.8-4.6 2.4-9 7-9.8l228.7-38c4.6-.8 9 2.4 9.8 7l11.9 71.8c.8 4.6-2.4 9-7 9.8l-228.7 38z"/><path fill="#E8EFBD" d="M39.5 146.7c-4.1.7-8.1-2.1-8.7-6.3L18.9 68.6c-.7-4.1 2.1-8.1 6.3-8.7l228.7-38c4.1-.7 8.1 2.1 8.7 6.3l11.9 71.8c.7 4.1-2.1 8.1-6.3 8.7l-228.7 38z"/><path fill="#8EA847" d="M105.4 90.2c3.4 20.3 17.3 35.7 34.1 39.9l29-4.8c14.5-9.3 22.7-28.5 19.3-48.8-3.1-18.7-15.2-33.3-30.1-38.7l-36.2 6c-12.5 10.1-19.2 27.8-16.1 46.4z"/><path fill="#AAC56A" d="M107.2 89.9c3.6 21.9 20.2 37.9 38.9 39.1l15.7-2.6c17.3-7.2 27.8-27.7 24.1-49.5-3.2-19.6-16.8-34.4-33-38.2l-26.8 4.5c-14.1 8.7-22.2 27.2-18.9 46.7z"/><path fill-rule="evenodd" clip-rule="evenodd" fill="#8EA847" d="M122.8 65c1.2 7.2 5.9 13 12.1 15.8-8.7 6.5-14.8 18.4-17.1 32.9 7.3 8.9 17.4 14.5 28.2 15.2l15.7-2.6c10.7-4.4 18.7-13.9 22.5-25.7-6.8-12-16-20.6-25.8-23.8 4.9-4.7 7.5-11.7 6.3-18.9-1.7-10.5-11.1-18-21.7-17.6l-5.3.9c-10.1 3-16.6 13.2-14.9 23.8z"/><path fill-rule="evenodd" clip-rule="evenodd" fill="#C6D882" d="M157.7 78c4.9-4.7 7.5-11.7 6.3-18.9-1.9-11.6-12.9-19.4-24.5-17.5-11.6 1.9-19.4 12.9-17.5 24.5 1.2 7.2 5.9 13 12.1 15.8-8.3 6.2-14.3 17.5-16.8 31.3 7.3 9.2 17.6 15.1 28.6 15.8l15.7-2.6c10.2-4.2 18-13.1 22-24.2-6.7-12.2-16-21-25.9-24.2z"/><path fill-rule="evenodd" clip-rule="evenodd" fill="#AAC56A" d="M63.7 82.6c-7.8 1.3-13.2 8.7-11.8 16.6 1.3 7.8 8.7 13.2 16.6 11.8 7.8-1.3 13.2-8.7 11.8-16.6-1.4-7.8-8.8-13.1-16.6-11.8zm4.1 25c-5.9 1-11.6-3-12.6-9-1-5.9 3-11.6 9-12.6 5.9-1 11.6 3 12.6 9 1 5.9-3 11.6-9 12.6z"/><circle fill-rule="evenodd" clip-rule="evenodd" fill="#AAC56A" cx="66" cy="96.8" r="8.9"/><path fill="#AAC56A" d="M68.7 113c-8.9 1.5-17.4-4.6-18.9-13.5s4.6-17.4 13.5-18.9 17.4 4.6 18.9 13.5-4.6 17.4-13.5 18.9zm-5.3-31.8c-8.6 1.4-14.4 9.6-13 18.1 1.4 8.6 9.6 14.4 18.1 13 8.6-1.4 14.4-9.6 13-18.1-1.4-8.6-9.5-14.4-18.1-13z"/><g fill="#AAC56A"><path d="M224.3 63.1c-.3.5-.3 1-.2 1.6.1.5.3.9.7 1.3.4.4.9.7 1.5.8l-.8-4.9c-.5.3-.9.7-1.2 1.2zM229.1 71.1l.9 5.5c.7-.2 1.2-.7 1.6-1.3.4-.6.5-1.2.4-2-.1-.6-.4-1.1-.8-1.5-.5-.4-1.2-.6-2.1-.7z"/><path d="M242.5 68.8l2.3-3.8-4-2.1.6-4.5-4.5-.3-1.3-4.3-4.2 1.6-2.9-3.4-3.2 3.1-4.1-1.9-1.7 4.2-4.5-.1.2 4.5-4.1 1.7 2 4-3.1 3.3 3.5 2.9-1.5 4.2 4.3 1.2.4 4.5 4.4-.6 2.1 3.9 3.8-2.4 3.6 2.7 2.5-3.7 4.4 1 .8-4.4 4.4-.8-1.1-4.4 3.7-2.5-2.8-3.6zm-8 8.1c-.8 1.3-2.2 2.3-4 2.9l.4 2.6-2.1.3-.4-2.6c-1.7.1-3.1-.3-4.3-1.2-1.2-.8-2.1-2.2-2.7-4l3.6-1c.3.7.7 1.3 1.2 1.8s1 .8 1.6 1l-1-5.9c-1.9-.2-3.4-.8-4.5-1.7-1-.9-1.7-2.2-1.9-3.7-.3-1.5 0-2.9.8-4.1.8-1.2 2-2 3.6-2.5l-.2-1.4 2.1-.3.2 1.4c1.5-.1 2.8.2 3.8.9s1.8 1.7 2.3 3.1l-3.5 1.1c-.4-1.1-1.1-1.7-2.1-2l.9 5.5c2.4.2 4 .8 5 1.6s1.6 2 1.9 3.6c.4 1.7.1 3.2-.7 4.6z"/></g><g fill="#AAC56A"><path d="M257.4 39.9c.1.5-.3 1-.7 1l-66 11c-.5.1-1-.3-1-.7V51c-.1-.5.3-1 .7-1l66-11c.5-.1 1 .3 1 .7v.2zM256.6 35.6c.1.5-.3 1-.7 1l-66 11c-.5.1-1-.3-1-.7v-.2c-.1-.5.3-1 .7-1l66-11c.5-.1 1 .3 1 .7v.2z"/></g><path fill="#AAC56A" d="M103.9 114.4c.1.5-.3 1-.7 1l-66 11c-.5.1-1-.3-1-.7v-.2c-.1-.5.3-1 .7-1l66-11c.5-.1 1 .3 1 .7v.2z"/><g fill-rule="evenodd" clip-rule="evenodd" fill="#677733"><path d="M243.5 99.5c-4.2.7-7.3 2.6-6.7 6 .6 3.5 4.2 4.2 8.3 3.5 4.2-.7 7.3-2.6 6.7-6-.5-3.5-4.1-4.2-8.3-3.5zm1.5 8.8c-.7.1-1.6-1.6-2-3.8-.4-2.2-.1-4.1.6-4.2.7-.1 1.6 1.6 2 3.8.4 2.2.1 4.1-.6 4.2zM258.9 96.9c-4.2.7-7.3 2.6-6.7 6 .6 3.5 4.2 4.2 8.3 3.5s7.3-2.6 6.7-6c-.5-3.4-4.1-4.2-8.3-3.5zm1.5 8.9c-.7.1-1.6-1.6-2-3.8-.4-2.2-.1-4.1.6-4.2.7-.1 1.6 1.6 2 3.8.4 2.2.1 4-.6 4.2zM235.5 100.8l1 6.1s.4 3 3.2 2.5l.1.6-11.9 2-.1-.6s3.1-.8 2.7-3c-.2-1.2-.1-3.6-3.7-3l-.1-.6s4.1-.6 3.9-3.1l4.9-.9z"/><g><path d="M54.2 130.9c-4.2.7-7.3 2.6-6.7 6 .6 3.5 4.2 4.2 8.3 3.5 4.2-.7 7.3-2.6 6.7-6-.6-3.4-4.2-4.2-8.3-3.5zm1.5 8.9c-.7.1-1.6-1.6-2-3.8-.4-2.2-.1-4.1.6-4.2.7-.1 1.6 1.6 2 3.8.3 2.2.1 4.1-.6 4.2zM69.6 128.3c-4.2.7-7.3 2.6-6.7 6 .6 3.5 4.2 4.2 8.3 3.5 4.2-.7 7.3-2.6 6.7-6-.5-3.4-4.1-4.1-8.3-3.5zm1.5 8.9c-.7.1-1.6-1.6-2-3.8-.4-2.2-.1-4.1.6-4.2.7-.1 1.6 1.6 2 3.8.4 2.2.1 4.1-.6 4.2z"/><path d="M46.2 132.2l1 6.1s.4 3 3.2 2.5l.1.6-11.9 2-.1-.6s3.1-.8 2.7-3c-.2-1.2-.1-3.6-3.7-3l-.1-.6s4.1-.6 3.9-3.1l4.9-.9z"/></g></g><g fill-rule="evenodd" clip-rule="evenodd" fill="#677733"><path d="M230.6 21.6c-4.2.7-7.3 2.6-6.7 6 .6 3.5 4.2 4.2 8.3 3.5 4.2-.7 7.3-2.6 6.7-6-.6-3.4-4.2-4.2-8.3-3.5zm1.4 8.9c-.7.1-1.6-1.6-2-3.8-.4-2.2-.1-4.1.6-4.2.7-.1 1.6 1.6 2 3.8.4 2.2.2 4.1-.6 4.2zM246 19.1c-4.2.7-7.3 2.6-6.7 6 .6 3.5 4.2 4.2 8.3 3.5 4.2-.7 7.3-2.6 6.7-6-.5-3.5-4.1-4.2-8.3-3.5zm1.5 8.8c-.7.1-1.6-1.6-2-3.8-.4-2.2-.1-4.1.6-4.2.7-.1 1.6 1.6 2 3.8.4 2.2.1 4.1-.6 4.2zM222.6 22.9l1 6.1s.4 3 3.2 2.5l.1.6-11.9 2-.1-.6s3.1-.8 2.7-3c-.2-1.2-.1-3.6-3.7-3l-.1-.6s4.1-.6 3.9-3.1l4.9-.9z"/><g><path d="M41.3 53.1c-4.2.7-7.3 2.6-6.7 6 .6 3.5 4.2 4.2 8.3 3.5s7.3-2.6 6.7-6c-.6-3.5-4.2-4.2-8.3-3.5zm1.4 8.8c-.7.1-1.6-1.6-2-3.8-.4-2.2-.1-4.1.6-4.2.7-.1 1.6 1.6 2 3.8.4 2.2.1 4.1-.6 4.2zM56.7 50.5c-4.2.7-7.3 2.6-6.7 6 .6 3.5 4.2 4.2 8.3 3.5 4.2-.7 7.3-2.6 6.7-6-.6-3.4-4.2-4.2-8.3-3.5zm1.5 8.9c-.7.1-1.6-1.6-2-3.8-.4-2.2-.1-4.1.6-4.2.7-.1 1.6 1.6 2 3.8.3 2.2.1 4.1-.6 4.2z"/><path d="M33.3 54.4l1 6.1s.4 3 3.2 2.5l.1.6-11.9 2-.1-.6s3.1-.8 2.7-3c-.2-1.2-.1-3.6-3.7-3l-.1-.6s4.1-.6 3.9-3.1l4.9-.9z"/></g></g></g><g><linearGradient id="a" gradientUnits="userSpaceOnUse" x1="-17.6" y1="-944.877" x2="-17.6" y2="-1064.986" gradientTransform="matrix(.994 -.106 .111 1.043 276.091 1130.353)"><stop offset=".04" stop-color="#FFF"/><stop offset=".1" stop-color="#EFEEEE"/><stop offset=".527" stop-color="#FFF"/><stop offset=".9" stop-color="#EFEEEE"/><stop offset=".96" stop-color="#FFF"/></linearGradient><path fill="url(#a)" d="M173.4 140.7l-37.7 8.2-14.9-124 37.1-5"/></g></svg>