<svg version="1" xmlns="http://www.w3.org/2000/svg" width="112" height="111.9" viewBox="0 0 112 111.9"><path opacity=".25" fill="#1D1D1B" d="M57.6 3.1c-30 0-54.4 24.4-54.4 54.4s24.4 54.4 54.4 54.4S112 87.5 112 57.5 87.6 3.1 57.6 3.1z"/><circle fill="#C3AE90" cx="54.4" cy="54.4" r="50.1"/><path fill="#E5E5E5" d="M54.4 0C24.4 0 0 24.4 0 54.4s24.4 54.4 54.4 54.4 54.4-24.4 54.4-54.4S84.4 0 54.4 0zm0 100.2c-25.3 0-45.8-20.5-45.8-45.8 0-25.3 20.5-45.8 45.8-45.8 25.3 0 45.8 20.5 45.8 45.8 0 25.3-20.5 45.8-45.8 45.8z"/><g opacity=".2" fill="#1D1D1B"><path d="M70.9 71.8c-.4-.2-.9-.3-1.4-.5h-.1c-.4-.1-.9-.2-1.3-.3h-.2c-.4-.1-.9-.1-1.3-.2h-.3c-.4 0-.8-.1-1.2-.1H63c-.4 0-.8.1-1.1.2-.2 0-.3 0-.5.1l-1.2.3c-.2 0-.3.1-.5.1-.5.1-1.1.3-1.6.5s-.9.4-1.4.6c-.1.1-.3.1-.4.2-.3.2-.6.3-1 .5-.1.1-.2.1-.4.2-.1 0-.1.1-.2.1-.4-.4-.9-.7-1.3-1-.1-.1-.3-.2-.4-.3-.2-.1-.4-.3-.6-.4l-.6-.3c-.2-.1-.3-.2-.5-.3-.4-.2-.8-.4-1.2-.5-.1-.1-.3-.1-.4-.2l-.9-.3c-.1 0-.3-.1-.4-.1-.5-.1-.9-.3-1.4-.4l-1.5-.3c-.2 0-.3 0-.5-.1-.3 0-.7-.1-1-.1h-2.1c-.3 0-.5 0-.8.1-.2 0-.4 0-.6.1-.3 0-.5.1-.8.1-.2 0-.4.1-.6.1-.2 0-.5.1-.7.2-.4.1-.9.2-1.3.4-.2.1-.3.1-.5.2-.3.1-.5.2-.8.3-.1.1-.3.1-.4.2-.3.1-.5.2-.7.4-.1.1-.2.1-.4.2s-.5.3-.7.4c-.1.1-.2.1-.3.2-.2.2-.5.3-.7.5l-.2.2c-1.9 1.6-3.2 3.6-3.7 5.9-1.5 6.8 4.2 13.9 12.7 15.9 3.4.8 6.8.6 9.7-.3 3.9 3 9.9 3.9 15.8 1.7 8.2-3 12.9-10.8 10.5-17.4-1-3.3-3.4-5.5-6.5-6.8zM96.5 60.4c1.4-2 2.1-4.4 2-6.9-.3-4.4-3.5-8.2-7.9-10.1-.5-.2-1.1-.4-1.7-.6-.2-.1-.3-.1-.5-.2s-.5-.1-.7-.2c-.2-.1-.5-.1-.7-.2-.2 0-.4-.1-.6-.1-.4-.1-.8-.1-1.3-.2h-.5c-.3 0-.7 0-1-.1H81.8c-.5 0-1 .1-1.5.2-.2 0-.3.1-.5.1-.1 0-.2 0-.3.1 3.6-3.7 5.1-8.5 3.5-12.9-.3-.8-.7-1.6-1.2-2.3-.2-.3-.5-.6-.7-.9l-.3-.3c-.2-.2-.3-.4-.5-.5-.1-.1-.3-.2-.4-.3-.2-.1-.4-.3-.5-.4-.1-.1-.3-.2-.4-.3-.2-.1-.4-.3-.6-.4-.2-.1-.3-.2-.5-.3l-.6-.3c-.2-.1-.3-.2-.5-.2-.2-.1-.5-.2-.7-.3-.2-.1-.3-.1-.5-.2-.3-.1-.7-.2-1.1-.3-.1 0-.1 0-.2-.1-.4-.1-.8-.2-1.3-.2-.2 0-.3 0-.5-.1-.3 0-.6-.1-.9-.1h-2c-.3 0-.6 0-.9.1-.2 0-.4 0-.6.1-.3 0-.6.1-.9.1-.2 0-.4.1-.6.1-.3.1-.7.1-1 .2-.2 0-.3.1-.5.1-.5.1-1 .3-1.5.5s-.9.4-1.3.6c-.1.1-.2.1-.4.2-.3.2-.7.3-1 .5-.1.1-.2.1-.3.2-.4.2-.8.5-1.1.7-.1.1-.2.1-.3.2-.3.2-.5.4-.8.6-.1.1-.2.2-.4.3-.3.2-.5.4-.8.7-.1.1-.3.2-.4.4l-.7.7-.4.4c-.1.2-.3.3-.4.5-.1.2-.2.3-.4.5l-.6.9-.3.6c-.1.1-.1.3-.2.4l-.3.6c0 .1-.1.2-.1.3-.2.4-.4.9-.5 1.3 0 .1 0 .2-.1.2-.1.2-.1.5-.2.7v.1c-.4 1.9-.3 3.9.4 5.8 0 .1.1.1.1.2H53c-.2 0-.4-.1-.6-.1-.2 0-.4-.1-.6-.1h-1.2c-.4 0-.8 0-1.1.1-.1 0-.3 0-.4.1-.3 0-.5.1-.8.1-.1 0-.3.1-.4.1-.2.1-.5.1-.7.2-.1 0-.3.1-.4.2-.2.1-.5.2-.7.3-.1.1-.2.1-.3.2-.4.2-.7.4-1 .6-3.1 2.1-4.7 5.7-4.8 9.7-1.1-4.6-3.9-8.4-7.5-10.1-.4-.2-.7-.3-1.1-.5-.4-.1-.7-.2-1.1-.3H30c-.3-.1-.6-.1-.9-.2-.4-.1-.8-.1-1.2-.1-7 0-12.7 7.1-12.7 15.9 0 .5 0 1 .1 1.5v.5c0 .3.1.6.1.9 0 .2.1.4.1.6 0 .3.1.5.2.8 0 .2.1.4.1.7 0 .1.1.3.1.4.2.6.3 1.1.5 1.6 0 .1.1.2.1.3.1.3.3.6.4.9 0 .1.1.1.1.2 2.2 4.5 6.2 7.6 10.8 7.6 7 0 12.7-7.1 12.7-15.9v-.2c.5 2.1 1.5 4.2 2.8 6.1.3.4.6.8.9 1.1.1.1.1.2.2.3.3.3.6.7.9 1l.2.2.7.7.3.3c.3.3.6.5.9.7.1.1.3.2.4.3.2.1.4.3.6.4.2.1.3.2.5.3 4.6 2.8 9.9 3.1 13.8.4 2.9-2.1 4.5-5.4 4.7-9.2 1 2.3 2.8 4.2 5.1 5.7-.1 3.5 1 7.3 3.4 10.6.3.4.6.8.9 1.1.1.1.1.2.2.3.3.3.6.7.9 1l.2.2c.2.2.5.5.8.7l.3.3c.3.3.6.5.9.7.1.1.3.2.4.3.2.1.4.3.6.4 4.7 3 10.2 3.5 14.2.7 5.8-4 6.3-13.1 1.3-20.3.2-.2 0-.3-.1-.5zm-27-12.6c-.1.1-.1.2-.2.3-.2.2-.4.5-.5.7 0 .1-.1.1-.1.2-.9 1.4-1.5 2.9-1.8 4.5-.6-1.9-1.4-3.7-2.6-5.4l-.1-.1c1.8.2 3.7.1 5.6-.4-.1 0-.2.1-.3.2zM44.9 18.6c-.2-.1-.3-.2-.5-.2l-.6-.3c-.2-.1-.4-.2-.7-.3-.2-.1-.4-.2-.5-.2-.4-.1-.8-.3-1.2-.4-.2 0-.3-.1-.5-.1-.3-.1-.6-.2-1-.2-.1 0-.3-.1-.4-.1-.5-.1-.9-.2-1.4-.2-.5-.1-1-.1-1.5-.1h-2.1c-.3 0-.6 0-.9.1-.2 0-.4 0-.6.1-.3 0-.5.1-.8.1-.2 0-.4.1-.6.1-.3.1-.5.1-.8.2-.2.1-.4.1-.6.2-.2.1-.5.2-.7.2-.4.2-.9.3-1.3.5-.1.1-.3.1-.4.2-.3.1-.5.3-.7.4-.1.1-.3.1-.4.2-.2.1-.5.3-.7.4-.1.1-.2.2-.3.2-.2.2-.5.3-.7.5-.1.1-.2.1-.3.2-.2.2-.4.4-.7.6l-.2.2c-1 1-1.8 2.2-2.4 3.5-.4.9-.6 1.8-.8 2.8-.9 7 5.5 13.5 14.2 14.5 8.9 1 16.7-3.7 17.5-10.7.6-4.9-2.4-9.7-7.4-12.4z"/></g><g><ellipse fill="#5D463B" cx="25.5" cy="54.3" rx="12.7" ry="15.9"/><path fill="#695247" d="M25.5 38.4c-7 0-12.7 7.1-12.7 15.9 0 3.4.9 6.6 2.4 9.2.9-.5 2.6-2 3.7-2.4l1.5-1.5c.5-.5 1-1.1 1.5-1.7.1-.1.3-.4.6-.7.3-.4.8-1 .9-1.2.6-.9 1.2-1.7 1.8-2.6.9-1.4 1.8-2.8 2.6-4.3.4-.7.8-1.5 1.1-2.2v-.2c.3-1.5.8-3.1 1.2-4.6v-.3-2.4c-1.4-.6-2.9-1-4.6-1z"/><ellipse fill="#2F221B" cx="25.6" cy="45.3" rx="5.3" ry="4.1"/><ellipse transform="matrix(-.345 -.939 .939 -.345 4.651 166.141)" fill="#5D463B" cx="60.3" cy="81.4" rx="12.7" ry="15.9"/><path fill="#695247" d="M55.9 69.5c-6.2 2.3-10.4 7.2-11.1 12.3 1.6 0 3.2-.1 4.8-.3 2.3-.7 2.2-.5 1.3-.2.7-.1 1.4-.2 2-.3 2.1-.4 4.2-1 6.2-1.7.1-.1.3-.1.4-.1 1-.6 2.1-1.1 3.1-1.7.1-.1.2-.2.3-.2.6-.6 1.2-1.1 1.7-1.6 0-.1.1-.1.1-.2.7-1.1 2.1-4.7.3-.2.8-2.2 2-4.1 3.4-5.8-3.5-1.5-8-1.6-12.5 0z"/><ellipse transform="matrix(-.345 -.939 .939 -.345 18.823 169.913)" fill="#2F221B" cx="68.7" cy="78.4" rx="5.3" ry="4.1"/><ellipse transform="matrix(-.345 -.939 .939 -.345 57.741 105.365)" fill="#5D463B" cx="65.6" cy="32.5" rx="12.7" ry="15.9"/><path fill="#695247" d="M61.2 20.6c-5.9 2.2-10 6.8-10.9 11.6 1.1.3 2.1.8 3 1.4.4.3.8.5 1.2.8h1.2c2 0 4.1-.1 6.1-.3.2-.1.4-.1.6-.1.6-.1 1.3-.2 1.9-.4 2.5-.6 4.9-1.4 7.2-2.2.1 0 .2-.1.2-.1.8-.5 2.4-1.2 3-2-1.6 1.2-1.7 1.3-.3.2.6-.5 1.2-1.1 1.8-1.6 1.1-1 2-2 3-3.1-3.3-5-10.8-6.8-18-4.2z"/><ellipse transform="matrix(-.345 -.939 .939 -.345 71.916 109.139)" fill="#2F221B" cx="74" cy="29.5" rx="5.3" ry="4.1"/><g><ellipse transform="matrix(-.572 -.82 .82 -.572 37.451 125.475)" fill="#908331" cx="51.5" cy="53" rx="15.9" ry="12.7"/><path fill="#9C8F45" d="M58.9 42.4c-5-4.5-11.8-5.7-16.6-2.4-5.8 4-6.3 13.1-1.3 20.3 1.6 2.3 3.6 4.1 5.7 5.4l.3-.3c.2-.3.5-.6.8-.8.8-.6 1.5-1.2 2.2-1.9 1.3-1.1 2.5-2.2 3.7-3.4.7-.7 1.4-1.5 2.1-2.2 0 0 0-.1.1-.1.3-.7.8-1.3 1.2-2 .4-.7.7-1 .8-1.1.4-1.1.6-2.5.8-3.5 0-.7.2-1.7.3-2.3.1-1.7.1-3.5 0-5.2 0-.3-.1-.4-.1-.5z"/><ellipse transform="matrix(-.572 -.82 .82 -.572 35.486 109.741)" fill="#6C6229" cx="46.4" cy="45.6" rx="4.1" ry="5.3"/></g><g><ellipse transform="matrix(-.572 -.82 .82 -.572 78.258 172.448)" fill="#908331" cx="84.1" cy="65.8" rx="15.9" ry="12.7"/><path fill="#9C8F45" d="M91.6 55.2c-5-4.6-11.8-5.7-16.6-2.4-5.8 4-6.3 13.1-1.3 20.3 1.6 2.3 3.6 4.1 5.7 5.4l.3-.3c.2-.3.5-.6.8-.8.8-.6 1.5-1.2 2.2-1.9 1.3-1.1 2.5-2.2 3.7-3.4.7-.7 1.4-1.5 2.1-2.2 0 0 0-.1.1-.1.3-.7.8-1.3 1.2-2 .4-.7.7-1 .8-1.1.4-1.1.6-2.5.8-3.5 0-.7.2-1.7.3-2.3.1-1.7.1-3.5 0-5.2-.1-.2-.1-.4-.1-.5z"/><ellipse transform="matrix(-.572 -.82 .82 -.572 76.292 156.714)" fill="#6C6229" cx="79" cy="58.4" rx="4.1" ry="5.3"/></g><g><ellipse transform="matrix(-.069 -.998 .998 -.069 33.659 135.981)" fill="#5D463B" cx="80.3" cy="52.3" rx="12.7" ry="15.9"/><path fill="#695247" d="M79.4 39.6c-7.5.5-13.5 5.2-14.8 10.9 1.2 0 2.5-.1 3.7-.1.7 0 1.5-.1 2.2-.2 1.7-.7 2.1-.6 1.7-.4.9-.1 1.8-.2 2.7-.4 1.5-.4 3-.8 4.4-1.3 0 0 .1 0 .1-.1-.8.2-.3-.4 1.3-.5 1.2-.6 2.4-1.3 3.6-2.1.5-.3.9-.8 1.4-1-.2.1-.4.2-.5.2-1.3 1.2-2.2 1 0 0 .5-.4.9-.9 1.3-1.3.4-.9.7-1.3.8-1.3.2-.3.5-.6.7-1-2.4-1-5.4-1.6-8.6-1.4z"/><path fill="#2F221B" d="M88.9 47.3c-.3-.5-.9-.5-1.2 0-.3.5-.3 1.2 0 1.7l4.5 6.3c.2.2.4.4.6.4.2 0 .4-.1.6-.3.3-.5.3-1.2 0-1.7l-4.5-6.4z"/><path fill="#2F221B" d="M92.2 47.3l-4.5 6.3c-.3.5-.3 1.2 0 1.7.2.2.4.3.6.3.2 0 .4-.1.6-.4l4.5-6.3c.3-.5.3-1.2 0-1.7-.3-.4-.9-.4-1.2.1z"/></g><g><ellipse transform="matrix(.122 -.993 .993 .122 3.509 57.414)" fill="#908331" cx="34.2" cy="26.7" rx="12.7" ry="15.9"/><path fill="#9C8F45" d="M19.2 22c1.2.2 2.4.4 3.7.6.7.1 1.5.2 2.2.2 1.7-.4 2.2-.2 1.8-.1.9 0 1.9.1 2.7.1 1.5-.1 3-.2 4.6-.4h.1c-.8 0-.2-.5 1.4-.3 1.3-.4 2.6-.8 3.9-1.3.5-.2 1.1-.6 1.6-.7-.2 0-.4.1-.5.1-1.5.9-2.3.6 0 0 .5-.3 1-.7 1.5-1 .5-.8.9-1.2 1.1-1.1.3-.3.6-.5.9-.8-2.3-1.6-5.2-2.7-8.3-3.1-7.7-1-14.4 2.4-16.7 7.8z"/><path fill="#6C6229" d="M43.6 23.4c-.2-.5-.8-.6-1.2-.2-.4.4-.6 1.1-.3 1.6l3.2 7.1c.1.3.3.4.5.5.2 0 .4 0 .7-.2.4-.4.6-1.1.3-1.6l-3.2-7.2zM46.9 24.1l-5.6 5.3c-.4.4-.6 1.1-.3 1.6.1.3.3.4.5.4s.5 0 .7-.2l5.6-5.3c.4-.4.6-1.1.3-1.6s-.8-.6-1.2-.2z"/></g><g><ellipse transform="matrix(.219 -.976 .976 .219 -44.871 103.179)" fill="#908331" cx="42" cy="79.6" rx="12.7" ry="15.9"/><path fill="#9C8F45" d="M27.5 73.5l3.6.9c.7.2 1.4.3 2.1.5 1.8-.2 2.2 0 1.8.1.9.1 1.8.3 2.7.4 1.5.1 3 .1 4.6 0h.1c-.8-.1-.2-.5 1.4-.1 1.4-.2 2.7-.6 4-1 .5-.2 1.1-.5 1.7-.6-.2 0-.4.1-.6.1-1.6.8-2.4.4 0 0h.1c.6-.3 1.1-.6 1.6-.9.6-.8 1.1-1.1 1.2-1 .3-.2.6-.5.9-.7-2.1-1.8-4.9-3.2-8-3.9-7.3-1.7-14.4 1-17.2 6.2z"/><path fill="#6C6229" d="M51.7 77.3c-.2-.5-.7-.7-1.2-.4-.5.3-.7 1.1-.5 1.6l2.5 7.3c.1.3.3.4.5.5.2.1.4 0 .7-.2.5-.3.7-1.1.5-1.6l-2.5-7.2zM54.9 78.2L48.7 83c-.4.3-.7 1.1-.5 1.6.1.3.3.4.5.5.2.1.5 0 .7-.2l6.1-4.8c.4-.3.7-1.1.5-1.6-.1-.5-.7-.6-1.1-.3z"/></g></g></svg>